<?xml version="1.0" standalone="no"?><!DOCTYPE svg PUBLIC "-//W3C//DTD SVG 1.1//EN" "http://www.w3.org/Graphics/SVG/1.1/DTD/svg11.dtd" ><svg xmlns="http://www.w3.org/2000/svg"><metadata></metadata><defs><font id="2.100;NONE;Muli-Regular" horiz-adv-x="1315"><font-face font-family="Muli Light" font-weight="300" font-stretch="normal" units-per-em="1000" panose-1="0 0 0 0 0 0 0 0 0 0" ascent="1005" descent="-250" x-height="0" bbox="-201 -273 1276 1086" underline-thickness="50" underline-position="-100" unicode-range="U+0000-fb02" /><missing-glyph horiz-adv-x="500" d="M50 -216 l400 0 l0 952 l-400 0 l0 -952 ZM100 -166 l0 852 l300 0 l0 -852 l-300 0 Z" /><glyph glyph-name="A" unicode="a" d="M91 0 l-65 0 l310 712 l56 0 l309 -712 l-64 0 l-287 670 l28 0 l-287 -670 ZM155 190 l20 54 l379 0 l21 -54 l-420 0 Z" /><glyph glyph-name="Aogonek" unicode="&#x104;" d="M155 190 l20 54 l379 0 l21 -54 l-420 0 ZM726 -129 l17 -41 q-16 -10 -36.5 -16.5 q-20.5 -6.5 -45.5 -6.5 q-52 0 -84 29.5 q-32 29.5 -32 74.5 q0 45 30 79.5 q30 34.5 86 47.5 l-24 -38 l-287 670 l28 0 l-287 -670 l-65 0 l310 712 l56 0 l309 -712 l-10 0 q-48 0 -70 -24.5 q-22 -24.5 -22 -57.5 q0 -32 19 -48.5 q19 -16.5 49 -16.5 q13 0 28.5 4.5 q15.5 4.5 30.5 13.5 Z" /><glyph glyph-name="Aring" unicode="å" d="M365 682 q-43 0 -72 28 q-29 28 -29 70 q0 40 29 68.5 q29 28.5 71 28.5 q41 0 70.5 -28 q29.5 -28 29.5 -70 q0 -41 -29 -69 q-29 -28 -70 -28 ZM364 727 q22 0 36 15 q14 15 14 37 q0 22 -14 37 q-14 15 -35 15 q-23 0 -37 -15 q-14 -15 -14 -36 q0 -23 14 -38 q14 -15 36 -15 ZM91 0 l-65 0 l310 712 l56 0 l309 -712 l-64 0 l-287 670 l28 0 l-287 -670 ZM155 190 l20 54 l379 0 l21 -54 l-420 0 Z" /><glyph glyph-name="Aringacute" unicode="&#x1fa;" d="M26 0 l310 712 l56 0 l309 -712 l-64 0 l-287 670 l28 0 l-287 -670 l-65 0 ZM155 190 l20 54 l379 0 l21 -54 l-420 0 ZM365 682 q-43 0 -72 28 q-29 28 -29 70 q0 40 29 68.5 q29 28.5 71 28.5 q41 0 70.5 -28 q29.5 -28 29.5 -70 q0 -41 -29 -69 q-29 -28 -70 -28 ZM364 727 q22 0 36 15 q14 15 14 37 q0 22 -14 37 q-14 15 -35 15 q-23 0 -37 -15 q-14 -15 -14 -36 q0 -23 14 -38 q14 -15 36 -15 ZM437 826 l-35 19 l102 103 l78 0 l-145 -122 Z" /><glyph glyph-name="AE" unicode="æ" d="M6 0 l429 712 l510 0 l0 -54 l-502 0 l26 10 l-396 -668 l-67 0 ZM146 190 l20 54 l399 0 l11 -54 l-430 0 ZM562 0 l-64 685 l55 0 l60 -631 l332 0 l0 -54 l-383 0 ZM564 334 l0 54 l361 0 l0 -54 l-361 0 Z" /><glyph glyph-name="B" unicode="b" d="M93 0 l0 712 l274 0 q107 0 167 -48 q60 -48 60 -139 q0 -62 -34 -104.5 q-34 -42.5 -92 -60.5 l0 8 q66 -13 104.5 -58.5 q38.5 -45.5 38.5 -116.5 q0 -94 -61 -143.5 q-61 -49.5 -173 -49.5 l-284 0 ZM154 53 l219 0 q90 0 132.5 34 q42.5 34 42.5 105 q0 70 -43 106 q-43 36 -132 36 l-219 0 l0 -281 ZM154 389 l204 0 q86 0 130 35 q44 35 44 103 q0 65 -43 98.5 q-43 33.5 -131 33.5 l-204 0 l0 -270 Z" /><glyph glyph-name="C" unicode="c" d="M388 -8 q-100 0 -172 43.5 q-72 43.5 -111.5 125.5 q-39.5 82 -39.5 196 q0 114 39.5 195 q39.5 81 111.5 124.5 q72 43.5 172 43.5 q74 0 135.5 -23 q61.5 -23 106.5 -70 l-25 -49 q-52 46 -103.5 66 q-51.5 20 -113.5 20 q-123 0 -191 -80 q-68 -80 -68 -227 q0 -148 68 -228.5 q68 -80.5 191 -80.5 q62 0 113.5 20 q51.5 20 103.5 66 l25 -49 q-45 -47 -106.5 -70 q-61.5 -23 -135.5 -23 Z" /><glyph glyph-name="D" unicode="d" d="M93 0 l0 712 l228 0 q113 0 192 -41 q79 -41 120.5 -120.5 q41.5 -79.5 41.5 -193.5 q0 -115 -42 -194.5 q-42 -79.5 -121 -121 q-79 -41.5 -191 -41.5 l-228 0 ZM154 54 l164 0 q145 0 218 76 q73 76 73 227 q0 301 -291 301 l-164 0 l0 -604 Z" /><glyph glyph-name="Eth" unicode="ð" d="M6 336 l0 51 l353 0 l0 -51 l-353 0 ZM101 0 l0 712 l229 0 q112 0 191.5 -41 q79.5 -41 120.5 -120.5 q41 -79.5 41 -193.5 q0 -115 -41.5 -194.5 q-41.5 -79.5 -120.5 -121 q-79 -41.5 -191 -41.5 l-229 0 ZM163 54 l164 0 q145 0 218 76 q73 76 73 227 q0 301 -291 301 l-164 0 l0 -604 Z" /><glyph glyph-name="E" unicode="e" d="M93 0 l0 712 l438 0 l0 -53 l-377 0 l0 -271 l357 0 l0 -54 l-357 0 l0 -281 l377 0 l0 -53 l-438 0 Z" /><glyph glyph-name="Eogonek" unicode="&#x118;" d="M548 -129 l17 -41 q-16 -10 -37 -16.5 q-21 -6.5 -46 -6.5 q-51 0 -83 29.5 q-32 29.5 -32 74.5 q0 71 69 108 l16 -19 l-359 0 l0 712 l438 0 l0 -53 l-377 0 l0 -271 l357 0 l0 -54 l-357 0 l0 -281 l377 0 l0 -53 l-13 0 q-49 0 -73 -23.5 q-24 -23.5 -24 -58.5 q0 -32 19 -48.5 q19 -16.5 49 -16.5 q12 0 27.5 4.5 q15.5 4.5 31.5 13.5 Z" /><glyph glyph-name="F" unicode="f" d="M93 0 l0 712 l428 0 l0 -54 l-368 0 l0 -270 l348 0 l0 -53 l-348 0 l0 -335 l-60 0 Z" /><glyph glyph-name="G" unicode="g" d="M398 -8 q-104 0 -178.5 43.5 q-74.5 43.5 -114.5 125 q-40 81.5 -40 196.5 q0 115 40 196 q40 81 113.5 124 q73.5 43 174.5 43 q73 0 134.5 -23 q61.5 -23 107.5 -70 l-26 -49 q-52 46 -103 66.5 q-51 20.5 -114 20.5 q-126 0 -194.5 -80 q-68.5 -80 -68.5 -228 q0 -151 69.5 -231 q69.5 -80 200.5 -80 q56 0 109 10.5 q53 10.5 93 28.5 l-15 -41 l0 268 l-188 0 l0 53 l244 0 l0 -325 q-26 -14 -65.5 -25 q-39.5 -11 -86 -17 q-46.5 -6 -92.5 -6 Z" /><glyph glyph-name="H" unicode="h" d="M608 0 l0 712 l62 0 l0 -712 l-62 0 ZM93 0 l0 712 l61 0 l0 -712 l-61 0 ZM128 335 l0 53 l513 0 l0 -53 l-513 0 Z" /><glyph glyph-name="Hbar" unicode="&#x126;" d="M6 529 l0 52 l768 0 l0 -52 l-768 0 ZM616 0 l0 712 l63 0 l0 -712 l-63 0 ZM101 0 l0 712 l62 0 l0 -712 l-62 0 ZM137 335 l0 53 l495 0 l0 -53 l-495 0 Z" /><glyph glyph-name="I" unicode="i" d="M93 0 l0 712 l61 0 l0 -712 l-61 0 Z" /><glyph glyph-name="Iogonek" unicode="&#x12e;" d="M118 -193 q-52 0 -83.5 29.5 q-31.5 29.5 -31.5 74.5 q0 46 32.5 81 q32.5 35 95.5 46 l-20 -38 l-18 0 l0 712 l61 0 l0 -712 l-5 0 q-44 0 -67.5 -24.5 q-23.5 -24.5 -23.5 -57.5 q0 -32 18.5 -48.5 q18.5 -16.5 48.5 -16.5 q12 0 28 4.5 q16 4.5 32 13.5 l16 -41 q-15 -10 -36.5 -16.5 q-21.5 -6.5 -46.5 -6.5 Z" /><glyph glyph-name="J" unicode="j" d="M-7 -178 l0 56 q62 -12 99 -6 q37 6 53 37 q16 31 16 94 l0 709 l61 0 l0 -711 q0 -81 -23 -125 q-23 -44 -73 -56 q-50 -12 -133 2 Z" /><glyph glyph-name="K" unicode="k" d="M537 0 l-406 361 l387 351 l82 0 l-409 -371 l2 44 l428 -385 l-84 0 ZM93 0 l0 712 l61 0 l0 -712 l-61 0 Z" /><glyph glyph-name="L" unicode="l" d="M93 0 l0 712 l61 0 l0 -658 l368 0 l0 -54 l-429 0 Z" /><glyph glyph-name="uni01C7" unicode="&#x1c7;" d="M93 0 l0 712 l61 0 l0 -658 l338 0 l0 -54 l-399 0 ZM447 -178 l0 56 q62 -12 98.5 -6 q36.5 6 52.5 37 q16 31 16 94 l0 709 l62 0 l0 -711 q0 -81 -23 -125 q-23 -44 -73.5 -56 q-50.5 -12 -132.5 2 Z" /><glyph glyph-name="Lslash" unicode="&#x141;" d="M8 259 l0 61 l345 199 l0 -61 l-345 -199 ZM101 0 l0 712 l62 0 l0 -658 l368 0 l0 -54 l-430 0 Z" /><glyph glyph-name="M" unicode="m" d="M93 0 l0 712 l51 0 l298 -677 l-33 0 l295 677 l52 0 l0 -712 l-58 0 l0 639 l29 -3 l-279 -636 l-46 0 l-284 637 l32 2 l1 -639 l-58 0 Z" /><glyph glyph-name="N" unicode="n" d="M93 0 l0 712 l48 0 l474 -638 l-23 -2 l0 640 l58 0 l0 -712 l-48 0 l-474 637 l22 3 l0 -640 l-57 0 Z" /><glyph glyph-name="Eng" unicode="&#x14a;" d="M592 712 l58 0 l0 -719 q0 -76 -39.5 -123.5 q-39.5 -47.5 -127.5 -53.5 l-59 -4 l-4 53 l55 4 q56 4 86.5 34 q30.5 30 30.5 87 l0 52 l10 -42 l-474 637 l22 3 l0 -640 l-57 0 l0 712 l48 0 l474 -638 l-23 -2 l0 640 Z" /><glyph glyph-name="O" unicode="o" d="M383 -8 q-99 0 -170 44 q-71 44 -109.5 125.5 q-38.5 81.5 -38.5 194.5 q0 113 38.5 194.5 q38.5 81.5 109.5 125.5 q71 44 170 44 q98 0 169.5 -44 q71.5 -44 109.5 -125 q38 -81 38 -194 q0 -113 -38.5 -195 q-38.5 -82 -109.5 -126 q-71 -44 -169 -44 ZM382 47 q120 0 186.5 81 q66.5 81 66.5 229 q0 148 -66 228 q-66 80 -187 80 q-120 0 -186.5 -80.5 q-66.5 -80.5 -66.5 -227.5 q0 -147 66.5 -228.5 q66.5 -81.5 186.5 -81.5 Z" /><glyph glyph-name="Ohorn" unicode="&#x1a0;" d="M382 -8 q-97 0 -168 44 q-71 44 -110 125.5 q-39 81.5 -39 194.5 q0 113 38.5 194.5 q38.5 81.5 110 125.5 q71.5 44 172.5 44 q36 0 73.5 -4 q37.5 -4 67.5 -4 q64 1 90.5 26.5 q26.5 25.5 26.5 86.5 l0 14 l56 0 l0 -23 q0 -47 -18.5 -80 q-18.5 -33 -53.5 -50.5 q-35 -17.5 -84 -17.5 l-5 13 q78 -42 119.5 -125 q41.5 -83 41.5 -199 q0 -113 -38.5 -195 q-38.5 -82 -110 -126 q-71.5 -44 -169.5 -44 ZM382 47 q120 0 186.5 81 q66.5 81 66.5 229 q0 148 -66 228 q-66 80 -187 80 q-120 0 -186.5 -80.5 q-66.5 -80.5 -66.5 -227.5 q0 -147 66.5 -228.5 q66.5 -81.5 186.5 -81.5 Z" /><glyph glyph-name="uni01EA" unicode="&#x1ea;" d="M474 3 q-76 -21 -76 -85 q0 -30 18 -47.5 q18 -17.5 50 -17.5 q13 0 28 5 q15 5 31 13 l16 -41 q-33 -23 -82 -23 q-51 0 -83.5 29 q-32.5 29 -32.5 75 q0 31 15 57 q15 26 42 43 l8 -18 q-104 -7 -181 35.5 q-77 42.5 -119.5 126 q-42.5 83.5 -42.5 201.5 q0 113 38.5 194.5 q38.5 81.5 109.5 125.5 q71 44 169 44 q98 0 169.5 -44 q71.5 -44 110 -125 q38.5 -81 38.5 -194 q0 -140 -59 -232 q-59 -92 -167 -122 ZM129 357 q0 -147 66.5 -228.5 q66.5 -81.5 186.5 -81.5 q120 0 186.5 81 q66.5 81 66.5 229 q0 148 -66 228 q-66 80 -187 80 q-120 0 -186.5 -80.5 q-66.5 -80.5 -66.5 -227.5 Z" /><glyph glyph-name="Oslash" unicode="ø" d="M382 -8 q-98 0 -168.5 44 q-70.5 44 -109.5 125.5 q-39 81.5 -39 194.5 q0 113 38.5 194.5 q38.5 81.5 109 125.5 q70.5 44 169.5 44 q99 0 170.5 -44 q71.5 -44 109.5 -125 q38 -81 38 -194 q0 -113 -38.5 -195 q-38.5 -82 -110 -126 q-71.5 -44 -169.5 -44 ZM181 -41 l-45 25 l449 769 l44 -25 l-448 -769 ZM382 47 q120 0 186.5 81 q66.5 81 66.5 229 q0 148 -66 228 q-66 80 -187 80 q-120 0 -186.5 -80.5 q-66.5 -80.5 -66.5 -227.5 q0 -147 66.5 -228.5 q66.5 -81.5 186.5 -81.5 Z" /><glyph glyph-name="OE" unicode="&#x152;" d="M566 0 l0 68 l-2 20 l0 540 l2 17 l0 67 l437 0 l0 -53 l-378 0 l0 -271 l358 0 l0 -54 l-358 0 l0 -281 l378 0 l0 -53 l-437 0 ZM582 584 q-33 39 -84 60 q-51 21 -116 21 q-121 0 -187 -81 q-66 -81 -66 -227 q0 -147 66.5 -228.5 q66.5 -81.5 186.5 -81.5 q131 0 200 82 l0 -67 q-78 -70 -201 -70 q-97 0 -168 44 q-71 44 -109.5 126 q-38.5 82 -38.5 194 q0 113 38.5 194.5 q38.5 81.5 109 125.5 q70.5 44 168.5 44 q122 0 201 -69 l0 -67 Z" /><glyph glyph-name="P" unicode="p" d="M93 0 l0 712 l273 0 q107 0 168 -52 q61 -52 61 -143 q0 -91 -61 -144 q-61 -53 -168 -53 l-212 0 l0 -320 l-61 0 ZM154 374 l208 0 q85 0 127.5 37 q42.5 37 42.5 106 q0 68 -42.5 105 q-42.5 37 -127.5 37 l-208 0 l0 -285 Z" /><glyph glyph-name="Thorn" unicode="þ" d="M142 173 l0 53 l224 0 q85 0 125.5 34 q40.5 34 40.5 104 q0 69 -40.5 101.5 q-40.5 32.5 -125.5 32.5 l-224 0 l0 53 l229 0 q107 0 165.5 -48.5 q58.5 -48.5 58.5 -138.5 q0 -91 -59 -141 q-59 -50 -165 -50 l-229 0 ZM93 0 l0 712 l61 0 l0 -712 l-61 0 Z" /><glyph glyph-name="Q" unicode="q" d="M574 -191 q-40 31 -81.5 82.5 q-41.5 51.5 -72.5 104.5 l64 19 q27 -51 61 -90 q34 -39 72 -72 l-43 -44 ZM382 -8 q-98 0 -168.5 44 q-70.5 44 -109.5 125.5 q-39 81.5 -39 194.5 q0 113 38.5 194.5 q38.5 81.5 109 125.5 q70.5 44 169.5 44 q99 0 170.5 -44 q71.5 -44 109.5 -125 q38 -81 38 -194 q0 -113 -38.5 -195 q-38.5 -82 -110 -126 q-71.5 -44 -169.5 -44 ZM382 47 q120 0 186.5 81 q66.5 81 66.5 229 q0 148 -66 228 q-66 80 -187 80 q-120 0 -186.5 -80.5 q-66.5 -80.5 -66.5 -227.5 q0 -147 66.5 -228.5 q66.5 -81.5 186.5 -81.5 Z" /><glyph glyph-name="R" unicode="r" d="M93 0 l0 712 l273 0 q112 0 173 -50 q61 -50 61 -145 q0 -91 -61.5 -142 q-61.5 -51 -172.5 -51 l71 13 q39 0 67 -21 q28 -21 45 -69 l91 -247 l-65 0 l-87 237 q-19 50 -50 65.5 q-31 15.5 -85 15.5 l-200 0 l0 -318 l-60 0 ZM154 371 l209 0 q88 0 131.5 37 q43.5 37 43.5 109 q0 71 -43 106.5 q-43 35.5 -132 35.5 l-209 0 l0 -288 Z" /><glyph glyph-name="S" unicode="s" d="M312 -8 q-55 0 -102 10 q-47 10 -86.5 30.5 q-39.5 20.5 -73.5 52.5 l26 49 q53 -47 107.5 -67 q54.5 -20 129.5 -20 q90 0 140 37 q50 37 50 104 q0 42 -26 66 q-26 24 -68 38 q-42 14 -92 26 q-47 10 -92 23.5 q-45 13.5 -82 35 q-37 21.5 -58.5 55.5 q-21.5 34 -21.5 87 q0 60 30.5 105.5 q30.5 45.5 87 70.5 q56.5 25 134.5 25 q48 0 92 -10.5 q44 -10.5 82 -31.5 q38 -21 68 -51 l-26 -49 q-50 45 -102 66 q-52 21 -114 21 q-90 0 -140 -38.5 q-50 -38.5 -50 -107.5 q0 -43 23 -69.5 q23 -26.5 62.5 -41.5 q39.5 -15 86.5 -27 q48 -11 95.5 -23.5 q47.5 -12.5 87 -32 q39.5 -19.5 63 -52 q23.5 -32.5 23.5 -85.5 q0 -59 -31 -103 q-31 -44 -88 -68.5 q-57 -24.5 -135 -24.5 Z" /><glyph glyph-name="uni1E9E" unicode="&#x1e9e;" d="M93 0 l0 466 q0 126 64.5 189.5 q64.5 63.5 192.5 63.5 q70 0 121 -23 q51 -23 78.5 -65 q27.5 -42 27.5 -99 q0 -66 -34.5 -110.5 q-34.5 -44.5 -95.5 -58.5 l8 11 q82 -12 125.5 -59 q43.5 -47 43.5 -121 q0 -60 -27.5 -105 q-27.5 -45 -76.5 -70.5 q-49 -25.5 -114 -25.5 q-52 0 -99.5 17 q-47.5 17 -84.5 50 l25 50 q41 -33 78.5 -48 q37.5 -15 76.5 -14 q75 1 117.5 40.5 q42.5 39.5 42.5 107.5 q0 69 -45.5 104 q-45.5 35 -133.5 35 l-136 0 l0 54 l101 0 q80 0 123.5 36 q43.5 36 43.5 104 q0 63 -43.5 99 q-43.5 36 -121.5 36 q-100 0 -148 -50 q-48 -50 -48 -155 l0 -459 l-61 0 Z" /><glyph glyph-name="uni018F" unicode="&#x18f;" d="M372 -8 q-95 0 -163.5 44 q-68.5 44 -106 124.5 q-37.5 80.5 -37.5 191.5 l0 37 l581 0 l0 -56 l-534 0 l17 24 q-1 -147 63.5 -228.5 q64.5 -81.5 178.5 -81.5 q116 0 179.5 81.5 q63.5 81.5 63.5 228.5 q0 148 -69.5 228 q-69.5 80 -195.5 80 q-66 0 -122.5 -21.5 q-56.5 -21.5 -105.5 -65.5 l-26 49 q30 29 70 50 q40 21 86.5 32 q46.5 11 96.5 11 q102 0 176 -43.5 q74 -43.5 114 -125 q40 -81.5 40 -194.5 q0 -113 -37.5 -195 q-37.5 -82 -106 -126 q-68.5 -44 -162.5 -44 Z" /><glyph glyph-name="T" unicode="t" d="M267 0 l0 658 l-255 0 l0 54 l572 0 l0 -54 l-255 0 l0 -658 l-62 0 Z" /><glyph glyph-name="Tbar" unicode="&#x166;" d="M121 336 l0 51 l354 0 l0 -51 l-354 0 ZM267 0 l0 658 l-255 0 l0 54 l572 0 l0 -54 l-255 0 l0 -658 l-62 0 Z" /><glyph glyph-name="U" unicode="u" d="M364 -8 q-136 0 -206 71.5 q-70 71.5 -70 210.5 l0 438 l60 0 l0 -445 q0 -110 54.5 -165 q54.5 -55 161.5 -55 q105 0 159.5 55.5 q54.5 55.5 54.5 164.5 l0 445 l61 0 l0 -438 q0 -138 -70 -210 q-70 -72 -205 -72 Z" /><glyph glyph-name="Uhorn" unicode="&#x1af;" d="M703 839 l55 0 l0 -23 q0 -70 -40.5 -108.5 q-40.5 -38.5 -114.5 -39.5 l36 29 l0 -423 q0 -139 -70 -210.5 q-70 -71.5 -205 -71.5 q-136 0 -206 71.5 q-70 71.5 -70 210.5 l0 438 l60 0 l0 -445 q0 -110 54.5 -165 q54.5 -55 161.5 -55 q105 0 159.5 55.5 q54.5 55.5 54.5 164.5 l0 445 l18 0 q57 1 82 27 q25 26 25 86 l0 14 Z" /><glyph glyph-name="Uogonek" unicode="&#x172;" d="M578 712 l61 0 l0 -438 q0 -109 -42 -175.5 q-42 -66.5 -125 -92.5 q-45 -14 -65.5 -35 q-20.5 -21 -20.5 -53 q0 -30 18 -47.5 q18 -17.5 49 -17.5 q14 0 29.5 5 q15.5 5 30.5 13 l16 -41 q-33 -23 -82 -23 q-51 0 -83 29 q-32 29 -32 75 q0 35 18 60 q18 25 53 40 l12 -19 l-51 0 q-136 0 -206 71.5 q-70 71.5 -70 210.5 l0 438 l60 0 l0 -445 q0 -110 54.5 -165 q54.5 -55 161.5 -55 q105 0 159.5 55.5 q54.5 55.5 54.5 164.5 l0 445 Z" /><glyph glyph-name="V" unicode="v" d="M315 0 l-308 712 l65 0 l287 -668 l-30 0 l287 668 l65 0 l-309 -712 l-57 0 Z" /><glyph glyph-name="W" unicode="w" d="M286 0 l-248 712 l62 0 l228 -668 l-30 0 l232 668 l49 -1 l230 -667 l-30 0 l229 668 l62 0 l-248 -712 l-54 0 l-225 644 l21 0 l-225 -644 l-53 0 Z" /><glyph glyph-name="X" unicode="x" d="M90 0 l-74 0 l271 366 l36 46 l219 300 l72 0 l-256 -347 l-36 -47 l-232 -318 ZM555 0 l-233 318 l-35 48 l-256 346 l73 0 l219 -300 l35 -47 l270 -365 l-73 0 Z" /><glyph glyph-name="Y" unicode="y" d="M267 0 l0 320 l15 -48 l-290 440 l72 0 l247 -382 l-24 0 l247 382 l70 0 l-289 -440 l14 48 l0 -320 l-62 0 Z" /><glyph glyph-name="Z" unicode="z" d="M43 0 l0 46 l455 654 l-2 -42 l-453 0 l0 54 l499 0 l0 -45 l-454 -655 l2 42 l462 0 l0 -54 l-509 0 Z" /><glyph glyph-name="a" unicode="a" d="M274 -7 q-67 0 -117.5 32 q-50.5 32 -78 89.5 q-27.5 57.5 -27.5 136.5 q0 79 28 138 q28 59 78.5 91.5 q50.5 32.5 116.5 32.5 q71 0 119.5 -35 q48.5 -35 65.5 -101 l-12 -8 l0 132 l61 0 l0 -501 l-61 0 l0 137 l12 -7 q-17 -66 -65.5 -101.5 q-48.5 -35.5 -119.5 -35.5 ZM282 47 q80 0 122.5 54 q42.5 54 42.5 152 q0 100 -43 153 q-43 53 -122 53 q-79 0 -123.5 -54.5 q-44.5 -54.5 -44.5 -153.5 q0 -98 44.5 -151 q44.5 -53 123.5 -53 Z" /><glyph glyph-name="aogonek" unicode="&#x105;" d="M508 0 l-5 0 q-41 0 -67.5 -23.5 q-26.5 -23.5 -26.5 -60.5 q0 -31 18.5 -49.5 q18.5 -18.5 50.5 -18.5 q28 0 61 20 l17 -42 q-17 -11 -38.5 -17 q-21.5 -6 -46.5 -6 q-52 0 -84.5 29.5 q-32.5 29.5 -32.5 76.5 q0 50 35.5 85 q35.5 35 96.5 45 l-20 -39 l-19 0 l0 113 l12 17 q-17 -66 -65.5 -101.5 q-48.5 -35.5 -119.5 -35.5 q-68 0 -118 32 q-50 32 -77.5 89.5 q-27.5 57.5 -27.5 136.5 q0 79 28 138 q28 59 78 91.5 q50 32.5 117 32.5 q71 0 119.5 -35 q48.5 -35 65.5 -101 l-12 -8 l0 132 l61 0 l0 -501 ZM282 47 q80 0 122.5 54 q42.5 54 42.5 152 q0 100 -43 153 q-43 53 -122 53 q-79 0 -123.5 -54.5 q-44.5 -54.5 -44.5 -153.5 q0 -98 44.5 -151 q44.5 -53 123.5 -53 Z" /><glyph glyph-name="aringacute" unicode="&#x1fb;" d="M274 -7 q-67 0 -117.5 32 q-50.5 32 -78 89.5 q-27.5 57.5 -27.5 136.5 q0 79 28 138 q28 59 78.5 91.5 q50.5 32.5 116.5 32.5 q71 0 119.5 -35 q48.5 -35 65.5 -101 l-12 -8 l0 132 l61 0 l0 -501 l-61 0 l0 137 l12 -7 q-17 -66 -65.5 -101.5 q-48.5 -35.5 -119.5 -35.5 ZM282 47 q80 0 122.5 54 q42.5 54 42.5 153 q0 99 -43 152 q-43 53 -122 53 q-79 0 -123.5 -55 q-44.5 -55 -44.5 -153 q0 -98 44.5 -151 q44.5 -53 123.5 -53 ZM297 573 q-42 0 -72 29 q-30 29 -30 70 q0 43 30 72 q30 29 72 29 q41 0 71 -29 q30 -29 30 -72 q0 -41 -30 -70 q-30 -29 -71 -29 ZM297 619 q21 0 36 16 q15 16 15 38 q0 22 -15 37.5 q-15 15.5 -36 15.5 q-23 0 -37.5 -15.5 q-14.5 -15.5 -14.5 -37.5 q0 -22 14.5 -38 q14.5 -16 37.5 -16 ZM372 718 l-42 6 l106 154 l75 -2 l-139 -158 Z" /><glyph glyph-name="ae" unicode="æ" d="M645 -7 q-107 0 -168.5 67 q-61.5 67 -65.5 189 q-2 78 25.5 137.5 q27.5 59.5 78.5 93 q51 33.5 117 33.5 q65 0 111 -29 q46 -29 70.5 -83.5 q24.5 -54.5 24.5 -130.5 l0 -12 l-392 0 l0 46 l357 0 l-22 -39 q3 96 -36 147 q-39 51 -113 51 q-77 0 -121.5 -56 q-44.5 -56 -44.5 -153 q0 -100 46 -153.5 q46 -53.5 133 -53.5 q41 0 81.5 15.5 q40.5 15.5 79.5 46.5 l23 -47 q-32 -31 -82.5 -50 q-50.5 -19 -101.5 -19 ZM248 -7 q-51 0 -92 19.5 q-41 19.5 -64.5 54.5 q-23.5 35 -24.5 81 q0 55 28 89.5 q28 34.5 93 50.5 q65 16 175 16 l52 0 l0 -46 l-49 0 q-91 0 -141.5 -10.5 q-50.5 -10.5 -71.5 -34 q-21 -23.5 -21 -61.5 q0 -48 33.5 -77 q33.5 -29 86.5 -29 q45 0 79 21.5 q34 21.5 53.5 59.5 q19.5 38 19.5 88 l0 109 q0 71 -27.5 103.5 q-27.5 32.5 -90.5 32.5 q-45 0 -87.5 -13.5 q-42.5 -13.5 -87.5 -41.5 l-23 47 q25 19 57.5 33 q32.5 14 68 21 q35.5 7 69.5 7 q90 0 135 -46 q45 -46 45 -138 l0 -151 l-21 1 q-9 -87 -60.5 -136.5 q-51.5 -49.5 -133.5 -49.5 Z" /><glyph glyph-name="b" unicode="b" d="M83 0 l0 736 l61 0 l0 -367 l-11 8 q17 65 65.5 100.5 q48.5 35.5 118.5 35.5 q67 0 117 -31.5 q50 -31.5 78.5 -89.5 q28.5 -58 28.5 -137 q0 -79 -28.5 -138 q-28.5 -59 -79 -91.5 q-50.5 -32.5 -116.5 -32.5 q-70 0 -118.5 35.5 q-48.5 35.5 -65.5 101.5 l11 8 l0 -138 l-61 0 ZM310 47 q78 0 122 55 q44 55 44 153 q0 98 -44 151 q-44 53 -122 53 q-80 0 -123 -53.5 q-43 -53.5 -43 -152.5 q0 -98 43 -152 q43 -54 123 -54 Z" /><glyph glyph-name="c" unicode="c" d="M286 -7 q-72 0 -124.5 32.5 q-52.5 32.5 -81.5 90.5 q-29 58 -29 135 q0 78 29.5 137.5 q29.5 59.5 82.5 92 q53 32.5 125 32.5 q50 0 96.5 -17.5 q46.5 -17.5 77.5 -48.5 l-24 -48 q-39 31 -74 46 q-35 15 -74 15 q-80 0 -127.5 -55.5 q-47.5 -55.5 -47.5 -153.5 q0 -97 47 -150.5 q47 -53.5 128 -53.5 q38 0 73.5 14.5 q35.5 14.5 74.5 45.5 l24 -47 q-32 -31 -79 -49 q-47 -18 -97 -18 Z" /><glyph glyph-name="d" unicode="d" d="M508 0 l-61 0 l0 138 l12 -8 q-17 -66 -65.5 -101.5 q-48.5 -35.5 -119.5 -35.5 q-66 0 -116.5 32.5 q-50.5 32.5 -78.5 91.5 q-28 59 -28 138 q0 79 27.5 137 q27.5 58 78 89.5 q50.5 31.5 117.5 31.5 q71 0 119.5 -35.5 q48.5 -35.5 65.5 -100.5 l-12 -8 l0 367 l61 0 l0 -736 ZM282 47 q79 0 122 54 q43 54 43 152 q0 99 -42.5 152.5 q-42.5 53.5 -122.5 53.5 q-79 0 -123.5 -53 q-44.5 -53 -44.5 -151 q0 -98 44.5 -153 q44.5 -55 123.5 -55 Z" /><glyph glyph-name="eth" unicode="ð" d="M280 -7 q-69 0 -120.5 29.5 q-51.5 29.5 -80 83 q-28.5 53.5 -28.5 125.5 q0 73 28.5 126.5 q28.5 53.5 80.5 83 q52 29.5 120 29.5 q83 0 134.5 -43.5 q51.5 -43.5 68.5 -126.5 l-27 2 q1 101 -32.5 179.5 q-33.5 78.5 -99 132 q-65.5 53.5 -159.5 81.5 l16 47 q83 -24 145 -64.5 q62 -40.5 104 -97 q42 -56.5 63.5 -128 q21.5 -71.5 21.5 -158.5 q0 -149 -60 -225 q-60 -76 -175 -76 ZM281 47 q78 0 122.5 49 q44.5 49 44.5 135 q0 88 -44 136.5 q-44 48.5 -123 48.5 q-78 0 -122.5 -48.5 q-44.5 -48.5 -44.5 -136.5 q0 -88 43.5 -136 q43.5 -48 123.5 -48 ZM187 530 l-16 44 l326 127 l15 -44 l-325 -127 Z" /><glyph glyph-name="dcaron" unicode="&#x10f;" d="M579 541 l-35 0 l0 195 l62 0 l-27 -195 ZM508 0 l-61 0 l0 138 l12 -8 q-17 -66 -65.5 -101.5 q-48.5 -35.5 -119.5 -35.5 q-66 0 -116.5 32.5 q-50.5 32.5 -78.5 91.5 q-28 59 -28 138 q0 79 27.5 137 q27.5 58 78 89.5 q50.5 31.5 117.5 31.5 q71 0 119.5 -35.5 q48.5 -35.5 65.5 -100.5 l-12 -8 l0 367 l61 0 l0 -736 ZM282 47 q79 0 122 54 q43 54 43 152 q0 99 -42.5 152.5 q-42.5 53.5 -122.5 53.5 q-79 0 -123.5 -53 q-44.5 -53 -44.5 -151 q0 -98 44.5 -153 q44.5 -55 123.5 -55 Z" /><glyph glyph-name="dcroat" unicode="&#x111;" d="M246 589 l0 48 l359 0 l0 -48 l-359 0 ZM508 0 l-61 0 l0 138 l12 -8 q-17 -66 -65.5 -101.5 q-48.5 -35.5 -119.5 -35.5 q-66 0 -116.5 32.5 q-50.5 32.5 -78.5 91.5 q-28 59 -28 138 q0 79 27.5 137 q27.5 58 78 89.5 q50.5 31.5 117.5 31.5 q71 0 119.5 -35.5 q48.5 -35.5 65.5 -100.5 l-12 -8 l0 367 l61 0 l0 -736 ZM282 47 q79 0 122 54 q43 54 43 152 q0 99 -42.5 152.5 q-42.5 53.5 -122.5 53.5 q-79 0 -123.5 -53 q-44.5 -53 -44.5 -151 q0 -98 44.5 -153 q44.5 -55 123.5 -55 Z" /><glyph glyph-name="e" unicode="e" d="M485 62 q-32 -32 -83 -50.5 q-51 -18.5 -105 -18.5 q-76 0 -131 31 q-55 31 -85 89 q-30 58 -30 139 q0 78 29.5 137 q29.5 59 82.5 91.5 q53 32.5 122 32.5 q65 0 112 -28.5 q47 -28.5 72 -82.5 q25 -54 25 -131 l0 -13 l-389 0 l-1 46 l357 0 l-23 -39 q3 96 -36.5 147 q-39.5 51 -116.5 51 q-79 0 -124.5 -55.5 q-45.5 -55.5 -45.5 -152.5 q0 -102 46.5 -155 q46.5 -53 134.5 -53 q46 0 86.5 15 q40.5 15 79.5 47 l23 -47 Z" /><glyph glyph-name="eogonek" unicode="&#x119;" d="M402 -197 q-52 0 -84.5 29.5 q-32.5 29.5 -32.5 76.5 q0 32 16.5 59 q16.5 27 46.5 45 l15 -8 q-20 -7 -34 -9.5 q-14 -2.5 -32 -2.5 q-76 0 -131 31 q-55 31 -85 89 q-30 58 -30 139 q0 78 29.5 137 q29.5 59 82.5 91.5 q53 32.5 122 32.5 q65 0 112 -28.5 q47 -28.5 72 -82.5 q25 -54 25 -131 l0 -13 l-389 0 l-1 46 l357 0 l-23 -39 q3 96 -36.5 147 q-39.5 51 -116.5 51 q-79 0 -124.5 -55 q-45.5 -55 -45.5 -153 q0 -102 46.5 -155 q46.5 -53 134.5 -53 q46 0 86.5 15 q40.5 15 79.5 47 l23 -46 q-6 -8 -15.5 -15 q-9.5 -7 -34.5 -20 q-53 -30 -74.5 -55.5 q-21.5 -25.5 -21.5 -56.5 q0 -31 18.5 -49.5 q18.5 -18.5 50.5 -18.5 q28 0 61 20 l16 -42 q-16 -11 -37.5 -17 q-21.5 -6 -45.5 -6 Z" /><glyph glyph-name="uni0259" unicode="&#x259;" d="M56 444 q36 33 89 51 q53 18 104 18 q75 0 129 -31 q54 -31 83.5 -89.5 q29.5 -58.5 29.5 -138.5 q0 -80 -28 -138.5 q-28 -58.5 -79.5 -90.5 q-51.5 -32 -120.5 -32 q-102 0 -158.5 64.5 q-56.5 64.5 -56.5 180.5 l0 11 l389 0 l1 -47 l-356 0 l25 39 q-3 -95 37.5 -146.5 q40.5 -51.5 117.5 -51.5 q80 0 123.5 54.5 q43.5 54.5 43.5 154.5 q0 101 -46.5 154.5 q-46.5 53.5 -133.5 53.5 q-42 0 -84 -15.5 q-42 -15.5 -85 -46.5 l-24 46 Z" /><glyph glyph-name="f" unicode="f" d="M8 452 l0 49 l288 0 l0 -49 l-288 0 ZM308 677 q-28 8 -53 8 q-25 0 -44.5 -8.5 q-19.5 -8.5 -31 -31.5 q-11.5 -23 -11.5 -65 l0 -580 l-61 0 l0 591 q0 77 37.5 113 q37.5 36 100.5 36 q16 0 31.5 -2 q15.5 -2 31.5 -6 l0 -55 Z" /><glyph glyph-name="g" unicode="g" d="M299 -223 q-112 0 -195 54 l12 53 q47 -28 88 -40.5 q41 -12.5 96 -12.5 q75 0 113.5 41 q38.5 41 38.5 120 l0 142 l11 19 q-12 -44 -37.5 -74.5 q-25.5 -30.5 -63 -47 q-37.5 -16.5 -86.5 -16.5 q-67 0 -117.5 31.5 q-50.5 31.5 -79 87.5 q-28.5 56 -28.5 130 q0 75 28.5 131 q28.5 56 79 87 q50.5 31 117.5 31 q73 0 121.5 -35.5 q48.5 -35.5 65.5 -100.5 l-12 16 l0 108 l61 0 l0 -503 q0 -110 -54 -165.5 q-54 -55.5 -159 -55.5 ZM284 70 q78 0 122.5 52 q44.5 52 44.5 142 q0 91 -44.5 143 q-44.5 52 -122.5 52 q-79 0 -124.5 -51.5 q-45.5 -51.5 -45.5 -143.5 q0 -92 45.5 -143 q45.5 -51 124.5 -51 Z" /><glyph glyph-name="h" unicode="h" d="M83 0 l0 736 l61 0 l0 -336 l-12 -14 q19 63 69 95 q50 32 115 32 q181 0 181 -194 l0 -319 l-61 0 l0 315 q0 75 -30 110 q-30 35 -96 35 q-75 0 -120.5 -46 q-45.5 -46 -45.5 -124 l0 -290 l-61 0 Z" /><glyph glyph-name="hbar" unicode="&#x127;" d="M83 0 l0 736 l61 0 l0 -336 l-12 -14 q19 63 69 95 q50 32 115 32 q181 0 181 -194 l0 -319 l-61 0 l0 315 q0 75 -30 110 q-30 35 -96 35 q-75 0 -120.5 -46 q-45.5 -46 -45.5 -124 l0 -290 l-61 0 ZM-14 589 l0 48 l360 0 l0 -48 l-360 0 Z" /><glyph glyph-name="dotlessi" unicode="&#x131;" d="M83 0 l0 501 l61 0 l0 -501 l-61 0 Z" /><glyph glyph-name="iogonek" unicode="&#x12f;" d="M108 -197 q-53 0 -85 30 q-32 30 -32 76 q0 47 33.5 83 q33.5 36 98.5 47 l-21 -39 l-19 0 l0 501 l61 0 l0 -501 l-4 0 q-46 0 -71 -25 q-25 -25 -25 -59 q0 -33 20.5 -50.5 q20.5 -17.5 51.5 -17.5 q12 0 28 4.5 q16 4.5 32 15.5 l17 -42 q-16 -10 -37.5 -16.5 q-21.5 -6.5 -47.5 -6.5 ZM73 712 l82 0 l0 -78 l-82 0 l0 78 Z" /><glyph glyph-name="uni0237" unicode="&#x237;" d="M-52 -156 q15 -4 26.5 -6 q11.5 -2 22.5 -2 q24 0 43.5 8.5 q19.5 8.5 31 31 q11.5 22.5 11.5 65.5 l0 560 l61 0 l0 -571 q0 -78 -37.5 -113.5 q-37.5 -35.5 -98.5 -35.5 q-14 0 -29.5 2 q-15.5 2 -30.5 6 l0 55 Z" /><glyph glyph-name="k" unicode="k" d="M419 0 l-288 256 l263 245 l81 0 l-289 -264 l2 45 l314 -282 l-83 0 ZM83 0 l0 736 l61 0 l0 -736 l-61 0 Z" /><glyph glyph-name="kgreenlandic" unicode="&#x138;" d="M419 0 l-288 256 l263 245 l81 0 l-289 -264 l2 45 l314 -282 l-83 0 ZM83 0 l0 501 l61 0 l0 -501 l-61 0 Z" /><glyph glyph-name="l" unicode="l" d="M83 0 l0 736 l61 0 l0 -736 l-61 0 Z" /><glyph glyph-name="lcaron" unicode="&#x13e;" d="M219 541 l-34 0 l0 195 l61 0 l-27 -195 ZM83 0 l0 736 l61 0 l0 -736 l-61 0 Z" /><glyph glyph-name="lslash" unicode="&#x142;" d="M22 273 l-26 45 l252 147 l27 -46 l-253 -146 ZM104 0 l0 736 l61 0 l0 -736 l-61 0 Z" /><glyph glyph-name="m" unicode="m" d="M83 0 l0 362 q0 34 -1.5 69.5 q-1.5 35.5 -6.5 69.5 l58 0 l9 -105 l-10 -10 q17 62 62 94.5 q45 32.5 106 32.5 q74 0 114.5 -36 q40.5 -36 51.5 -110 l-24 9 q13 63 62 100 q49 37 119 37 q82 0 124 -48 q42 -48 42 -146 l0 -319 l-61 0 l0 315 q0 75 -27 110 q-27 35 -86 35 q-68 0 -108 -46 q-40 -46 -40 -125 l0 -289 l-61 0 l0 315 q0 75 -27.5 110 q-27.5 35 -86.5 35 q-69 0 -108.5 -46 q-39.5 -46 -39.5 -125 l0 -289 l-61 0 Z" /><glyph glyph-name="n" unicode="n" d="M83 0 l0 362 q0 34 -1.5 69.5 q-1.5 35.5 -6.5 69.5 l58 0 l9 -105 l-10 -10 q19 63 69 95 q50 32 115 32 q181 0 181 -194 l0 -319 l-61 0 l0 315 q0 75 -30 110 q-30 35 -96 35 q-75 0 -120.5 -46 q-45.5 -46 -45.5 -124 l0 -290 l-61 0 Z" /><glyph glyph-name="eng" unicode="&#x14b;" d="M316 513 q181 0 181 -194 l0 -369 q0 -64 -17.5 -101 q-17.5 -37 -48 -52.5 q-30.5 -15.5 -70.5 -15.5 q-14 0 -29.5 2 q-15.5 2 -29.5 6 l0 55 q15 -4 26.5 -6 q11.5 -2 21.5 -2 q24 0 44 9.5 q20 9.5 31 36.5 q11 27 11 80 l0 353 q0 75 -30 110 q-30 35 -96 35 q-75 0 -120.5 -46 q-45.5 -46 -45.5 -124 l0 -290 l-61 0 l0 362 q0 34 -1.5 69.5 q-1.5 35.5 -6.5 69.5 l58 0 l9 -105 l-10 -10 q19 63 69 95 q50 32 115 32 Z" /><glyph glyph-name="o" unicode="o" d="M281 -7 q-69 0 -120.5 32 q-51.5 32 -80.5 90.5 q-29 58.5 -29 138.5 q0 78 29 136.5 q29 58.5 80.5 90.5 q51.5 32 120.5 32 q70 0 121.5 -32 q51.5 -32 80 -90.5 q28.5 -58.5 28.5 -136.5 q0 -80 -28.5 -138.5 q-28.5 -58.5 -80 -90.5 q-51.5 -32 -121.5 -32 ZM281 47 q80 0 123.5 53 q43.5 53 43.5 153 q0 98 -44 152 q-44 54 -122 54 q-79 0 -123.5 -54 q-44.5 -54 -44.5 -152 q0 -100 43.5 -153 q43.5 -53 123.5 -53 Z" /><glyph glyph-name="ohorn" unicode="&#x1a1;" d="M281 -7 q-69 0 -120.5 32 q-51.5 32 -80.5 90.5 q-29 58.5 -29 137.5 q0 79 29 137.5 q29 58.5 80.5 90.5 q51.5 32 121.5 32 q11 0 24.5 -1.5 q13.5 -1.5 25.5 -3 q12 -1.5 20 -1.5 q34 0 56.5 12 q22.5 12 32.5 37 q10 25 10 67 l0 13 l57 0 l0 -23 q0 -68 -39 -107.5 q-39 -39.5 -111 -43.5 l32 25 q57 -31 89 -90.5 q32 -59.5 32 -143.5 q0 -79 -28.5 -137.5 q-28.5 -58.5 -80 -90.5 q-51.5 -32 -121.5 -32 ZM281 47 q80 0 123.5 53 q43.5 53 43.5 153 q0 98 -44 152 q-44 54 -123 54 q-78 0 -122.5 -54 q-44.5 -54 -44.5 -152 q0 -100 43.5 -153 q43.5 -53 123.5 -53 Z" /><glyph glyph-name="uni01EB" unicode="&#x1eb;" d="M337 -197 q-51 0 -84 29.5 q-33 29.5 -33 76.5 q0 35 16.5 62 q16.5 27 47.5 42 l2 -20 q-71 -2 -124 29.5 q-53 31.5 -82 90.5 q-29 59 -29 140 q0 79 29 137.5 q29 58.5 80.5 90.5 q51.5 32 120.5 32 q70 0 121.5 -32 q51.5 -32 80 -90.5 q28.5 -58.5 28.5 -137.5 q0 -93 -39 -158.5 q-39 -65.5 -107 -86.5 q-50 -16 -70.5 -37 q-20.5 -21 -20.5 -55 q0 -31 19 -49.5 q19 -18.5 51 -18.5 q27 0 61 20 l16 -42 q-17 -11 -38 -17 q-21 -6 -46 -6 ZM281 47 q80 0 123.5 53 q43.5 53 43.5 153 q0 98 -44 152 q-44 54 -122 54 q-79 0 -123.5 -54 q-44.5 -54 -44.5 -152 q0 -100 43.5 -153 q43.5 -53 123.5 -53 Z" /><glyph glyph-name="oslash" unicode="ø" d="M281 -7 q-69 0 -120.5 32 q-51.5 32 -80.5 90.5 q-29 58.5 -29 138.5 q0 78 29 136.5 q29 58.5 80.5 90.5 q51.5 32 120.5 32 q70 0 121.5 -32 q51.5 -32 80 -90.5 q28.5 -58.5 28.5 -136.5 q0 -80 -28.5 -138.5 q-28.5 -58.5 -80 -90.5 q-51.5 -32 -121.5 -32 ZM138 -42 l-42 25 l327 564 l44 -23 l-329 -566 ZM281 47 q80 0 123.5 53 q43.5 53 43.5 153 q0 98 -44.5 152.5 q-44.5 54.5 -122.5 54.5 q-78 0 -122 -54.5 q-44 -54.5 -44 -152.5 q0 -100 42.5 -153 q42.5 -53 123.5 -53 Z" /><glyph glyph-name="oe" unicode="&#x153;" d="M281 -7 q-69 0 -120.5 32 q-51.5 32 -80.5 90.5 q-29 58.5 -29 137.5 q0 79 29 137.5 q29 58.5 80.5 90.5 q51.5 32 120.5 32 q67 0 117 -32 q50 -32 77 -90 q27 -58 27 -138 q0 -80 -27 -138 q-27 -58 -77 -90 q-50 -32 -117 -32 ZM280 47 q80 0 123.5 53 q43.5 53 43.5 153 q0 98 -44 152 q-44 54 -122 54 q-78 0 -122.5 -54 q-44.5 -54 -44.5 -152 q0 -100 43.5 -153 q43.5 -53 122.5 -53 ZM693 -7 q-108 0 -170.5 67 q-62.5 67 -65.5 189 q-3 78 24.5 137.5 q27.5 59.5 79 93 q51.5 33.5 120.5 33.5 q64 0 110 -28.5 q46 -28.5 70.5 -82.5 q24.5 -54 24.5 -131 l0 -28 l-393 0 l-1 46 l360 0 l-21 -24 q3 96 -36.5 147 q-39.5 51 -113.5 51 q-80 0 -125 -55.5 q-45 -55.5 -45 -152.5 q0 -102 46 -155 q46 -53 135 -53 q44 0 84 15.5 q40 15.5 78 46.5 l24 -47 q-32 -31 -83 -50 q-51 -19 -102 -19 Z" /><glyph glyph-name="p" unicode="p" d="M83 -216 l0 578 q0 34 -1.5 69.5 q-1.5 35.5 -6.5 69.5 l58 0 l9 -105 l-9 -19 q17 66 65.5 101 q48.5 35 118.5 35 q66 0 116.5 -32.5 q50.5 -32.5 79 -91.5 q28.5 -59 28.5 -138 q0 -79 -28.5 -136.5 q-28.5 -57.5 -78.5 -89.5 q-50 -32 -117 -32 q-70 0 -118.5 35.5 q-48.5 35.5 -65.5 101.5 l11 8 l0 -354 l-61 0 ZM310 47 q78 0 122 53 q44 53 44 151 q0 99 -44 153.5 q-44 54.5 -122 54.5 q-80 0 -123 -53 q-43 -53 -43 -153 q0 -98 43 -152 q43 -54 123 -54 Z" /><glyph glyph-name="thorn" unicode="þ" d="M83 -216 l0 952 l61 0 l0 -367 l-11 8 q17 66 65.5 101 q48.5 35 118.5 35 q65 0 115 -31.5 q50 -31.5 79.5 -90 q29.5 -58.5 29.5 -140.5 q0 -82 -29.5 -140 q-29.5 -58 -79.5 -88 q-50 -30 -115 -30 q-70 0 -118.5 35.5 q-48.5 35.5 -65.5 101.5 l11 8 l0 -354 l-61 0 ZM310 47 q80 0 123 54 q43 54 43 150 q0 96 -42.5 152 q-42.5 56 -123.5 56 q-80 0 -123 -53 q-43 -53 -43 -153 q0 -98 43 -152 q43 -54 123 -54 Z" /><glyph glyph-name="q" unicode="q" d="M508 -216 l-61 0 l0 354 l12 -8 q-17 -66 -65.5 -101.5 q-48.5 -35.5 -119.5 -35.5 q-67 0 -117.5 32 q-50.5 32 -78 89.5 q-27.5 57.5 -27.5 136.5 q0 79 28 138 q28 59 78.5 91.5 q50.5 32.5 116.5 32.5 q71 0 119.5 -35 q48.5 -35 65.5 -101 l-10 19 l10 105 l56 0 q-4 -34 -5.5 -69.5 q-1.5 -35.5 -1.5 -69.5 l0 -578 ZM282 47 q80 0 122.5 54 q42.5 54 42.5 152 q0 100 -43 153 q-43 53 -122 53 q-79 0 -123.5 -54.5 q-44.5 -54.5 -44.5 -153.5 q0 -98 44.5 -151 q44.5 -53 123.5 -53 Z" /><glyph glyph-name="r" unicode="r" d="M83 0 l0 362 q0 34 -1.5 69.5 q-1.5 35.5 -6.5 69.5 l58 0 l10 -120 l-10 2 q15 64 61.5 97 q46.5 33 104.5 33 q13 0 23.5 -1 q10.5 -1 20.5 -3 l-2 -56 q-19 5 -47 5 q-55 0 -88 -25 q-33 -25 -47.5 -62.5 q-14.5 -37.5 -14.5 -76.5 l0 -294 l-61 0 Z" /><glyph glyph-name="s" unicode="s" d="M246 -7 q-122 0 -193 67 l23 47 q40 -32 80 -46.5 q40 -14.5 93 -14.5 q63 0 95 21.5 q32 21.5 32 62.5 q0 33 -21.5 53 q-21.5 20 -70.5 32 l-85 20 q-60 13 -94.5 49 q-34.5 36 -34.5 84 q0 44 23 76.5 q23 32.5 64.5 50.5 q41.5 18 97.5 18 q52 0 98 -17 q46 -17 76 -49 l-23 -47 q-35 30 -71.5 45 q-36.5 15 -79.5 15 q-58 0 -90 -23 q-32 -23 -32 -63 q0 -35 20 -55.5 q20 -20.5 64 -31.5 l85 -21 q69 -15 102 -48.5 q33 -33.5 33 -84.5 q0 -63 -51.5 -101.5 q-51.5 -38.5 -139.5 -38.5 Z" /><glyph glyph-name="germandbls" unicode="ß" d="M83 0 l0 503 q0 116 59.5 176.5 q59.5 60.5 168.5 60.5 q85 0 133.5 -41.5 q48.5 -41.5 48.5 -117.5 q0 -46 -16.5 -85 q-16.5 -39 -56 -72.5 q-39.5 -33.5 -106.5 -59.5 l0 12 q96 -21 154.5 -54 q58.5 -33 85.5 -76 q27 -43 27 -92 q0 -50 -22 -86 q-22 -36 -62.5 -55.5 q-40.5 -19.5 -96.5 -19.5 q-54 0 -102.5 17.5 q-48.5 17.5 -81.5 49.5 l25 48 q42 -33 80 -47 q38 -14 79 -15 q59 0 89.5 28 q30.5 28 30.5 80 q0 38 -23 70.5 q-23 32.5 -79 61 q-56 28.5 -155 55.5 l0 48 q67 27 104 56 q37 29 52 63.5 q15 34.5 15 73.5 q0 51 -31 78.5 q-31 27.5 -92 27.5 q-81 0 -124 -44.5 q-43 -44.5 -43 -135.5 l0 -508 l-61 0 Z" /><glyph glyph-name="t" unicode="t" d="M8 452 l0 49 l308 0 l0 -49 l-308 0 ZM313 57 l0 -55 q-15 -4 -30.5 -6 q-15.5 -2 -34.5 -2 q-63 0 -102 36 q-39 36 -39 112 l0 492 l61 23 l0 -503 q0 -42 11.5 -65 q11.5 -23 32 -32 q20.5 -9 46.5 -9 q16 0 28 2 q12 2 27 7 Z" /><glyph glyph-name="tbar" unicode="&#x167;" d="M34 266 l0 48 l266 0 l0 -48 l-266 0 ZM13 452 l0 49 l308 0 l0 -49 l-308 0 ZM318 57 l0 -55 q-15 -4 -30.5 -6 q-15.5 -2 -34.5 -2 q-63 0 -101.5 36 q-38.5 36 -38.5 112 l0 492 l60 23 l0 -503 q0 -42 12 -65 q12 -23 32 -32 q20 -9 46 -9 q16 0 28 2 q12 2 27 7 Z" /><glyph glyph-name="u" unicode="u" d="M259 -7 q-89 0 -134 49 q-45 49 -45 145 l0 314 l61 0 l0 -311 q0 -74 30 -108.5 q30 -34.5 92 -34.5 q74 0 118 46.5 q44 46.5 44 123.5 l0 284 l61 0 l0 -501 l-59 0 l0 111 l11 9 q-20 -63 -68.5 -95 q-48.5 -32 -110.5 -32 Z" /><glyph glyph-name="uhorn" unicode="&#x1b0;" d="M553 636 l55 0 l0 -23 q0 -47 -17 -81 q-17 -34 -50.5 -52 q-33.5 -18 -81.5 -18 l27 19 l0 -481 l-59 0 l0 111 l11 9 q-20 -63 -68.5 -95 q-48.5 -32 -110.5 -32 q-89 0 -134 49 q-45 49 -45 145 l0 314 l61 0 l0 -311 q0 -74 30 -108.5 q30 -34.5 92 -34.5 q74 0 118 46.5 q44 46.5 44 123.5 l0 284 l18 0 q58 1 84 29.5 q26 28.5 26 92.5 l0 13 Z" /><glyph glyph-name="uogonek" unicode="&#x173;" d="M486 0 l-5 0 q-41 0 -67.5 -23.5 q-26.5 -23.5 -26.5 -60.5 q0 -31 19 -49.5 q19 -18.5 51 -18.5 q28 0 60 20 l17 -42 q-17 -11 -38.5 -17 q-21.5 -6 -45.5 -6 q-53 0 -85 29.5 q-32 29.5 -32 76.5 q0 50 35 85 q35 35 96 45 l-20 -39 l-17 0 l0 111 l11 9 q-20 -63 -68.5 -95 q-48.5 -32 -110.5 -32 q-89 0 -134 49 q-45 49 -45 145 l0 314 l61 0 l0 -311 q0 -74 30 -108.5 q30 -34.5 92 -34.5 q74 0 118 46.5 q44 46.5 44 123.5 l0 284 l61 0 l0 -501 Z" /><glyph glyph-name="v" unicode="v" d="M231 0 l-213 501 l65 0 l192 -465 l-22 0 l194 465 l61 0 l-215 -501 l-62 0 Z" /><glyph glyph-name="w" unicode="w" d="M215 0 l-180 501 l65 0 l160 -466 l-26 0 l169 466 l61 0 l164 -466 l-26 0 l165 466 l62 0 l-182 -501 l-63 0 l-171 474 l37 0 l-171 -474 l-64 0 Z" /><glyph glyph-name="x" unicode="x" d="M433 0 l-169 210 l-36 48 l-196 243 l76 0 l156 -196 l38 -47 l205 -258 l-74 0 ZM97 0 l-76 0 l207 258 l36 47 l156 196 l77 0 l-195 -243 l-38 -48 l-167 -210 Z" /><glyph glyph-name="y" unicode="y" d="M53 -227 l-12 48 q46 11 78 26 q32 15 53.5 39 q21.5 24 38.5 64 l30 71 l12 15 l194 465 l61 0 l-235 -553 q-26 -58 -58.5 -93.5 q-32.5 -35.5 -73 -53.5 q-40.5 -18 -88.5 -28 ZM241 -23 l-223 524 l65 0 l192 -465 l-34 -59 Z" /><glyph glyph-name="z" unicode="z" d="M51 0 l0 42 l360 443 l14 -33 l-361 0 l0 49 l394 0 l0 -46 l-357 -439 l-13 34 l381 0 l0 -50 l-418 0 Z" /><glyph glyph-name="fi" unicode="&#xfb01;" d="M394 713 l83 0 l0 -80 l-83 0 l0 80 ZM466 501 l0 -501 l-61 0 l0 452 l-397 0 l0 49 l458 0 ZM107 0 l0 576 q0 57 17 93 q17 36 56.5 53 q39.5 17 107.5 17 l29 0 l0 -50 l-25 0 q-51 0 -78 -9.5 q-27 -9.5 -36.5 -37 q-9.5 -27.5 -9.5 -82.5 l0 -560 l-61 0 Z" /><glyph glyph-name="ordfeminine" unicode="ª" d="M139 413 q-31 0 -54.5 12 q-23.5 12 -37 32 q-13.5 20 -13.5 44 q0 49 39 68 q39 19 139 19 l23 0 l0 -33 l-19 0 q-54 0 -80.5 -5.5 q-26.5 -5.5 -35.5 -16 q-9 -10.5 -9 -27.5 q0 -21 15.5 -36 q15.5 -15 40.5 -15 q34 0 57 22 q23 22 23 61 l0 69 q0 36 -15.5 50.5 q-15.5 14.5 -45.5 14.5 q-28 0 -54 -9 q-26 -9 -46 -23 l-19 42 q23 15 55 25 q32 10 65 10 q54 0 85 -27 q31 -27 31 -91 l0 -181 l-56 0 l0 71 l7 -8 q-9 -32 -35 -50 q-26 -18 -60 -18 Z" /><glyph glyph-name="ordmasculine" unicode="º" d="M167 413 q-44 0 -75.5 19 q-31.5 19 -49.5 53 q-18 34 -18 81 q0 46 18 80 q18 34 49.5 52.5 q31.5 18.5 75.5 18.5 q45 0 77 -18.5 q32 -18.5 50 -52.5 q18 -34 18 -80 q0 -47 -18 -81 q-18 -34 -50 -53 q-32 -19 -77 -19 ZM167 459 q43 0 65 27.5 q22 27.5 22 79.5 q0 49 -22 77 q-22 28 -65 28 q-42 0 -63 -28 q-21 -28 -21 -77 q0 -52 21 -79.5 q21 -27.5 63 -27.5 Z" /><glyph glyph-name="uni0394" unicode="&#x394;" d="M32 0 l0 34 l301 678 l54 0 l301 -678 l0 -34 l-656 0 ZM87 12 l-27 42 l601 0 l-27 -42 l-288 654 l29 0 l-288 -654 Z" /><glyph glyph-name="Sigma" unicode="&#x3a3;" d="M539 -127 l0 -55 l-499 0 l0 46 l303 439 l0 -75 l-303 439 l0 45 l499 0 l0 -53 l-452 0 l0 41 l286 -411 l0 -47 l-286 -412 l0 43 l452 0 Z" /><glyph glyph-name="uni03A9" unicode="&#x3a9;" d="M388 720 q102 0 176 -37.5 q74 -37.5 114 -106.5 q40 -69 40 -163 q0 -103 -52 -195.5 q-52 -92.5 -162 -185.5 l-4 21 l213 0 l0 -53 l-255 0 l0 51 q95 86 145.5 179.5 q50.5 93.5 50.5 182.5 q0 119 -70 185.5 q-70 66.5 -196 66.5 q-125 0 -195 -66.5 q-70 -66.5 -70 -185.5 q0 -90 50.5 -182.5 q50.5 -92.5 145.5 -179.5 l0 -51 l-254 0 l0 53 l212 0 l-4 -21 q-111 93 -162.5 185.5 q-51.5 92.5 -51.5 195.5 q0 94 40.5 163 q40.5 69 114 106.5 q73.5 37.5 174.5 37.5 Z" /><glyph glyph-name="uni03BC" unicode="&#x3bc;" d="M486 501 l0 -501 l-59 0 l0 111 l11 9 q-20 -63 -68.5 -95 q-48.5 -32 -110.5 -32 q-49 0 -82.5 14.5 q-33.5 14.5 -55.5 44.5 l20 27 l0 -295 l-61 0 l0 717 l61 0 l0 -311 q0 -74 30 -108.5 q30 -34.5 92 -34.5 q74 0 118 46.5 q44 46.5 44 123.5 l0 284 l61 0 Z" /><glyph glyph-name="pi" unicode="&#x3c0;" d="M99 0 l-66 0 q25 67 41.5 144.5 q16.5 77.5 25 163.5 q8.5 86 8.5 178 l61 0 q0 -98 -7.5 -183.5 q-7.5 -85.5 -23 -161 q-15.5 -75.5 -39.5 -141.5 ZM5 452 l0 49 l538 0 l0 -49 l-538 0 ZM355 475 l61 0 l0 -301 q0 -59 29.5 -90 q29.5 -31 87.5 -36 l45 -2 l-6 -52 l-45 3 q-57 4 -95.5 25 q-38.5 21 -57.5 60 q-19 39 -19 96 l0 297 Z" /><glyph glyph-name="zero" unicode="0" d="M300 -8 q-120 0 -182 92.5 q-62 92.5 -62 271.5 q0 180 61.5 272 q61.5 92 182.5 92 q121 0 182.5 -92 q61.5 -92 61.5 -271 q0 -179 -62 -272 q-62 -93 -182 -93 ZM300 47 q92 0 136.5 75.5 q44.5 75.5 44.5 234.5 q0 159 -44 233.5 q-44 74.5 -137 74.5 q-92 0 -136.5 -75 q-44.5 -75 -44.5 -233 q0 -158 44.5 -234 q44.5 -76 136.5 -76 Z" /><glyph glyph-name="one" unicode="1" d="M293 27 l0 659 l40 -30 l-187 -121 l0 63 l174 114 l35 0 l0 -685 l-62 0 ZM135 0 l0 53 l378 0 l0 -53 l-378 0 Z" /><glyph glyph-name="two" unicode="2" d="M88 0 l0 47 l253 282 q53 61 77.5 108.5 q24.5 47.5 24.5 96.5 q0 63 -36.5 97.5 q-36.5 34.5 -104.5 34.5 q-54 0 -104.5 -21.5 q-50.5 -21.5 -100.5 -64.5 l-26 49 q42 41 105 66 q63 25 126 25 q63 0 108.5 -22 q45.5 -22 70.5 -63.5 q25 -41.5 25 -98.5 q0 -61 -28.5 -118.5 q-28.5 -57.5 -92.5 -129.5 l-251 -274 l-1 39 l404 0 l0 -53 l-449 0 Z" /><glyph glyph-name="three" unicode="3" d="M296 -7 q-68 0 -130 24 q-62 24 -106 67 l26 49 q49 -43 100.5 -64.5 q51.5 -21.5 109.5 -21.5 q78 0 120.5 37.5 q42.5 37.5 42.5 107.5 q0 72 -44.5 107.5 q-44.5 35.5 -130.5 35.5 l-77 0 l0 54 l61 0 q84 0 129.5 39 q45.5 39 45.5 110 q0 61 -37 94.5 q-37 33.5 -104 33.5 q-55 0 -105 -21.5 q-50 -21.5 -100 -64.5 l-26 49 q43 43 104.5 67 q61.5 24 127.5 24 q62 0 108 -22 q46 -22 70.5 -62.5 q24.5 -40.5 24.5 -96.5 q-1 -66 -35.5 -114 q-34.5 -48 -94.5 -64 l-4 10 q73 -15 111 -60.5 q38 -45.5 38 -118.5 q0 -92 -61 -145.5 q-61 -53.5 -164 -53.5 Z" /><glyph glyph-name="four" unicode="4" d="M390 0 l0 635 l23 0 l-319 -461 l1 41 l467 0 l0 -53 l-508 0 l0 47 l347 503 l51 0 l0 -712 l-62 0 Z" /><glyph glyph-name="five" unicode="5" d="M316 -7 q-64 0 -126 24 q-62 24 -106 67 l26 49 q49 -42 100 -64 q51 -22 106 -22 q78 0 123.5 46.5 q45.5 46.5 45.5 124.5 q0 50 -20 88.5 q-20 38.5 -56.5 60 q-36.5 21.5 -86.5 21.5 q-56 0 -98 -22.5 q-42 -22.5 -73 -69.5 l-48 0 l0 416 l418 0 l0 -53 l-356 0 l0 -313 l-20 3 q28 44 75 69 q47 25 106 25 q69 0 118.5 -28.5 q49.5 -28.5 76 -79.5 q26.5 -51 26.5 -117 q0 -66 -28 -117 q-28 -51 -80 -79.5 q-52 -28.5 -123 -28.5 Z" /><glyph glyph-name="six" unicode="6" d="M322 -8 q-126 0 -194.5 89 q-68.5 89 -68.5 255 q0 122 32 208 q32 86 92 131 q60 45 143 45 q61 0 118 -23.5 q57 -23.5 102 -67.5 l-25 -49 q-51 45 -98 65.5 q-47 20.5 -96 20.5 q-97 0 -151.5 -86.5 q-54.5 -86.5 -54.5 -243.5 l0 -100 l-11 28 q8 54 37.5 94.5 q29.5 40.5 75 62 q45.5 21.5 101.5 21.5 q67 0 117 -28 q50 -28 78 -78.5 q28 -50.5 28 -117.5 q0 -65 -28.5 -116.5 q-28.5 -51.5 -79.5 -80.5 q-51 -29 -117 -29 ZM320 46 q74 0 119.5 47 q45.5 47 45.5 125 q0 77 -46 123.5 q-46 46.5 -121 46.5 q-50 0 -89 -21.5 q-39 -21.5 -61 -60 q-22 -38.5 -22 -88.5 q0 -52 22 -90.5 q22 -38.5 61 -60 q39 -21.5 91 -21.5 Z" /><glyph glyph-name="seven" unicode="7" d="M191 0 l-67 0 l352 689 l8 -30 l-413 0 l0 53 l458 0 l0 -46 l-338 -666 Z" /><glyph glyph-name="eight" unicode="8" d="M300 -7 q-77 0 -133 23.5 q-56 23.5 -86.5 67 q-30.5 43.5 -30.5 103.5 q0 74 50.5 123.5 q50.5 49.5 134.5 61.5 l-6 -14 q-79 15 -121 61.5 q-42 46.5 -42 112.5 q0 57 29.5 99 q29.5 42 82 65.5 q52.5 23.5 122.5 23.5 q70 0 122.5 -23.5 q52.5 -23.5 82 -65.5 q29.5 -42 29.5 -99 q0 -66 -42 -112.5 q-42 -46.5 -120 -61.5 l-7 14 q88 -11 136.5 -61 q48.5 -50 48.5 -124 q0 -60 -30.5 -103.5 q-30.5 -43.5 -86.5 -67 q-56 -23.5 -133 -23.5 ZM300 47 q91 0 139 36.5 q48 36.5 48 106.5 q0 66 -52.5 103 q-52.5 37 -134.5 45 q-82 -8 -134.5 -45 q-52.5 -37 -52.5 -103 q0 -70 48 -106.5 q48 -36.5 139 -36.5 ZM300 384 q77 7 124 45 q47 38 47 100 q0 64 -45 100.5 q-45 36.5 -126 36.5 q-81 0 -126 -36.5 q-45 -36.5 -45 -100.5 q0 -62 47 -100 q47 -38 124 -45 Z" /><glyph glyph-name="nine" unicode="9" d="M278 720 q127 0 195.5 -89 q68.5 -89 68.5 -255 q0 -122 -32 -208 q-32 -86 -92 -131 q-60 -45 -144 -45 q-60 0 -117.5 23.5 q-57.5 23.5 -102.5 67.5 l26 49 q52 -45 98.5 -65.5 q46.5 -20.5 95.5 -20.5 q97 0 151 86.5 q54 86.5 54 243.5 l0 100 l12 -27 q-8 -55 -37.5 -95.5 q-29.5 -40.5 -75.5 -62 q-46 -21.5 -101 -21.5 q-67 0 -117 28 q-50 28 -78 78.5 q-28 50.5 -28 117.5 q0 65 29 116.5 q29 51.5 80 80.5 q51 29 115 29 ZM281 666 q-74 0 -119.5 -47 q-45.5 -47 -45.5 -125 q0 -77 46 -123.5 q46 -46.5 121 -46.5 q50 0 89 21.5 q39 21.5 61 60 q22 38.5 22 88.5 q0 52 -22 90.5 q-22 38.5 -61 60 q-39 21.5 -91 21.5 Z" /><glyph glyph-name="fraction" unicode="&#x2044;" d="M-103 -23 l-49 27 l424 731 l47 -27 l-422 -731 Z" /><glyph glyph-name="period" unicode="." d="M69 87 l85 0 l0 -87 l-85 0 l0 87 Z" /><glyph glyph-name="comma" unicode="," d="M101 -107 l-31 25 q24 27 31 48.5 q7 21.5 7 44.5 l21 -11 l-60 0 l0 87 l85 0 l0 -65 q0 -35 -11.5 -67 q-11.5 -32 -41.5 -62 Z" /><glyph glyph-name="colon" unicode=":" d="M69 87 l85 0 l0 -87 l-85 0 l0 87 ZM69 490 l85 0 l0 -87 l-85 0 l0 87 Z" /><glyph glyph-name="semicolon" unicode=";" d="M69 490 l85 0 l0 -87 l-85 0 l0 87 ZM101 -107 l-31 25 q24 27 31 48.5 q7 21.5 7 44.5 l21 -11 l-60 0 l0 87 l85 0 l0 -65 q0 -35 -11.5 -67 q-11.5 -32 -41.5 -62 Z" /><glyph glyph-name="ellipsis" unicode="&#x2026;" d="M69 87 l85 0 l0 -87 l-85 0 l0 87 ZM290 87 l86 0 l0 -87 l-86 0 l0 87 ZM513 87 l86 0 l0 -87 l-86 0 l0 87 Z" /><glyph glyph-name="exclam" unicode="!" d="M92 175 l-19 537 l76 0 l-19 -537 l-38 0 ZM69 87 l85 0 l0 -87 l-85 0 l0 87 Z" /><glyph glyph-name="exclamdown" unicode="¡" d="M92 315 l38 0 l19 -497 l-76 0 l19 497 ZM69 403 l0 87 l85 0 l0 -87 l-85 0 Z" /><glyph glyph-name="question" unicode="?" d="M87 684 q33 18 69.5 26.5 q36.5 8.5 69.5 8.5 q56 0 98 -19 q42 -19 65 -53 q23 -34 23 -81 q0 -47 -18 -84 q-18 -37 -44.5 -69 q-26.5 -32 -54 -65 q-27.5 -33 -47.5 -71 q-20 -38 -24 -88 l-2 -14 l-37 0 l0 18 q0 54 16.5 95.5 q16.5 41.5 41 75 q24.5 33.5 48.5 64 q24 30.5 40.5 63 q16.5 32.5 16.5 72.5 q0 47 -33 74.5 q-33 27.5 -90 27.5 q-34 0 -69 -11 q-35 -11 -69 -31 l0 61 ZM161 0 l0 87 l85 0 l0 -87 l-85 0 Z" /><glyph glyph-name="questiondown" unicode="¿" d="M213 -189 q-54 0 -96 19 q-42 19 -65.5 53 q-23.5 34 -23.5 80 q0 46 17.5 79 q17.5 33 44.5 60 q27 27 54.5 54.5 q27.5 27.5 47.5 62 q20 34.5 24 83.5 l2 14 l38 0 l0 -18 q0 -54 -16.5 -91 q-16.5 -37 -41.5 -65 q-25 -28 -49 -53.5 q-24 -25.5 -40.5 -54.5 q-16.5 -29 -16.5 -69 q0 -44 33 -71.5 q33 -27.5 89 -27.5 q35 0 69.5 10.5 q34.5 10.5 68.5 30.5 l0 -61 q-33 -18 -69 -26.5 q-36 -8.5 -70 -8.5 ZM193 403 l0 87 l86 0 l0 -87 l-86 0 Z" /><glyph glyph-name="periodcentered" unicode="·" d="M69 311 l85 0 l0 -86 l-85 0 l0 86 Z" /><glyph glyph-name="bullet" unicode="&#x2022;" d="M265 89 q-49 0 -91 23.5 q-42 23.5 -67 64.5 q-25 41 -25 91 q0 46 23.5 87 q23.5 41 65 66.5 q41.5 25.5 94.5 25.5 q49 0 90 -23.5 q41 -23.5 66.5 -63.5 q25.5 -40 25.5 -92 q0 -49 -24.5 -90 q-24.5 -41 -66 -65 q-41.5 -24 -91.5 -24 Z" /><glyph glyph-name="asterisk" unicode="*" d="M133 369 l-40 30 l99 128 l-156 48 l16 47 l153 -54 l-5 162 l50 0 l-4 -163 l154 55 l15 -47 l-155 -48 l99 -128 l-41 -30 l-92 135 l-93 -135 Z" /><glyph glyph-name="numbersign" unicode="#" d="M322 0 l138 712 l53 0 l-138 -712 l-53 0 ZM30 189 l0 49 l526 0 l0 -49 l-526 0 ZM93 0 l138 712 l53 0 l-138 -712 l-53 0 ZM50 482 l0 49 l525 0 l0 -49 l-525 0 Z" /><glyph glyph-name="slash" unicode="/" d="M38 -53 l-60 0 l255 800 l61 0 l-256 -800 Z" /><glyph glyph-name="backslash" unicode="\" d="M233 -53 l-255 800 l60 0 l256 -800 l-61 0 Z" /><glyph glyph-name="parenleft" unicode="(" d="M214 -182 q-38 75 -62 149 q-24 74 -35 148 q-11 74 -11 151 q0 76 11 150 q11 74 34.5 147.5 q23.5 73.5 62.5 148.5 l53 0 q-37 -85 -58.5 -161 q-21.5 -76 -30.5 -146.5 q-9 -70.5 -9 -138.5 q0 -68 9.5 -139 q9.5 -71 31 -147.5 q21.5 -76.5 57.5 -161.5 l-53 0 Z" /><glyph glyph-name="parenright" unicode=")" d="M86 -182 l-52 0 q36 85 57.5 161.5 q21.5 76.5 30.5 147.5 q9 71 9 139 q0 68 -9 138.5 q-9 70.5 -30.5 146.5 q-21.5 76 -57.5 161 l53 0 q57 -112 82.5 -222.5 q25.5 -110.5 25.5 -223.5 q0 -77 -11.5 -151 q-11.5 -74 -35.5 -148 q-24 -74 -62 -149 Z" /><glyph glyph-name="braceleft" unicode="{" d="M274 -182 q-62 0 -93.5 32 q-31.5 32 -31.5 93 l0 213 q0 42 -16 62.5 q-16 20.5 -58 28.5 l-23 5 l0 27 l23 5 q42 8 58 28.5 q16 20.5 16 62.5 l0 212 q0 62 35 93.5 q35 31.5 90 31.5 l57 0 l0 -50 l-55 0 q-31 0 -48.5 -20 q-17.5 -20 -17.5 -58 l0 -216 q0 -37 -13.5 -60 q-13.5 -23 -34.5 -33.5 q-21 -10.5 -41 -10.5 l0 4 q20 0 41 -11 q21 -11 34.5 -34 q13.5 -23 13.5 -59 l0 -218 q0 -38 17.5 -57.5 q17.5 -19.5 48.5 -19.5 l55 0 l0 -51 l-57 0 Z" /><glyph glyph-name="braceright" unicode="}" d="M64 -182 l-58 0 l0 51 l56 0 q30 0 47.5 19.5 q17.5 19.5 17.5 57.5 l0 218 q0 36 14 59 q14 23 34.5 34 q20.5 11 40.5 11 l0 -4 q-20 0 -40.5 10.5 q-20.5 10.5 -34.5 33.5 q-14 23 -14 60 l0 216 q0 38 -17.5 58 q-17.5 20 -47.5 20 l-56 0 l0 50 l58 0 q54 0 89.5 -31.5 q35.5 -31.5 35.5 -93.5 l0 -212 q0 -42 16 -62.5 q16 -20.5 58 -28.5 l23 -5 l0 -27 l-23 -5 q-42 -8 -58 -28.5 q-16 -20.5 -16 -62.5 l0 -213 q0 -61 -32 -93 q-32 -32 -93 -32 Z" /><glyph glyph-name="bracketleft" unicode="[" d="M112 -182 l0 894 l182 0 l0 -50 l-121 0 l0 -793 l121 0 l0 -51 l-182 0 Z" /><glyph glyph-name="bracketright" unicode="]" d="M189 -182 l-183 0 l0 51 l121 0 l0 793 l-121 0 l0 50 l183 0 l0 -894 Z" /><glyph glyph-name="hyphen" unicode="-" d="M75 242 l0 52 l274 0 l0 -52 l-274 0 Z" /><glyph glyph-name="endash" unicode="&#x2013;" d="M0 247 l0 43 l505 0 l0 -43 l-505 0 Z" /><glyph glyph-name="emdash" unicode="&#x2014;" d="M0 247 l0 43 l1010 0 l0 -43 l-1010 0 Z" /><glyph glyph-name="figuredash" unicode="&#x2012;" d="M75 247 l0 43 l456 0 l0 -43 l-456 0 Z" /><glyph glyph-name="uni2015" unicode="&#x2015;" d="M0 247 l0 43 l1010 0 l0 -43 l-1010 0 Z" /><glyph glyph-name="underscore" unicode="_" d="M6 -43 l0 43 l493 0 l0 -43 l-493 0 Z" /><glyph glyph-name="quotesinglbase" unicode="&#x201a;" d="M101 -107 l-31 25 q24 27 31 48.5 q7 21.5 7 44.5 l21 -11 l-60 0 l0 87 l85 0 l0 -65 q0 -35 -11.5 -67 q-11.5 -32 -41.5 -62 Z" /><glyph glyph-name="quoteleft" unicode="&#x2018;" d="M120 717 l33 -24 q-25 -27 -32.5 -49.5 q-7.5 -22.5 -7.5 -44.5 l-21 12 l62 0 l0 -87 l-85 0 l0 63 q0 37 11 69 q11 32 40 61 Z" /><glyph glyph-name="quoteright" unicode="&#x2019;" d="M101 518 l-31 25 q24 27 31 49 q7 22 7 44 l21 -11 l-60 0 l0 87 l85 0 l0 -64 q0 -36 -11.5 -67.5 q-11.5 -31.5 -41.5 -62.5 Z" /><glyph glyph-name="guilsinglleft" unicode="&#x2039;" d="M159 89 l-131 178 l133 180 l60 0 l-128 -179 l125 -179 l-59 0 Z" /><glyph glyph-name="guilsinglright" unicode="&#x203a;" d="M91 89 l-59 0 l126 179 l-129 179 l61 0 l132 -180 l-131 -178 Z" /><glyph glyph-name="quotesingle" unicode="&#39;" d="M87 438 l-18 274 l74 0 l-16 -274 l-40 0 Z" /><glyph glyph-name="uni2007" unicode="&#x2007;" d="" /><glyph glyph-name="uni200A" unicode="&#x200a;" d="" /><glyph glyph-name="uni2008" unicode="&#x2008;" d="" /><glyph glyph-name="space" unicode=" " d="" /><glyph glyph-name="nonbreakingspace" unicode=" " d="" /><glyph glyph-name="uni2009" unicode="&#x2009;" d="" /><glyph glyph-name="uni200B" unicode="&#x200b;" d="" /><glyph glyph-name="nonmarkingreturn" unicode="" d="" /><glyph glyph-name="uni20B5" unicode="&#x20b5;" d="M358 -8 q-91 0 -156.5 43.5 q-65.5 43.5 -101 125 q-35.5 81.5 -35.5 196.5 q0 114 35 195 q35 81 101 124.5 q66 43.5 157 43.5 q51 0 109 -25.5 q58 -25.5 100 -67.5 l-27 -49 q-40 41 -89 64 q-49 23 -94 23 q-108 0 -169 -81 q-61 -81 -61 -227 q0 -146 61 -228 q61 -82 169 -82 q45 0 94 23 q49 23 89 64 l27 -49 q-42 -42 -100 -67.5 q-58 -25.5 -109 -25.5 ZM324 -116 l0 944 l56 0 l0 -944 l-56 0 Z" /><glyph glyph-name="cent" unicode="¢" d="M331 -7 q-70 0 -122.5 32.5 q-52.5 32.5 -82.5 90.5 q-30 58 -30 135 q0 78 30 137 q30 59 83.5 92 q53.5 33 124.5 33 q51 0 97 -17.5 q46 -17.5 76 -48.5 l-23 -48 q-39 31 -74.5 46 q-35.5 15 -73.5 15 q-82 0 -129 -56 q-47 -56 -47 -153 q0 -96 46.5 -150 q46.5 -54 128.5 -54 q39 0 74.5 14.5 q35.5 14.5 74.5 45.5 l23 -47 q-32 -31 -78.5 -49 q-46.5 -18 -97.5 -18 ZM298 -119 l0 744 l55 0 l0 -744 l-55 0 Z" /><glyph glyph-name="colonmonetary" unicode="&#x20a1;" d="M358 -8 q-91 0 -156.5 43.5 q-65.5 43.5 -101 125 q-35.5 81.5 -35.5 196.5 q0 114 35 195 q35 81 101 124.5 q66 43.5 157 43.5 q51 0 109 -25.5 q58 -25.5 100 -67.5 l-27 -49 q-40 41 -89 64 q-49 23 -94 23 q-108 0 -169 -81 q-61 -81 -61 -227 q0 -146 61 -228 q61 -82 169 -82 q45 0 94 23 q49 23 89 64 l27 -49 q-42 -42 -100 -67.5 q-58 -25.5 -109 -25.5 ZM90 -72 l-48 19 l91 229 l36 -51 l-79 -197 ZM223 -125 l-48 18 l61 152 l49 -15 l-62 -155 ZM337 688 l56 140 l54 0 l-55 -140 l-55 0 ZM522 628 l-42 33 l66 167 l55 0 l-79 -200 Z" /><glyph glyph-name="currency" unicode="¤" d="M301 -3 q-67 0 -122.5 34 q-55.5 34 -88 90.5 q-32.5 56.5 -32.5 125.5 q0 70 32.5 126.5 q32.5 56.5 88 90.5 q55.5 34 122.5 34 q67 0 122 -34 q55 -34 87.5 -90.5 q32.5 -56.5 32.5 -126.5 q0 -69 -32.5 -125.5 q-32.5 -56.5 -87.5 -90.5 q-55 -34 -122 -34 ZM93 -3 l-38 38 l83 87 l36 -43 l-81 -82 ZM504 -3 l-78 79 l41 38 l75 -79 l-38 -38 ZM300 50 q51 0 93 26.5 q42 26.5 67 71.5 q25 45 25 99 q0 55 -25 99.5 q-25 44.5 -67 71 q-42 26.5 -93 26.5 q-51 0 -93 -26.5 q-42 -26.5 -67 -71 q-25 -44.5 -25 -99.5 q0 -54 25 -99 q25 -45 67 -71.5 q42 -26.5 93 -26.5 ZM131 380 l-76 79 l39 40 l74 -78 l-37 -41 ZM470 384 l-39 41 l72 74 l40 -40 l-73 -75 Z" /><glyph glyph-name="dollar" unicode="$" d="M303 -8 q-74 0 -139.5 24.5 q-65.5 24.5 -113.5 71.5 l25 49 q54 -48 108 -69 q54 -21 120 -21 q85 0 132.5 37.5 q47.5 37.5 47.5 103.5 q0 41 -22.5 64.5 q-22.5 23.5 -60 37.5 q-37.5 14 -82 24.5 q-44.5 10.5 -89.5 23.5 q-45 13 -82.5 34 q-37.5 21 -60 56 q-22.5 35 -22.5 91 q0 59 31 104.5 q31 45.5 86 71 q55 25.5 125 25.5 q45 0 87.5 -11 q42.5 -11 80 -31.5 q37.5 -20.5 66.5 -50.5 l-25 -49 q-86 87 -209 87 q-83 0 -131 -39 q-48 -39 -48 -106 q0 -45 22.5 -71 q22.5 -26 60.5 -41.5 q38 -15.5 82.5 -26.5 q44.5 -11 89 -23 q44.5 -12 82 -31.5 q37.5 -19.5 60 -52.5 q22.5 -33 22.5 -85 q0 -59 -31 -103 q-31 -44 -86 -69 q-55 -25 -126 -25 ZM282 -116 l0 119 l1 31 l0 648 l-1 27 l0 119 l56 0 l0 -119 l-1 -27 l0 -648 l1 -31 l0 -119 l-56 0 Z" /><glyph glyph-name="dong" unicode="&#x20ab;" d="M272 -5 q-57 0 -104.5 29.5 q-47.5 29.5 -75 86.5 q-27.5 57 -27.5 138 q0 82 28 138 q28 56 74.5 84.5 q46.5 28.5 104.5 28.5 q63 0 107.5 -33 q44.5 -33 61.5 -97 l-11 -9 l0 351 l62 0 l0 -712 l-62 0 l0 135 l11 -9 q-17 -65 -61.5 -98 q-44.5 -33 -107.5 -33 ZM81 -135 l0 47 l411 0 l0 -47 l-411 0 ZM280 49 q76 0 113 53.5 q37 53.5 37 144.5 q0 92 -37 145.5 q-37 53.5 -112 53.5 q-69 0 -110.5 -51 q-41.5 -51 -41.5 -146 q0 -94 41.5 -147 q41.5 -53 109.5 -53 ZM275 568 l0 47 l293 0 l0 -47 l-293 0 Z" /><glyph glyph-name="Euro" unicode="&#x20ac;" d="M378 -8 q-83 0 -141.5 42.5 q-58.5 42.5 -89 124 q-30.5 81.5 -30.5 198.5 q0 116 30.5 197 q30.5 81 89 123.5 q58.5 42.5 141.5 42.5 q61 0 114 -23.5 q53 -23.5 96 -69.5 l-26 -49 q-39 41 -87 64 q-48 23 -97 23 q-98 0 -148 -78 q-50 -78 -50 -230 q0 -154 49.5 -232 q49.5 -78 148.5 -78 q49 0 97 23 q48 23 87 64 l26 -49 q-39 -42 -96 -67.5 q-57 -25.5 -114 -25.5 ZM12 256 l0 49 l357 0 l0 -49 l-357 0 ZM12 408 l0 50 l357 0 l0 -50 l-357 0 Z" /><glyph glyph-name="florin" unicode="&#x192;" d="M42 -187 l0 52 l45 0 q48 0 77.5 24.5 q29.5 24.5 42.5 84.5 l124 586 q11 52 35 86.5 q24 34.5 60 52 q36 17.5 85 17.5 l45 0 l0 -51 l-44 0 q-49 0 -78 -24.5 q-29 -24.5 -41 -84.5 l-125 -586 q-11 -52 -35 -87 q-24 -35 -60 -52.5 q-36 -17.5 -85 -17.5 l-46 0 ZM179 441 l0 50 l329 0 l0 -50 l-329 0 Z" /><glyph glyph-name="franc" unicode="&#x20a3;" d="M80 0 l0 712 l417 0 l0 -53 l-356 0 l0 -270 l233 0 l0 -54 l-233 0 l0 -335 l-61 0 ZM366 0 l0 490 l58 0 l0 -133 l-11 15 q12 44 35.5 71.5 q23.5 27.5 54.5 40.5 q31 13 65 13 l17 0 l0 -54 l-11 0 q-53 0 -85.5 -22 q-32.5 -22 -47.5 -58 q-15 -36 -15 -77 l0 -286 l-60 0 Z" /><glyph glyph-name="uni20B2" unicode="&#x20b2;" d="M346 -8 q-90 0 -155.5 43.5 q-65.5 43.5 -101 125 q-35.5 81.5 -35.5 196.5 q0 114 35.5 195 q35.5 81 100.5 124.5 q65 43.5 156 43.5 q52 0 110 -25.5 q58 -25.5 100 -67.5 l-26 -49 q-40 41 -89 64 q-49 23 -96 23 q-106 0 -167 -81 q-61 -81 -61 -227 q0 -147 60.5 -229 q60.5 -82 168.5 -82 q36 0 79.5 10.5 q43.5 10.5 82.5 28.5 l-15 -41 l0 268 l-157 0 l0 53 l213 0 l0 -322 q-24 -14 -58.5 -25.5 q-34.5 -11.5 -72.5 -18.5 q-38 -7 -72 -7 ZM314 -116 l0 134 l55 0 l0 -134 l-55 0 ZM313 694 l0 134 l56 0 l0 -134 l-56 0 Z" /><glyph glyph-name="uni20AD" unicode="&#x20ad;" d="M12 332 l0 50 l531 0 l0 -50 l-531 0 ZM503 0 l-355 357 l355 355 l75 0 l-374 -376 l0 44 l374 -380 l-75 0 ZM118 0 l0 712 l63 0 l0 -712 l-63 0 Z" /><glyph glyph-name="lira" unicode="&#x20a4;" d="M47 256 l0 49 l356 0 l0 -49 l-356 0 ZM47 408 l0 50 l356 0 l0 -50 l-356 0 ZM215 523 l0 -308 q0 -49 -9.5 -82 q-9.5 -33 -31 -55 q-21.5 -22 -57.5 -36 l0 11 l443 0 l0 -53 l-513 0 l0 43 q57 26 82 61.5 q25 35.5 25 89.5 l0 334 q0 60 22.5 103 q22.5 43 64.5 66 q42 23 101 23 q62 0 119 -24 q57 -24 103 -69 l-27 -49 q-42 42 -92 65 q-50 23 -102 23 q-62 0 -95 -37 q-33 -37 -33 -106 Z" /><glyph glyph-name="uni20BA" unicode="&#x20ba;" d="M172 10 l0 702 l61 0 l0 -654 q20 -5 40 -8 q20 -3 43 -3 q61 0 115 19.5 q54 19.5 101 66.5 l27 -49 q-47 -45 -108 -68 q-61 -23 -137 -23 q-75 0 -142 17 ZM65 298 l0 59 l359 199 l0 -59 l-359 -199 ZM65 465 l0 58 l359 198 l0 -57 l-359 -199 Z" /><glyph glyph-name="uni20BC" unicode="&#x20bc;" d="M65 0 q0 177 10.5 302 q10.5 125 30.5 206.5 q20 81.5 49 127.5 q29 46 66 64.5 q37 18.5 81 18.5 q43 0 80 -19 q37 -19 66 -65.5 q29 -46.5 49.5 -128 q20.5 -81.5 31 -206 q10.5 -124.5 10.5 -300.5 l-61 0 q0 139 -5.5 243.5 q-5.5 104.5 -16.5 178 q-11 73.5 -26.5 121 q-15.5 47.5 -35 74 q-19.5 26.5 -43 37.5 q-23.5 11 -49.5 11 q-27 0 -50 -11 q-23 -11 -43 -38 q-20 -27 -35 -74.5 q-15 -47.5 -26 -121 q-11 -73.5 -16.5 -177.5 q-5.5 -104 -5.5 -243 l-61 0 ZM273 352 l0 328 l-1 24 l0 124 l56 0 l0 -124 l-1 -24 l0 -328 l-54 0 Z" /><glyph glyph-name="uni20A6" unicode="&#x20a6;" d="M111 0 l0 712 l53 0 l291 -624 l-23 -16 l0 640 l57 0 l0 -712 l-53 0 l-291 622 l23 18 l0 -640 l-57 0 ZM12 256 l0 49 l134 0 l0 -49 l-134 0 ZM12 408 l0 50 l134 0 l0 -50 l-134 0 ZM456 256 l0 49 l132 0 l0 -49 l-132 0 ZM456 408 l0 50 l132 0 l0 -50 l-132 0 Z" /><glyph glyph-name="peseta" unicode="&#x20a7;" d="M95 0 l0 728 l166 0 q77 0 130 -26.5 q53 -26.5 80.5 -77.5 q27.5 -51 27.5 -125 q0 -73 -28 -124.5 q-28 -51.5 -81.5 -78.5 q-53.5 -27 -128.5 -27 l-105 0 l0 -269 l-61 0 ZM158 321 l100 0 q90 0 135 44.5 q45 44.5 45 132.5 q0 90 -44 133.5 q-44 43.5 -136 43.5 l-100 0 l0 -354 ZM476 452 l0 49 l307 0 l0 -49 l-307 0 ZM986 -7 q-121 0 -193 67 l24 47 q45 -32 83 -46 q38 -14 85 -15 q62 0 96.5 22.5 q34.5 22.5 34.5 64.5 q0 36 -29 56 q-29 20 -108 37 q-91 21 -129.5 53 q-38.5 32 -38.5 87 q0 45 23.5 78 q23.5 33 66 51 q42.5 18 98.5 18 q48 0 94.5 -17.5 q46.5 -17.5 74.5 -48.5 l-22 -47 q-39 31 -75.5 45.5 q-36.5 14.5 -75.5 14.5 q-55 0 -88.5 -24.5 q-33.5 -24.5 -33.5 -65.5 q0 -37 26.5 -55.5 q26.5 -18.5 97.5 -36.5 q69 -16 108.5 -34.5 q39.5 -18.5 56 -45 q16.5 -26.5 16.5 -65.5 q0 -63 -53 -101.5 q-53 -38.5 -139 -38.5 ZM575 656 l61 0 l0 -484 q0 -62 29.5 -94.5 q29.5 -32.5 88.5 -32.5 q10 0 21.5 1 q11.5 1 21.5 2 l-2 -51 q-24 -3 -49 -3 q-86 0 -128.5 46.5 q-42.5 46.5 -42.5 123.5 l0 492 Z" /><glyph glyph-name="uni20B1" unicode="&#x20b1;" d="M111 0 l0 712 l162 0 q76 0 127.5 -26 q51.5 -26 78.5 -76.5 q27 -50.5 27 -121.5 q0 -71 -28 -122 q-28 -51 -79.5 -77.5 q-51.5 -26.5 -125.5 -26.5 l-101 0 l0 -262 l-61 0 ZM12 386 l0 49 l134 0 l0 -49 l-134 0 ZM12 537 l0 50 l134 0 l0 -50 l-134 0 ZM173 314 l98 0 q86 0 129 43 q43 43 43 130 q0 88 -42 130 q-42 42 -130 42 l-98 0 l0 -345 ZM456 386 l0 49 l132 0 l0 -49 l-132 0 ZM456 537 l0 50 l132 0 l0 -50 l-132 0 Z" /><glyph glyph-name="uni20BD" unicode="&#x20bd;" d="M111 0 l0 712 l227 0 q74 0 126.5 -24.5 q52.5 -24.5 80 -70 q27.5 -45.5 27.5 -109.5 q0 -62 -28.5 -107 q-28.5 -45 -81 -70 q-52.5 -25 -124.5 -25 l-166 0 l0 -306 l-61 0 ZM12 155 l0 48 l346 0 l0 -48 l-346 0 ZM12 306 l0 49 l131 0 l0 -49 l-131 0 ZM173 355 l160 0 q87 0 132 38.5 q45 38.5 45 113.5 q0 76 -44 114 q-44 38 -132 38 l-161 0 l0 -304 Z" /><glyph glyph-name="uni20B9" unicode="&#x20b9;" d="M457 0 l-149 228 q-29 45 -59.5 63 q-30.5 18 -84.5 18 l-146 0 l0 55 l220 0 q80 0 127 34 q47 34 47 116 q0 81 -47 115 q-47 34 -127 34 l-77 0 l0 38 l81 0 q69 0 122 -18.5 q53 -18.5 82.5 -60.5 q29.5 -42 29.5 -110 q0 -63 -29.5 -107 q-29.5 -44 -82.5 -67.5 q-53 -23.5 -122 -23.5 l-9 10 q51 0 81.5 -21 q30.5 -21 59.5 -65 l156 -238 l-73 0 ZM18 510 l0 51 l563 0 l0 -51 l-563 0 ZM18 663 l0 49 l563 0 l0 -49 l-563 0 Z" /><glyph glyph-name="sterling" unicode="£" d="M47 332 l0 49 l356 0 l0 -49 l-356 0 ZM215 523 l0 -308 q0 -49 -9.5 -82 q-9.5 -33 -31 -55 q-21.5 -22 -57.5 -36 l0 11 l443 0 l0 -53 l-513 0 l0 43 q57 26 82 61.5 q25 35.5 25 89.5 l0 334 q0 60 22.5 103 q22.5 43 64.5 66 q42 23 101 23 q62 0 119 -24 q57 -24 103 -69 l-27 -49 q-42 42 -92 65 q-50 23 -102 23 q-62 0 -95 -37 q-33 -37 -33 -106 Z" /><glyph glyph-name="uni20A9" unicode="&#x20a9;" d="M152 0 l-93 712 l60 0 l76 -648 l-32 0 l112 648 l52 0 l110 -648 l-31 0 l76 648 l60 0 l-93 -712 l-52 0 l-110 650 l27 0 l-111 -650 l-51 0 ZM12 256 l0 49 l134 0 l0 -49 l-134 0 ZM12 408 l0 50 l116 0 l0 -50 l-116 0 ZM456 256 l0 49 l132 0 l0 -49 l-132 0 ZM475 408 l0 50 l113 0 l0 -50 l-113 0 Z" /><glyph glyph-name="yen" unicode="¥" d="M269 0 l0 370 l15 -50 l-287 392 l72 0 l240 -333 l-17 0 l239 333 l72 0 l-286 -392 l14 50 l0 -370 l-62 0 ZM72 182 l0 49 l456 0 l0 -49 l-456 0 ZM72 334 l0 50 l456 0 l0 -50 l-456 0 Z" /><glyph glyph-name="periodcentered" unicode="&#x2219;" d="M258 311 l85 0 l0 -86 l-85 0 l0 86 Z" /><glyph glyph-name="fraction" unicode="&#x2215;" d="M199 -62 l-54 19 l256 799 l55 -18 l-257 -800 Z" /><glyph glyph-name="plus" unicode="+" d="M546 312 l0 -51 l-492 0 l0 51 l492 0 ZM275 533 l50 0 l0 -493 l-50 0 l0 493 Z" /><glyph glyph-name="minus" unicode="&#x2212;" d="M546 312 l0 -51 l-492 0 l0 51 l492 0 Z" /><glyph glyph-name="multiply" unicode="×" d="M500 523 l36 -35 l-436 -437 l-36 35 l436 437 ZM100 523 l436 -437 l-36 -35 l-436 437 l36 35 Z" /><glyph glyph-name="divide" unicode="÷" d="M251 444 l0 89 l86 0 l0 -89 l-86 0 ZM251 40 l0 89 l86 0 l0 -89 l-86 0 ZM546 312 l0 -51 l-492 0 l0 51 l492 0 Z" /><glyph glyph-name="equal" unicode="=" d="M546 413 l0 -51 l-492 0 l0 51 l492 0 ZM546 211 l0 -51 l-492 0 l0 51 l492 0 Z" /><glyph glyph-name="notequal" unicode="&#x2260;" d="M376 551 l45 -20 l-211 -509 l-45 20 l211 509 ZM546 413 l0 -51 l-492 0 l0 51 l492 0 ZM546 211 l0 -51 l-492 0 l0 51 l492 0 Z" /><glyph glyph-name="greater" unicode="&gt;" d="M546 262 l-492 -229 l0 57 l462 212 l0 -30 l-462 212 l0 55 l492 -228 l0 -49 Z" /><glyph glyph-name="less" unicode="&lt;" d="M54 262 l0 49 l492 228 l0 -55 l-462 -212 l0 30 l462 -212 l0 -57 l-492 229 Z" /><glyph glyph-name="greaterequal" unicode="&#x2265;" d="M546 301 l-492 -189 l0 58 l457 172 l0 -31 l-457 173 l0 55 l492 -188 l0 -50 ZM546 51 l0 -51 l-492 0 l0 51 l492 0 Z" /><glyph glyph-name="lessequal" unicode="&#x2264;" d="M54 301 l0 50 l492 188 l0 -55 l-457 -173 l0 31 l457 -172 l0 -58 l-492 189 ZM546 51 l0 -51 l-492 0 l0 51 l492 0 Z" /><glyph glyph-name="plusminus" unicode="±" d="M546 351 l0 -50 l-492 0 l0 50 l492 0 ZM275 533 l50 0 l0 -414 l-50 0 l0 414 ZM546 51 l0 -51 l-492 0 l0 51 l492 0 Z" /><glyph glyph-name="approxequal" unicode="&#x2248;" d="M497 438 l42 -21 q-19 -44 -50.5 -70 q-31.5 -26 -76.5 -26 q-34 0 -66 12.5 q-32 12.5 -61.5 29 q-29.5 16.5 -55.5 29.5 q-26 13 -50 13 q-36 0 -56.5 -20 q-20.5 -20 -32.5 -48 l-44 21 q20 45 51.5 70 q31.5 25 77.5 25 q34 0 65.5 -12.5 q31.5 -12.5 61 -28.5 q29.5 -16 56 -29 q26.5 -13 50.5 -13 q36 0 56.5 20 q20.5 20 32.5 48 ZM497 236 l42 -21 q-19 -44 -50.5 -70 q-31.5 -26 -76.5 -26 q-34 0 -66 12.5 q-32 12.5 -61.5 29 q-29.5 16.5 -55.5 29.5 q-26 13 -50 13 q-36 0 -56.5 -20 q-20.5 -20 -32.5 -48 l-44 21 q20 45 51.5 70 q31.5 25 77.5 25 q34 0 65.5 -12.5 q31.5 -12.5 61 -28.5 q29.5 -16 56 -29 q26.5 -13 50.5 -13 q36 0 56.5 20 q20.5 20 32.5 48 Z" /><glyph glyph-name="asciitilde" unicode="~" d="M504 337 l42 -21 q-20 -44 -51 -70 q-31 -26 -77 -26 q-34 0 -66 12.5 q-32 12.5 -61 29 q-29 16.5 -55.5 29.5 q-26.5 13 -50.5 13 q-36 0 -56 -20 q-20 -20 -33 -48 l-42 21 q19 45 50.5 70 q31.5 25 77.5 25 q34 0 66 -12.5 q32 -12.5 61 -28.5 q29 -16 55.5 -29 q26.5 -13 50.5 -13 q36 0 56 20 q20 20 33 48 Z" /><glyph glyph-name="logicalnot" unicode="¬" d="M546 418 l0 -262 l-48 0 l0 212 l-444 0 l0 50 l492 0 Z" /><glyph glyph-name="asciicircum" unicode="^" d="M325 634 l228 -493 l-55 0 l-213 463 l30 0 l-213 -463 l-54 0 l227 493 l50 0 Z" /><glyph glyph-name="emptyset" unicode="&#x2205;" d="M28 4 l78 103 q-48 39 -76.5 94 q-28.5 55 -28.5 121 q0 57 22.5 109 q22.5 52 63 92 q40.5 40 95.5 63 q55 23 119 23 q43 0 84 -11 q41 -11 76 -33 l77 101 l45 -34 l-78 -101 q42 -38 68 -91.5 q26 -53.5 26 -116.5 q0 -58 -23 -110 q-23 -52 -64.5 -91.5 q-41.5 -39.5 -95 -61.5 q-53.5 -22 -115.5 -22 q-40 0 -78 10.5 q-38 10.5 -71 28.5 l-78 -103 l-46 30 ZM136 147 l293 377 q-27 16 -59.5 25.5 q-32.5 9.5 -68.5 9.5 q-68 0 -122.5 -31 q-54.5 -31 -86.5 -84.5 q-32 -53.5 -32 -121.5 q0 -52 20 -97 q20 -45 56 -78 ZM301 86 q65 0 119.5 30.5 q54.5 30.5 87.5 83.5 q33 53 33 122 q0 50 -18 92.5 q-18 42.5 -49 75.5 l-291 -375 q25 -14 55 -21.5 q30 -7.5 63 -7.5 Z" /><glyph glyph-name="infinity" unicode="&#x221e;" d="M44 287 q0 54 34 93 q34 39 94 39 q24 0 50.5 -10.5 q26.5 -10.5 49.5 -33 q23 -22.5 38 -59.5 l0 -58 q-15 -37 -38 -59.5 q-23 -22.5 -49.5 -33 q-26.5 -10.5 -50.5 -10.5 q-60 0 -94 38.5 q-34 38.5 -34 93.5 ZM94 287 q0 -37 20.5 -62.5 q20.5 -25.5 58.5 -25.5 q16 0 34.5 6.5 q18.5 6.5 37 25.5 q18.5 19 34.5 57 q-16 37 -34.5 56 q-18.5 19 -37 25 q-18.5 6 -34.5 6 q-38 0 -58.5 -26 q-20.5 -26 -20.5 -62 ZM556 287 q0 -55 -34 -93.5 q-34 -38.5 -94 -38.5 q-24 0 -50.5 10.5 q-26.5 10.5 -49.5 33 q-23 22.5 -38 59.5 l0 58 q15 37 38 59.5 q23 22.5 49.5 33 q26.5 10.5 50.5 10.5 q60 0 94 -39 q34 -39 34 -93 ZM506 287 q0 36 -20.5 62 q-20.5 26 -58.5 26 q-16 0 -34.5 -6 q-18.5 -6 -37 -25 q-18.5 -19 -34.5 -56 q16 -38 34.5 -57 q18.5 -19 37 -25.5 q18.5 -6.5 34.5 -6.5 q38 0 58.5 25.5 q20.5 25.5 20.5 62.5 Z" /><glyph glyph-name="integral" unicode="&#x222b;" d="M404 720 q14 0 29 -2 q15 -2 30 -6 l0 -54 q-15 4 -26 5.5 q-11 1.5 -22 1.5 q-35 0 -59.5 -20.5 q-24.5 -20.5 -24.5 -82.5 l0 -600 q0 -75 -37.5 -111 q-37.5 -36 -97.5 -36 q-14 0 -29 2 q-15 2 -30 6 l0 55 q15 -4 26 -6 q11 -2 22 -2 q24 0 43 8.5 q19 8.5 30 30.5 q11 22 11 64 l0 601 q0 75 37.5 110.5 q37.5 35.5 97.5 35.5 Z" /><glyph glyph-name="Omega" unicode="&#x2126;" d="M388 720 q102 0 176 -37.5 q74 -37.5 114 -106.5 q40 -69 40 -163 q0 -103 -52 -195.5 q-52 -92.5 -162 -185.5 l-4 21 l213 0 l0 -53 l-255 0 l0 51 q95 86 145.5 179.5 q50.5 93.5 50.5 182.5 q0 119 -70 185.5 q-70 66.5 -196 66.5 q-125 0 -195 -66.5 q-70 -66.5 -70 -185.5 q0 -90 50.5 -182.5 q50.5 -92.5 145.5 -179.5 l0 -51 l-254 0 l0 53 l212 0 l-4 -21 q-111 93 -162.5 185.5 q-51.5 92.5 -51.5 195.5 q0 94 40.5 163 q40.5 69 114 106.5 q73.5 37.5 174.5 37.5 Z" /><glyph glyph-name="Delta" unicode="&#x2206;" d="M388 720 q102 0 176 -37.5 q74 -37.5 114 -106.5 q40 -69 40 -163 q0 -103 -52 -195.5 q-52 -92.5 -162 -185.5 l-4 21 l213 0 l0 -53 l-255 0 l0 51 q95 86 145.5 179.5 q50.5 93.5 50.5 182.5 q0 119 -70 185.5 q-70 66.5 -196 66.5 q-125 0 -195 -66.5 q-70 -66.5 -70 -185.5 q0 -90 50.5 -182.5 q50.5 -92.5 145.5 -179.5 l0 -51 l-254 0 l0 53 l212 0 l-4 -21 q-111 93 -162.5 185.5 q-51.5 92.5 -51.5 195.5 q0 94 40.5 163 q40.5 69 114 106.5 q73.5 37.5 174.5 37.5 Z" /><glyph glyph-name="product" unicode="&#x220f;" d="M546 712 l0 -894 l-58 0 l0 839 l-376 0 l0 -839 l-58 0 l0 894 l492 0 Z" /><glyph glyph-name="summation" unicode="&#x2211;" d="M539 -127 l0 -55 l-499 0 l0 46 l303 439 l0 -75 l-303 439 l0 45 l499 0 l0 -53 l-452 0 l0 41 l286 -411 l0 -47 l-286 -412 l0 43 l452 0 Z" /><glyph glyph-name="radical" unicode="&#x221a;" d="M585 766 l-281 -968 l-50 0 l-157 463 l-94 0 l0 51 l133 0 l142 -428 l250 882 l57 0 Z" /><glyph glyph-name="mu" unicode="µ" d="M486 501 l0 -501 l-59 0 l0 111 l11 9 q-20 -63 -68.5 -95 q-48.5 -32 -110.5 -32 q-49 0 -82.5 14.5 q-33.5 14.5 -55.5 44.5 l20 27 l0 -295 l-61 0 l0 717 l61 0 l0 -311 q0 -74 30 -108.5 q30 -34.5 92 -34.5 q74 0 118 46.5 q44 46.5 44 123.5 l0 284 l61 0 Z" /><glyph glyph-name="partialdiff" unicode="&#x2202;" d="M303 -15 q-69 0 -124.5 31.5 q-55.5 31.5 -87.5 93 q-32 61.5 -32 150.5 q0 90 33 151 q33 61 88 92 q55 31 119 31 q57 0 106 -25.5 q49 -25.5 82 -96.5 l-12 1 q-9 90 -34.5 149.5 q-25.5 59.5 -62.5 93.5 q-37 34 -79.5 48 q-42.5 14 -85.5 14 l-48 0 l0 47 q17 2 30.5 3.5 q13.5 1.5 31.5 1.5 q43 0 87.5 -13 q44.5 -13 85 -43.5 q40.5 -30.5 72.5 -83 q32 -52.5 50.5 -131.5 q18.5 -79 18.5 -190 q0 -116 -32 -187.5 q-32 -71.5 -85.5 -104 q-53.5 -32.5 -120.5 -32.5 ZM300 37 q79 0 129.5 62 q50.5 62 50.5 178 q0 68 -25 113.5 q-25 45.5 -65.5 68.5 q-40.5 23 -87.5 23 q-50 0 -91 -25 q-41 -25 -65.5 -74 q-24.5 -49 -24.5 -122 q-2 -73 22 -122.5 q24 -49.5 65 -75.5 q41 -26 92 -26 Z" /><glyph glyph-name="lozenge" unicode="&#x25ca;" d="M556 282 l-228 -484 l-50 0 l-227 484 l227 484 l50 0 l228 -484 ZM501 282 l-198 420 l-198 -420 l198 -421 l198 421 Z" /><glyph glyph-name="uniF8FF" unicode="&#xf8ff;" d="M138 1 l71 226 l-192 146 l239 0 l74 226 l78 -226 l239 0 l-192 -146 l71 -226 l-196 136 l-192 -136 ZM264 200 l28 0 l0 87 l-5 -2 l34 -64 l23 0 l35 64 l-5 2 l0 -87 l28 0 l0 131 l-27 0 l-45 -86 l7 0 l-46 86 l-27 0 l0 -131 Z" /><glyph glyph-name="at" unicode="@" d="M476 -151 q-130 0 -225 54 q-95 54 -146.5 150.5 q-51.5 96.5 -51.5 224.5 q0 100 31.5 180.5 q31.5 80.5 89.5 138.5 q58 58 135 89 q77 31 167 31 q101 0 177 -32.5 q76 -32.5 126.5 -86.5 q50.5 -54 75.5 -119.5 q25 -65.5 25 -130.5 q0 -82 -18.5 -136.5 q-18.5 -54.5 -49 -87 q-30.5 -32.5 -65.5 -46 q-35 -13.5 -69 -13.5 q-54 0 -84 23.5 q-30 23.5 -32 68.5 l-2 0 q-24 -41 -63 -66.5 q-39 -25.5 -91 -25.5 q-62 0 -104 44 q-42 44 -42 130 q0 51 15 98 q15 47 43 84.5 q28 37.5 67 59.5 q39 22 89 22 q50 0 86.5 -24.5 q36.5 -24.5 45.5 -61.5 l1 0 l12 73 l54 0 l-49 -283 q-10 -58 8 -77.5 q18 -19.5 56 -19.5 q20 0 44 12 q24 12 45.5 39 q21.5 27 35.5 73 q14 46 14 114 q0 55 -21 111 q-21 56 -64 103 q-43 47 -109 75.5 q-66 28.5 -157 28.5 q-79 0 -146 -27 q-67 -27 -117.5 -77.5 q-50.5 -50.5 -79 -122 q-28.5 -71.5 -28.5 -161.5 q0 -115 44.5 -200 q44.5 -85 127.5 -131.5 q83 -46.5 199 -46.5 q91 0 155.5 27 q64.5 27 98.5 73 l72 0 q-43 -70 -127.5 -110.5 q-84.5 -40.5 -198.5 -40.5 ZM417 110 q56 0 94.5 33 q38.5 33 58.5 84 q20 51 20 106 q0 61 -31 92.5 q-31 31.5 -80 31.5 q-53 0 -90.5 -32 q-37.5 -32 -57 -81 q-19.5 -49 -19.5 -101 q0 -67 32 -100 q32 -33 73 -33 Z" /><glyph glyph-name="ampersand" unicode="&amp;" d="M280 -7 q-66 0 -116 23 q-50 23 -77.5 64 q-27.5 41 -27.5 95 q0 64 39.5 116 q39.5 52 129.5 108 q69 42 107 71.5 q38 29.5 53 54 q15 24.5 15 52.5 q0 41 -25.5 66 q-25.5 25 -68.5 25 q-47 0 -76 -27 q-29 -27 -29 -72 q0 -21 7 -40 q7 -19 24 -43.5 q17 -24.5 48 -61.5 l244 -285 q24 -28 59 -55 q35 -27 81 -50 l-36 -42 q-49 25 -85.5 54 q-36.5 29 -60.5 56 l-251 292 q-34 41 -54 70 q-20 29 -28.5 54 q-8.5 25 -8.5 51 q0 46 20.5 79.5 q20.5 33.5 58 52 q37.5 18.5 87.5 18.5 q69 0 110.5 -37 q41.5 -37 41.5 -101 q0 -39 -17.5 -71 q-17.5 -32 -60 -67 q-42.5 -35 -119.5 -83 q-53 -34 -85 -63 q-32 -29 -45.5 -58 q-13.5 -29 -13.5 -63 q0 -60 44 -95.5 q44 -35.5 118 -35.5 q78 0 136 45 q58 45 90.5 127.5 q32.5 82.5 35.5 195.5 l57 0 q-3 -96 -27 -173 q-24 -77 -66 -132.5 q-42 -55.5 -100 -85 q-58 -29.5 -128 -29.5 Z" /><glyph glyph-name="paragraph" unicode="¶" d="M482 712 l0 -894 l-59 0 l0 841 l-122 0 l0 -841 l-59 0 l0 508 q-59 0 -102 24.5 q-43 24.5 -66.5 68.5 q-23.5 44 -23.5 100 q0 56 23.5 99.5 q23.5 43.5 67 68.5 q43.5 25 103.5 25 l238 0 Z" /><glyph glyph-name="section" unicode="§" d="M406 44 l-24 43 q21 19 32 44 q11 25 11 55 q0 36 -25.5 65 q-25.5 29 -88.5 63 l-83 44 q-54 29 -85 56 q-31 27 -44.5 58.5 q-13.5 31.5 -13.5 74.5 q0 78 51.5 125 q51.5 47 137.5 47 q46 0 91.5 -18 q45.5 -18 74.5 -48 l-24 -47 q-38 31 -73 45.5 q-35 14.5 -70 14.5 q-61 0 -94 -30.5 q-33 -30.5 -33 -87.5 q0 -45 22 -74.5 q22 -29.5 76 -57.5 l88 -45 q83 -43 118.5 -84.5 q35.5 -41.5 35.5 -100.5 q0 -41 -22.5 -80 q-22.5 -39 -57.5 -62 ZM258 -189 q-58 0 -105 16 q-47 16 -87 50 l23 47 q44 -32 82.5 -45.5 q38.5 -13.5 86.5 -13.5 q60 0 93 30.5 q33 30.5 33 86.5 q0 46 -22 76 q-22 30 -77 57 l-87 45 q-84 41 -119 83 q-35 42 -35 101 q0 41 20 79.5 q20 38.5 51 59.5 l30 -43 q-20 -18 -30 -42.5 q-10 -24.5 -10 -53.5 q0 -35 25.5 -64 q25.5 -29 88.5 -64 l82 -43 q55 -30 86.5 -57.5 q31.5 -27.5 44.5 -59 q13 -31.5 13 -73.5 q0 -78 -50.5 -125 q-50.5 -47 -136.5 -47 Z" /><glyph glyph-name="copyright" unicode="©" d="M412 -5 q-76 0 -142 27.5 q-66 27.5 -115 77 q-49 49.5 -76.5 115.5 q-27.5 66 -27.5 142 q0 77 27.5 142.5 q27.5 65.5 76.5 114 q49 48.5 114.5 76 q65.5 27.5 142.5 27.5 q77 0 142.5 -27.5 q65.5 -27.5 114.5 -76 q49 -48.5 76.5 -114 q27.5 -65.5 27.5 -142.5 q0 -76 -27.5 -142 q-27.5 -66 -76.5 -115.5 q-49 -49.5 -114.5 -77 q-65.5 -27.5 -142.5 -27.5 ZM412 35 q68 0 126 24.5 q58 24.5 101 68 q43 43.5 67 102.5 q24 59 24 127 q0 68 -24 126.5 q-24 58.5 -67 102 q-43 43.5 -101 67.5 q-58 24 -126 24 q-68 0 -126.5 -24 q-58.5 -24 -101.5 -67.5 q-43 -43.5 -67 -102 q-24 -58.5 -24 -126.5 q0 -68 24 -127 q24 -59 67 -102.5 q43 -43.5 101.5 -68 q58.5 -24.5 126.5 -24.5 ZM418 138 q-92 0 -146.5 59 q-54.5 59 -54.5 160 q0 67 24.5 115.5 q24.5 48.5 69.5 75 q45 26.5 107 26.5 q42 0 82 -15.5 q40 -15.5 68 -41.5 l-22 -42 q-32 25 -62 37 q-30 12 -64 12 q-68 0 -104.5 -43 q-36.5 -43 -36.5 -124 q0 -82 36.5 -125.5 q36.5 -43.5 104.5 -43.5 q34 0 64 12 q30 12 62 37 l22 -42 q-28 -27 -68 -42 q-40 -15 -82 -15 Z" /><glyph glyph-name="registered" unicode="®" d="M412 -5 q-76 0 -142 27.5 q-66 27.5 -115 77 q-49 49.5 -76.5 115.5 q-27.5 66 -27.5 142 q0 77 27.5 142.5 q27.5 65.5 76.5 114 q49 48.5 114.5 76 q65.5 27.5 142.5 27.5 q77 0 142.5 -27.5 q65.5 -27.5 114.5 -76 q49 -48.5 76.5 -114 q27.5 -65.5 27.5 -142.5 q0 -76 -27.5 -142 q-27.5 -66 -76.5 -115.5 q-49 -49.5 -114.5 -77 q-65.5 -27.5 -142.5 -27.5 ZM412 35 q68 0 126 24.5 q58 24.5 101 68 q43 43.5 67 102.5 q24 59 24 127 q0 68 -24 126.5 q-24 58.5 -67 102 q-43 43.5 -101 67.5 q-58 24 -126 24 q-68 0 -126.5 -24 q-58.5 -24 -101.5 -67.5 q-43 -43.5 -67 -102 q-24 -58.5 -24 -126.5 q0 -68 24 -127 q24 -59 67 -102.5 q43 -43.5 101.5 -68 q58.5 -24.5 126.5 -24.5 ZM268 143 l0 426 l171 0 q68 0 105.5 -32.5 q37.5 -32.5 37.5 -91.5 q0 -57 -37.5 -89.5 q-37.5 -32.5 -105.5 -32.5 l1 6 q28 0 48 -11.5 q20 -11.5 36 -38.5 l84 -136 l-65 0 l-83 136 q-14 23 -30 31.5 q-16 8.5 -44 8.5 l-61 0 l0 -176 l-57 0 ZM325 367 l107 0 q48 0 70 18.5 q22 18.5 22 58.5 q0 40 -22 58.5 q-22 18.5 -70 18.5 l-107 0 l0 -154 Z" /><glyph glyph-name="trademark" unicode="&#x2122;" d="M152 287 l0 375 l-146 0 l0 50 l350 0 l0 -50 l-145 0 l0 -375 l-59 0 ZM423 287 l0 425 l48 0 l166 -318 l-18 0 l166 318 l46 0 l0 -425 l-53 0 l0 347 l16 -2 l-146 -281 l-41 0 l-149 281 l20 2 l0 -347 l-55 0 Z" /><glyph glyph-name="degree" unicode="°" d="M185 427 q-42 0 -75 19 q-33 19 -52 52 q-19 33 -19 75 q0 41 19 73.5 q19 32.5 52 51.5 q33 19 75 19 q40 0 72.5 -19 q32.5 -19 51.5 -51.5 q19 -32.5 19 -74.5 q0 -41 -19 -74 q-19 -33 -51.5 -52 q-32.5 -19 -72.5 -19 ZM184 474 q41 0 68 27.5 q27 27.5 27 71.5 q0 42 -27 70 q-27 28 -68 28 q-42 0 -68 -28 q-26 -28 -26 -70 q0 -44 26 -71.5 q26 -27.5 68 -27.5 Z" /><glyph glyph-name="minute" unicode="&#x2032;" d="M87 438 l-18 274 l74 0 l-16 -274 l-40 0 Z" /><glyph glyph-name="second" unicode="&#x2033;" d="M87 438 l-18 274 l74 0 l-16 -274 l-40 0 ZM285 438 l-18 274 l74 0 l-15 -274 l-41 0 Z" /><glyph glyph-name="bar" unicode="|" d="M98 -182 l0 894 l60 0 l0 -894 l-60 0 Z" /><glyph glyph-name="brokenbar" unicode="¦" d="M98 375 l0 337 l60 0 l0 -337 l-60 0 ZM98 -182 l0 338 l60 0 l0 -338 l-60 0 Z" /><glyph glyph-name="dagger" unicode="&#x2020;" d="M183 720 l0 -121 l115 0 l0 -41 l-115 0 l0 -391 l-48 0 l0 391 l-115 0 l0 41 l115 0 l0 121 l48 0 Z" /><glyph glyph-name="uni2113" unicode="&#x2113;" d="M319 -14 q-39 0 -62.5 16 q-23.5 16 -34 43 q-10.5 27 -10.5 59 l0 139 l-52 -64 l-36 32 l88 108 l0 241 q0 52 13 87.5 q13 35.5 36.5 52.5 q23.5 17 58.5 17 q32 0 52.5 -14.5 q20.5 -14.5 30 -37 q9.5 -22.5 9.5 -46.5 q0 -78 -32 -144.5 q-32 -66.5 -84 -136.5 q-7 -9 -13.5 -18 q-6.5 -9 -12.5 -19 l0 -186 q0 -37 13.5 -57 q13.5 -20 43.5 -20 q22 0 42 12 q20 12 43 35 l30 -40 q-23 -21 -52 -40 q-29 -19 -71 -19 ZM270 386 q5 7 8.5 13 q3.5 6 8.5 12 q29 49 50.5 99 q21.5 50 21.5 95 q0 20 -10.5 38 q-10.5 18 -30.5 18 q-21 0 -34.5 -23 q-13.5 -23 -13.5 -87 l0 -165 Z" /><glyph glyph-name="daggerdbl" unicode="&#x2021;" d="M183 720 l0 -121 l115 0 l0 -40 l-115 0 l0 -231 l115 0 l0 -40 l-115 0 l0 -121 l-48 0 l0 121 l-115 0 l0 40 l115 0 l0 231 l-115 0 l0 40 l115 0 l0 121 l48 0 Z" /><glyph glyph-name="estimated" unicode="&#x212e;" d="M452 -5 q-96 0 -170.5 28.5 q-74.5 28.5 -126 77.5 q-51.5 49 -78 113 q-26.5 64 -26.5 134 q0 71 27 137 q27 66 79 118.5 q52 52.5 126 83 q74 30.5 167 30.5 q116 0 194 -33.5 q78 -33.5 123.5 -89.5 q45.5 -56 65 -123.5 q19.5 -67.5 19.5 -136.5 l-649 0 q-5 0 -5 -6 l0 -173 q0 -7 1.5 -16 q1.5 -9 5.5 -14 q83 -98 244 -98 q86 0 148 29.5 q62 29.5 114 78.5 l72 0 q-40 -47 -85 -78.5 q-45 -31.5 -104 -46.5 q-59 -15 -142 -15 ZM203 366 l497 0 q5 0 5 6 l0 190 q0 14 -10 26 q-35 41 -79.5 62 q-44.5 21 -88.5 28.5 q-44 7.5 -80 7.5 q-58 0 -122 -21 q-64 -21 -118 -75 q-9 -9 -9 -27 l0 -191 q0 -6 5 -6 Z" /><glyph glyph-name="uni2116" unicode="&#x2116;" d="M903 413 q-44 0 -76 19 q-32 19 -49.5 53 q-17.5 34 -17.5 81 q0 46 17.5 80 q17.5 34 49.5 52.5 q32 18.5 76 18.5 q44 0 76.5 -18.5 q32.5 -18.5 50.5 -52.5 q18 -34 18 -80 q0 -47 -18 -81 q-18 -34 -50.5 -53 q-32.5 -19 -76.5 -19 ZM903 459 q44 0 65 27.5 q21 27.5 21 79.5 q0 49 -21 77 q-21 28 -65 28 q-42 0 -63.5 -28 q-21.5 -28 -21.5 -77 q0 -52 21.5 -79.5 q21.5 -27.5 63.5 -27.5 ZM769 242 l0 52 l274 0 l0 -52 l-274 0 ZM93 0 l0 712 l48 0 l474 -638 l-23 -2 l0 640 l58 0 l0 -712 l-48 0 l-474 637 l22 3 l0 -640 l-57 0 Z" /><glyph glyph-name="uni02BC" unicode="&#x2bc;" d="M191 759 l0 -56 q0 -35 -10 -66.5 q-10 -31.5 -39 -59.5 l-32 25 q24 25 30 47 q6 22 6 46 l21 -10 l-61 0 l0 74 l85 0 Z" /><glyph glyph-name="uni02BB" unicode="&#x2bb;" d="M109 585 l0 56 q0 36 10 67 q10 31 39 60 l32 -26 q-24 -25 -30 -46.5 q-6 -21.5 -6 -47.5 l-21 11 l61 0 l0 -74 l-85 0 Z" /><glyph glyph-name="uni02C9" unicode="&#x2c9;" d="M2 632 l0 52 l299 0 l0 -52 l-299 0 Z" /><glyph glyph-name="uni02CB" unicode="&#x2cb;" d="M128 556 l-132 203 l78 0 l101 -203 l-47 0 Z" /><glyph glyph-name="uni02BF" unicode="&#x2bf;" d="M152 755 l0 -45 q-23 0 -37 -15 q-14 -15 -14 -36 q0 -23 14 -38 q14 -15 37 -15 l0 -45 q-42 0 -70.5 28 q-28.5 28 -28.5 70 q0 40 28.5 68 q28.5 28 70.5 28 Z" /><glyph glyph-name="uni02BE" unicode="&#x2be;" d="M152 755 q27 0 49.5 -12.5 q22.5 -12.5 35.5 -34.5 q13 -22 13 -50 q0 -41 -28.5 -69 q-28.5 -28 -69.5 -28 l0 45 q22 0 36 15 q14 15 14 37 q0 22 -14 37 q-14 15 -36 15 l0 45 Z" /><glyph glyph-name="uni02CA" unicode="&#x2ca;" d="M175 556 l-47 0 l101 203 l78 0 l-132 -203 Z" /><glyph glyph-name="uni02CC" unicode="&#x2cc;" d="M126 -273 l0 201 l51 0 l0 -201 l-51 0 Z" /><glyph glyph-name="uni02C8" unicode="&#x2c8;" d="M126 556 l0 201 l51 0 l0 -201 l-51 0 Z" /><glyph glyph-name="uni0308" unicode="&#x308;" d="M198 694 l75 0 l0 -73 l-75 0 l0 73 ZM30 694 l75 0 l0 -73 l-75 0 l0 73 Z" /><glyph glyph-name="uni0307" unicode="&#x307;" d="M111 697 l81 0 l0 -78 l-81 0 l0 78 Z" /><glyph glyph-name="gravecomb" unicode="&#x300;" d="M128 556 l-132 203 l78 0 l101 -203 l-47 0 Z" /><glyph glyph-name="acutecomb" unicode="&#x301;" d="M175 556 l-47 0 l101 203 l78 0 l-132 -203 Z" /><glyph glyph-name="uni030B" unicode="&#x30b;" d="M110 556 l-34 0 l49 203 l65 0 l-80 -203 ZM227 556 l-34 0 l48 203 l66 0 l-80 -203 Z" /><glyph glyph-name="uni0302" unicode="&#x302;" d="M75 556 l-63 0 l116 203 l47 0 l116 -203 l-63 0 l-76 152 l-77 -152 Z" /><glyph glyph-name="uni030C" unicode="&#x30c;" d="M228 759 l63 0 l-116 -203 l-47 0 l-116 203 l63 0 l77 -153 l76 153 Z" /><glyph glyph-name="uni0306" unicode="&#x306;" d="M152 589 q-33 0 -64 11.5 q-31 11.5 -56 38.5 q-25 27 -41 72 l46 19 q24 -51 52 -71.5 q28 -20.5 63 -20.5 q34 0 62 20.5 q28 20.5 52 71.5 l46 -19 q-15 -45 -40 -72 q-25 -27 -56.5 -38.5 q-31.5 -11.5 -63.5 -11.5 Z" /><glyph glyph-name="uni030A" unicode="&#x30a;" d="M152 560 q-42 0 -70.5 27.5 q-28.5 27.5 -28.5 69.5 q0 41 28.5 69.5 q28.5 28.5 70.5 28.5 q27 0 49.5 -13 q22.5 -13 35.5 -35 q13 -22 13 -50 q0 -42 -28.5 -69.5 q-28.5 -27.5 -69.5 -27.5 ZM152 605 q22 0 36 15 q14 15 14 37 q0 22 -14 37 q-14 15 -36 15 q-23 0 -37 -15 q-14 -15 -14 -36 q0 -23 14 -38 q14 -15 37 -15 Z" /><glyph glyph-name="tildecomb" unicode="&#x303;" d="M-7 607 q0 49 22.5 77.5 q22.5 28.5 61.5 28.5 q29 0 55 -15 q26 -15 49 -29.5 q23 -14.5 42 -14.5 q24 0 36 17.5 q12 17.5 12 38.5 l39 0 q0 -49 -22.5 -77.5 q-22.5 -28.5 -61.5 -28.5 q-29 0 -55 15 q-26 15 -49 30 q-23 15 -42 15 q-24 0 -36 -18 q-12 -18 -12 -39 l-39 0 Z" /><glyph glyph-name="uni0304" unicode="&#x304;" d="M2 632 l0 52 l299 0 l0 -52 l-299 0 Z" /><glyph glyph-name="hookabovecomb" unicode="&#x309;" d="M177 572 l0 -16 l-47 0 l0 29 q0 20 10 35 q10 15 23 26.5 q13 11.5 23 22.5 q10 11 10 23 q0 12 -11.5 18.5 q-11.5 6.5 -31.5 6.5 q-15 0 -29.5 -2.5 q-14.5 -2.5 -32.5 -8.5 l-13 39 q19 9 39.5 13.5 q20.5 4.5 39.5 4.5 q45 0 70 -19 q25 -19 25 -48 q0 -25 -11 -40 q-11 -15 -26 -26 q-15 -11 -26.5 -24 q-11.5 -13 -11.5 -34 Z" /><glyph glyph-name="uni030F" unicode="&#x30f;" d="M193 556 l-80 203 l65 0 l49 -203 l-34 0 ZM76 556 l-80 203 l66 0 l48 -203 l-34 0 Z" /><glyph glyph-name="uni0311" unicode="&#x311;" d="M152 729 q32 0 63 -12 q31 -12 56 -39 q25 -27 41 -71 l-46 -19 q-24 52 -52 72 q-28 20 -62 20 q-35 0 -63 -20 q-28 -20 -52 -72 l-46 18 q15 45 40 72 q25 27 56.5 39 q31.5 12 64.5 12 Z" /><glyph glyph-name="uni0312" unicode="&#x312;" d="M109 585 l0 56 q0 36 10 67 q10 31 39 60 l32 -26 q-24 -25 -30 -46.5 q-6 -21.5 -6 -47.5 l-21 11 l61 0 l0 -74 l-85 0 Z" /><glyph glyph-name="uni031B" unicode="&#x31b;" d="M179 450 l-29 22 l0 23 q46 1 71.5 13.5 q25.5 12.5 35.5 37.5 q10 25 10 63 l0 13 l56 0 l0 -23 q0 -66 -37.5 -105 q-37.5 -39 -106.5 -44 Z" /><glyph glyph-name="dotbelowcomb" unicode="&#x323;" d="M112 -103 l79 0 l0 -76 l-79 0 l0 76 Z" /><glyph glyph-name="uni0324" unicode="&#x324;" d="M198 -104 l75 0 l0 -74 l-75 0 l0 74 ZM30 -104 l75 0 l0 -74 l-75 0 l0 74 Z" /><glyph glyph-name="uni0326" unicode="&#x326;" d="M194 -75 l0 -56 q0 -36 -10 -67 q-10 -31 -40 -59 l-31 25 q23 25 29.5 47 q6.5 22 6.5 46 l20 -10 l-60 0 l0 74 l85 0 Z" /><glyph glyph-name="uni0327" unicode="&#x327;" d="M158 -193 q-20 0 -44.5 4 q-24.5 4 -43.5 15 l14 39 q20 -8 38 -11 q18 -3 37 -3 q30 0 44 10.5 q14 10.5 14 27.5 q0 29 -35 29 q-14 0 -26 -3 q-12 -3 -23 -7 l-20 15 l11 97 l49 0 l-7 -72 l-21 0 q13 6 25 8.5 q12 2.5 24 2.5 q26 0 50.5 -16.5 q24.5 -16.5 24.5 -53.5 q0 -35 -29 -58.5 q-29 -23.5 -82 -23.5 Z" /><glyph glyph-name="uni0328" unicode="&#x328;" d="M121 -193 q-51 0 -83 29.5 q-32 29.5 -32 74.5 q0 49 34.5 84.5 q34.5 35.5 98.5 45.5 l13 -31 q-48 -9 -70 -34 q-22 -25 -22 -58 q0 -32 19 -48.5 q19 -16.5 49 -16.5 q12 0 28 4.5 q16 4.5 31 13.5 l17 -41 q-15 -10 -36 -16.5 q-21 -6.5 -47 -6.5 Z" /><glyph glyph-name="uni032E" unicode="&#x32e;" d="M152 -208 q-33 0 -64 12 q-31 12 -56 38.5 q-25 26.5 -41 70.5 l46 20 q24 -51 52 -71.5 q28 -20.5 63 -20.5 q34 0 62 20.5 q28 20.5 52 71.5 l46 -19 q-15 -44 -40 -71 q-25 -27 -56.5 -39 q-31.5 -12 -63.5 -12 Z" /><glyph glyph-name="uni0331" unicode="&#x331;" d="M2 -167 l0 52 l299 0 l0 -52 l-299 0 Z" /><glyph glyph-name="uni0335" unicode="&#x335;" d="M2 224 l0 47 l299 0 l0 -47 l-299 0 Z" /><glyph glyph-name=".null" unicode="" d="" /></font>
</defs>
</svg>
