<?xml version="1.0" standalone="no"?><!DOCTYPE svg PUBLIC "-//W3C//DTD SVG 1.1//EN" "http://www.w3.org/Graphics/SVG/1.1/DTD/svg11.dtd" ><svg xmlns="http://www.w3.org/2000/svg"><metadata></metadata><defs><font id="2.100;NONE;Muli-Regular" horiz-adv-x="1340"><font-face font-family="Muli SemiBold" font-weight="600" font-stretch="normal" units-per-em="1000" panose-1="0 0 0 0 0 0 0 0 0 0" ascent="1005" descent="-250" x-height="0" bbox="-205 -273 1302 1089" underline-thickness="50" underline-position="-100" unicode-range="U+0000-fb02" /><missing-glyph horiz-adv-x="500" d="M50 -216 l400 0 l0 952 l-400 0 l0 -952 ZM100 -166 l0 852 l300 0 l0 -852 l-300 0 Z" /><glyph glyph-name="A" unicode="a" d="M115 0 l-105 0 l317 712 l87 0 l317 -712 l-104 0 l-271 634 l32 0 l-273 -634 ZM147 176 l38 82 l369 0 l37 -82 l-444 0 Z" /><glyph glyph-name="Aogonek" unicode="&#x104;" d="M147 176 l38 82 l369 0 l37 -82 l-444 0 ZM740 -119 l17 -55 q-19 -10 -42 -16 q-23 -6 -48 -6 q-54 0 -88 30 q-34 30 -34 77 q0 43 27 76.5 q27 33.5 77 48.5 l-22 -36 l-271 634 l32 0 l-273 -634 l-105 0 l317 712 l87 0 l317 -712 l-28 0 q-42 0 -63.5 -22 q-21.5 -22 -21.5 -53 q0 -29 17.5 -44.5 q17.5 -15.5 47.5 -15.5 q13 0 27.5 4 q14.5 4 29.5 12 Z" /><glyph glyph-name="Aring" unicode="å" d="M371 680 q-44 0 -74 29 q-30 29 -30 73 q0 43 30 73 q30 30 74 30 q43 0 74 -30 q31 -30 31 -73 q0 -44 -31 -73 q-31 -29 -74 -29 ZM371 733 q21 0 34 14 q13 14 13 35 q0 21 -13 35 q-13 14 -34 14 q-21 0 -34 -14 q-13 -14 -13 -35 q0 -21 13 -35 q13 -14 34 -14 ZM115 0 l-105 0 l317 712 l87 0 l317 -712 l-104 0 l-271 634 l32 0 l-273 -634 ZM147 176 l38 82 l369 0 l37 -82 l-444 0 Z" /><glyph glyph-name="Aringacute" unicode="&#x1fa;" d="M10 0 l317 712 l87 0 l317 -712 l-104 0 l-271 634 l32 0 l-273 -634 l-105 0 ZM147 176 l38 82 l369 0 l37 -82 l-444 0 ZM371 680 q-44 0 -74 29 q-30 29 -30 73 q0 43 30 73 q30 30 74 30 q43 0 74 -30 q31 -30 31 -73 q0 -44 -31 -73 q-31 -29 -74 -29 ZM371 733 q21 0 34 14 q13 14 13 35 q0 21 -13 35 q-13 14 -34 14 q-21 0 -34 -14 q-13 -14 -13 -35 q0 -21 13 -35 q13 -14 34 -14 ZM453 824 l-47 31 l92 96 l106 0 l-151 -127 Z" /><glyph glyph-name="AE" unicode="æ" d="M-10 0 l437 712 l530 0 l0 -84 l-502 0 l28 14 l-381 -642 l-112 0 ZM142 176 l38 82 l381 0 l21 -82 l-440 0 ZM556 0 l-55 666 l93 0 l50 -582 l313 0 l0 -84 l-401 0 ZM568 320 l0 84 l369 0 l0 -84 l-369 0 Z" /><glyph glyph-name="B" unicode="b" d="M83 0 l0 712 l298 0 q109 0 171 -49 q62 -49 62 -137 q0 -61 -33.5 -103.5 q-33.5 -42.5 -92.5 -60.5 l0 8 q68 -14 106 -60 q38 -46 38 -116 q0 -93 -63.5 -143.5 q-63.5 -50.5 -177.5 -50.5 l-308 0 ZM185 83 l196 0 q78 0 114.5 28 q36.5 28 36.5 89 q0 60 -37 90 q-37 30 -114 30 l-196 0 l0 -237 ZM185 403 l179 0 q76 0 113 29 q37 29 37 86 q0 56 -37 83.5 q-37 27.5 -113 27.5 l-179 0 l0 -226 Z" /><glyph glyph-name="C" unicode="c" d="M396 -8 q-104 0 -180 44 q-76 44 -116.5 126.5 q-40.5 82.5 -40.5 194.5 q0 112 40.5 193.5 q40.5 81.5 116.5 125.5 q76 44 180 44 q72 0 134.5 -22 q62.5 -22 106.5 -65 l-36 -77 q-50 41 -98.5 59.5 q-48.5 18.5 -105.5 18.5 q-110 0 -171 -71.5 q-61 -71.5 -61 -205.5 q0 -134 60.5 -206.5 q60.5 -72.5 171.5 -72.5 q57 0 105.5 18.5 q48.5 18.5 98.5 59.5 l36 -77 q-44 -43 -106.5 -65 q-62.5 -22 -134.5 -22 Z" /><glyph glyph-name="D" unicode="d" d="M83 0 l0 712 l250 0 q115 0 196 -41.5 q81 -41.5 123.5 -121 q42.5 -79.5 42.5 -192.5 q0 -114 -43 -193.5 q-43 -79.5 -124 -121.5 q-81 -42 -195 -42 l-250 0 ZM186 86 l140 0 q131 0 197 68 q66 68 66 203 q0 269 -263 269 l-140 0 l0 -540 Z" /><glyph glyph-name="Eth" unicode="ð" d="M10 320 l0 81 l387 0 l0 -81 l-387 0 ZM101 0 l0 712 l250 0 q114 0 195 -41.5 q81 -41.5 124 -121 q43 -79.5 43 -192.5 q0 -114 -42.5 -193.5 q-42.5 -79.5 -123.5 -121.5 q-81 -42 -196 -42 l-250 0 ZM205 86 l140 0 q131 0 196.5 68 q65.5 68 65.5 203 q0 269 -262 269 l-140 0 l0 -540 Z" /><glyph glyph-name="E" unicode="e" d="M83 0 l0 712 l462 0 l0 -83 l-360 0 l0 -225 l340 0 l0 -84 l-340 0 l0 -237 l360 0 l0 -83 l-462 0 Z" /><glyph glyph-name="Eogonek" unicode="&#x118;" d="M564 -119 l17 -55 q-19 -10 -42 -16 q-23 -6 -49 -6 q-54 0 -87.5 30.5 q-33.5 30.5 -33.5 76.5 q0 71 68 108 l17 -19 l-371 0 l0 712 l462 0 l0 -83 l-360 0 l0 -225 l340 0 l0 -84 l-340 0 l0 -237 l360 0 l0 -83 l-17 0 q-42 0 -64 -21 q-22 -21 -22 -54 q0 -29 17.5 -44.5 q17.5 -15.5 47.5 -15.5 q12 0 26.5 4 q14.5 4 30.5 12 Z" /><glyph glyph-name="F" unicode="f" d="M83 0 l0 712 l452 0 l0 -85 l-350 0 l0 -223 l330 0 l0 -85 l-330 0 l0 -319 l-102 0 Z" /><glyph glyph-name="G" unicode="g" d="M407 -8 q-109 0 -187 43.5 q-78 43.5 -119.5 125 q-41.5 81.5 -41.5 196.5 q0 113 41.5 195 q41.5 82 118.5 125 q77 43 182 43 q75 0 138.5 -22 q63.5 -22 108.5 -65 l-37 -77 q-52 42 -101 60.5 q-49 18.5 -108 18.5 q-116 0 -176.5 -71 q-60.5 -71 -60.5 -207 q0 -139 62.5 -210.5 q62.5 -71.5 183.5 -71.5 q48 0 94 9 q46 9 85 24 l-24 -45 l0 237 l-166 0 l0 77 l260 0 l0 -335 q-30 -16 -71.5 -27 q-41.5 -11 -88 -17 q-46.5 -6 -93.5 -6 Z" /><glyph glyph-name="H" unicode="h" d="M584 0 l0 712 l102 0 l0 -712 l-102 0 ZM83 0 l0 712 l102 0 l0 -712 l-102 0 ZM125 319 l0 85 l518 0 l0 -85 l-518 0 Z" /><glyph glyph-name="Hbar" unicode="&#x126;" d="M10 522 l0 80 l786 0 l0 -80 l-786 0 ZM602 0 l0 712 l103 0 l0 -712 l-103 0 ZM101 0 l0 712 l103 0 l0 -712 l-103 0 ZM143 319 l0 85 l508 0 l0 -85 l-508 0 Z" /><glyph glyph-name="I" unicode="i" d="M83 0 l0 712 l103 0 l0 -712 l-103 0 Z" /><glyph glyph-name="Iogonek" unicode="&#x12e;" d="M137 -196 q-53 0 -87.5 30 q-34.5 30 -34.5 79 q0 42 29 76 q29 34 85 49 l-16 -38 l-30 0 l0 712 l103 0 l0 -712 l-9 0 q-42 0 -65 -22 q-23 -22 -23 -53 q0 -29 17.5 -44.5 q17.5 -15.5 46.5 -15.5 q12 0 27 4 q15 4 31 12 l16 -55 q-18 -10 -41 -16 q-23 -6 -49 -6 Z" /><glyph glyph-name="J" unicode="j" d="M-4 -178 l0 87 q63 -11 98 -6 q35 5 49 32.5 q14 27.5 14 83.5 l0 693 l103 0 l0 -693 q0 -85 -25 -134 q-25 -49 -83 -64 q-58 -15 -156 1 Z" /><glyph glyph-name="K" unicode="k" d="M537 0 l-378 363 l363 349 l128 0 l-395 -378 l6 61 l406 -395 l-130 0 ZM83 0 l0 712 l103 0 l0 -712 l-103 0 Z" /><glyph glyph-name="L" unicode="l" d="M83 0 l0 712 l103 0 l0 -626 l346 0 l0 -86 l-449 0 Z" /><glyph glyph-name="uni01C7" unicode="&#x1c7;" d="M83 0 l0 712 l103 0 l0 -626 l316 0 l0 -86 l-419 0 ZM479 -178 l0 87 q62 -11 97.5 -6 q35.5 5 49.5 32.5 q14 27.5 14 83.5 l0 693 l104 0 l0 -693 q0 -85 -25 -134 q-25 -49 -83.5 -64 q-58.5 -15 -156.5 1 Z" /><glyph glyph-name="Lslash" unicode="&#x141;" d="M9 231 l0 93 l384 221 l0 -93 l-384 -221 ZM101 0 l0 712 l104 0 l0 -626 l346 0 l0 -86 l-450 0 Z" /><glyph glyph-name="M" unicode="m" d="M84 0 l0 712 l84 0 l280 -637 l-43 0 l277 637 l84 0 l0 -712 l-94 0 l0 569 l32 -6 l-244 -563 l-70 0 l-248 563 l34 6 l1 -569 l-93 0 Z" /><glyph glyph-name="N" unicode="n" d="M83 0 l0 712 l78 0 l434 -572 l-25 -10 l0 582 l97 0 l0 -712 l-79 0 l-432 571 l24 11 l0 -582 l-97 0 Z" /><glyph glyph-name="Eng" unicode="&#x14a;" d="M570 712 l97 0 l0 -703 q0 -87 -45.5 -137 q-45.5 -50 -141.5 -56 l-74 -5 l-6 82 l64 4 q51 4 78 31 q27 27 27 76 l0 59 l17 -60 l-430 568 l24 11 l0 -582 l-97 0 l0 712 l78 0 l434 -572 l-25 -10 l0 582 Z" /><glyph glyph-name="O" unicode="o" d="M389 -8 q-102 0 -176 44 q-74 44 -114 126 q-40 82 -40 194 q0 113 40 194.5 q40 81.5 114 125.5 q74 44 176 44 q102 0 176.5 -44 q74.5 -44 114.5 -125.5 q40 -81.5 40 -193.5 q0 -113 -40.5 -195 q-40.5 -82 -114.5 -126 q-74 -44 -176 -44 ZM389 76 q106 0 166 72.5 q60 72.5 60 208.5 q0 136 -60 207.5 q-60 71.5 -166 71.5 q-106 0 -166 -72 q-60 -72 -60 -207 q0 -135 60 -208 q60 -73 166 -73 Z" /><glyph glyph-name="Ohorn" unicode="&#x1a0;" d="M389 -8 q-102 0 -176 44 q-74 44 -114 126 q-40 82 -40 194 q0 113 40 194.5 q40 81.5 114.5 125.5 q74.5 44 178.5 44 q36 0 69.5 -4 q33.5 -4 64.5 -4 q57 1 80.5 25.5 q23.5 24.5 23.5 83.5 l0 16 l90 0 l0 -30 q0 -46 -19.5 -80.5 q-19.5 -34.5 -54 -53.5 q-34.5 -19 -81.5 -19 l4 17 q74 -44 112.5 -124 q38.5 -80 38.5 -190 q0 -113 -40.5 -195 q-40.5 -82 -114.5 -126 q-74 -44 -176 -44 ZM389 76 q106 0 166 72.5 q60 72.5 60 208.5 q0 136 -60 207.5 q-60 71.5 -166 71.5 q-106 0 -166 -72 q-60 -72 -60 -207 q0 -135 60 -208 q60 -73 166 -73 Z" /><glyph glyph-name="uni01EA" unicode="&#x1ea;" d="M490 4 q-71 -20 -71 -79 q0 -29 17 -44.5 q17 -15.5 48 -15.5 q13 0 27 4 q14 4 30 12 l16 -55 q-39 -22 -90 -22 q-53 0 -87.5 30.5 q-34.5 30.5 -34.5 76.5 q0 31 15 57.5 q15 26.5 41 42.5 l10 -19 q-107 -6 -186.5 37.5 q-79.5 43.5 -122.5 127 q-43 83.5 -43 199.5 q0 113 40 194.5 q40 81.5 114 125.5 q74 44 176 44 q102 0 176 -44 q74 -44 114.5 -125.5 q40.5 -81.5 40.5 -193.5 q0 -138 -60 -230 q-60 -92 -170 -123 ZM163 357 q0 -135 60 -208 q60 -73 166 -73 q106 0 166 72.5 q60 72.5 60 208.5 q0 136 -60 207.5 q-60 71.5 -166 71.5 q-106 0 -166 -72 q-60 -72 -60 -207 Z" /><glyph glyph-name="Oslash" unicode="ø" d="M389 -8 q-102 0 -176 44 q-74 44 -114 126 q-40 82 -40 194 q0 113 40 194.5 q40 81.5 114 125.5 q74 44 176 44 q102 0 176.5 -44 q74.5 -44 114.5 -125.5 q40 -81.5 40 -193.5 q0 -113 -40.5 -195 q-40.5 -82 -114.5 -126 q-74 -44 -176 -44 ZM197 -53 l-69 41 l453 777 l69 -41 l-453 -777 ZM389 76 q106 0 166 72.5 q60 72.5 60 208.5 q0 136 -60 207.5 q-60 71.5 -166 71.5 q-106 0 -166 -72 q-60 -72 -60 -207 q0 -135 60 -208 q60 -73 166 -73 Z" /><glyph glyph-name="OE" unicode="&#x152;" d="M552 0 l0 72 l-4 26 l0 524 l4 17 l0 73 l457 0 l0 -83 l-360 0 l0 -225 l340 0 l0 -84 l-340 0 l0 -237 l360 0 l0 -83 l-457 0 ZM572 560 q-29 37 -75.5 56.5 q-46.5 19.5 -107.5 19.5 q-108 0 -167 -73.5 q-59 -73.5 -59 -205.5 q0 -134 59.5 -207.5 q59.5 -73.5 166.5 -73.5 q124 0 183 77 l0 -91 q-68 -70 -192 -70 q-97 0 -169.5 45 q-72.5 45 -112 127 q-39.5 82 -39.5 192 q0 111 39.5 192.5 q39.5 81.5 112 126.5 q72.5 45 169.5 45 q123 0 192 -67 l0 -93 Z" /><glyph glyph-name="P" unicode="p" d="M83 0 l0 712 l295 0 q113 0 175.5 -54 q62.5 -54 62.5 -149 q0 -93 -63 -148 q-63 -55 -175 -55 l-192 0 l0 -306 l-103 0 ZM186 388 l182 0 q74 0 111 31.5 q37 31.5 37 89.5 q0 58 -37 89 q-37 31 -111 31 l-182 0 l0 -241 Z" /><glyph glyph-name="Thorn" unicode="þ" d="M170 165 l0 83 l200 0 q75 0 110.5 28 q35.5 28 35.5 87 q0 58 -35.5 85.5 q-35.5 27.5 -110.5 27.5 l-200 0 l0 83 l213 0 q111 0 172 -51.5 q61 -51.5 61 -144.5 q0 -94 -61.5 -146 q-61.5 -52 -171.5 -52 l-213 0 ZM83 0 l0 712 l102 0 l0 -712 l-102 0 Z" /><glyph glyph-name="Q" unicode="q" d="M582 -191 q-46 33 -88.5 83.5 q-42.5 50.5 -73.5 103.5 l96 35 q26 -51 62 -90 q36 -39 75 -72 l-71 -60 ZM389 -8 q-102 0 -176 44 q-74 44 -114 126 q-40 82 -40 194 q0 113 40 194.5 q40 81.5 114 125.5 q74 44 176 44 q102 0 176.5 -44 q74.5 -44 114.5 -125.5 q40 -81.5 40 -193.5 q0 -113 -40.5 -195 q-40.5 -82 -114.5 -126 q-74 -44 -176 -44 ZM389 76 q106 0 166 72.5 q60 72.5 60 208.5 q0 136 -60 207.5 q-60 71.5 -166 71.5 q-106 0 -166 -72 q-60 -72 -60 -207 q0 -135 60 -208 q60 -73 166 -73 Z" /><glyph glyph-name="R" unicode="r" d="M83 0 l0 712 l293 0 q118 0 180 -52 q62 -52 62 -149 q0 -93 -63.5 -147 q-63.5 -54 -177.5 -54 l76 15 q38 0 66.5 -21.5 q28.5 -21.5 45.5 -68.5 l89 -235 l-109 0 l-89 237 q-15 40 -43 53.5 q-28 13.5 -72 13.5 l-156 0 l0 -304 l-102 0 ZM185 387 l179 0 q79 0 116.5 30.5 q37.5 30.5 37.5 91.5 q0 61 -37 90.5 q-37 29.5 -117 29.5 l-179 0 l0 -242 Z" /><glyph glyph-name="S" unicode="s" d="M316 -8 q-55 0 -104 9.5 q-49 9.5 -91 29.5 q-42 20 -75 48 l36 77 q54 -42 109.5 -61 q55.5 -19 125.5 -19 q80 0 124 30.5 q44 30.5 44 84.5 q0 33 -21 54 q-21 21 -59.5 34 q-38.5 13 -90.5 25 q-56 12 -103 27.5 q-47 15.5 -81 38.5 q-34 23 -52.5 57 q-18.5 34 -18.5 83 q0 61 33 109 q33 48 92.5 74.5 q59.5 26.5 140.5 26.5 q50 0 96 -10 q46 -10 85 -29.5 q39 -19.5 69 -47.5 l-38 -77 q-48 41 -100 60.5 q-52 19.5 -111 19.5 q-77 0 -121 -32 q-44 -32 -44 -89 q0 -35 19 -56.5 q19 -21.5 55.5 -35.5 q36.5 -14 87.5 -26 q57 -13 105 -28.5 q48 -15.5 84 -37 q36 -21.5 56 -54 q20 -32.5 20 -80.5 q0 -62 -33 -108 q-33 -46 -94 -71.5 q-61 -25.5 -145 -25.5 Z" /><glyph glyph-name="uni1E9E" unicode="&#x1e9e;" d="M83 0 l0 457 q0 128 71 195 q71 67 206 67 q73 0 126.5 -24 q53.5 -24 83 -67 q29.5 -43 29.5 -102 q0 -62 -33.5 -105 q-33.5 -43 -92.5 -58 l4 12 q82 -11 126.5 -58 q44.5 -47 44.5 -121 q0 -59 -28 -104.5 q-28 -45.5 -78 -72 q-50 -26.5 -115 -26.5 q-55 0 -101.5 15.5 q-46.5 15.5 -84.5 47.5 l32 77 q41 -30 76.5 -44 q35.5 -14 71.5 -13 q60 0 93.5 33 q33.5 33 33.5 91 q0 60 -39 89.5 q-39 29.5 -120 29.5 l-121 0 l0 84 l93 0 q67 0 102.5 30 q35.5 30 35.5 86 q0 54 -37.5 84.5 q-37.5 30.5 -103.5 30.5 q-86 0 -129.5 -44.5 q-43.5 -44.5 -43.5 -134.5 l0 -455 l-102 0 Z" /><glyph glyph-name="uni018F" unicode="&#x18f;" d="M384 -8 q-101 0 -174 43 q-73 43 -112 124.5 q-39 81.5 -39 196.5 l0 47 l579 0 l0 -84 l-502 0 l27 38 q-1 -135 56.5 -208 q57.5 -73 161.5 -73 q102 0 157.5 73 q55.5 73 55.5 208 q0 134 -62.5 206 q-62.5 72 -178.5 72 q-62 0 -116.5 -19.5 q-54.5 -19.5 -102.5 -59.5 l-37 77 q31 27 72.5 47 q41.5 20 89 30 q47.5 10 96.5 10 q105 0 182 -44 q77 -44 119 -125 q42 -81 42 -194 q0 -111 -38.5 -193 q-38.5 -82 -109.5 -127 q-71 -45 -166 -45 Z" /><glyph glyph-name="T" unicode="t" d="M253 0 l0 626 l-241 0 l0 86 l586 0 l0 -86 l-241 0 l0 -626 l-104 0 Z" /><glyph glyph-name="Tbar" unicode="&#x166;" d="M111 320 l0 81 l388 0 l0 -81 l-388 0 ZM253 0 l0 626 l-241 0 l0 86 l586 0 l0 -86 l-241 0 l0 -626 l-104 0 Z" /><glyph glyph-name="U" unicode="u" d="M368 -8 q-142 0 -215.5 73.5 q-73.5 73.5 -73.5 217.5 l0 429 l101 0 l0 -436 q0 -99 47.5 -149.5 q47.5 -50.5 140.5 -50.5 q91 0 138.5 51 q47.5 51 47.5 149 l0 436 l103 0 l0 -429 q0 -143 -74 -217 q-74 -74 -215 -74 Z" /><glyph glyph-name="Uhorn" unicode="&#x1af;" d="M685 837 l89 0 l0 -30 q0 -69 -40.5 -109.5 q-40.5 -40.5 -111.5 -42.5 l35 36 l0 -408 q0 -143 -74 -217 q-74 -74 -215 -74 q-142 0 -215.5 73.5 q-73.5 73.5 -73.5 217.5 l0 429 l101 0 l0 -436 q0 -99 47.5 -149.5 q47.5 -50.5 140.5 -50.5 q91 0 138.5 51 q47.5 51 47.5 149 l0 436 l30 0 q55 1 78 25 q23 24 23 84 l0 16 Z" /><glyph glyph-name="Uogonek" unicode="&#x172;" d="M554 712 l103 0 l0 -429 q0 -112 -45 -182 q-45 -70 -134 -95 q-38 -12 -56.5 -32 q-18.5 -20 -18.5 -49 q0 -29 17 -44.5 q17 -15.5 47 -15.5 q14 0 28.5 4 q14.5 4 29.5 12 l16 -55 q-39 -22 -90 -22 q-53 0 -87 30.5 q-34 30.5 -34 76.5 q0 33 17 59 q17 26 49 41 l11 -19 l-39 0 q-142 0 -215.5 73.5 q-73.5 73.5 -73.5 217.5 l0 429 l101 0 l0 -436 q0 -99 47.5 -149.5 q47.5 -50.5 140.5 -50.5 q91 0 138.5 51 q47.5 51 47.5 149 l0 436 Z" /><glyph glyph-name="V" unicode="v" d="M311 0 l-314 712 l109 0 l267 -624 l-36 0 l269 624 l106 0 l-314 -712 l-87 0 Z" /><glyph glyph-name="W" unicode="w" d="M280 0 l-251 712 l105 0 l208 -616 l-34 0 l214 616 l76 -1 l210 -615 l-32 0 l210 616 l100 0 l-250 -712 l-86 0 l-203 583 l23 0 l-205 -583 l-85 0 Z" /><glyph glyph-name="X" unicode="x" d="M122 0 l-122 0 l271 364 l60 76 l197 272 l122 0 l-261 -349 l-59 -77 l-208 -286 ZM539 0 l-209 286 l-59 78 l-259 348 l121 0 l198 -272 l58 -77 l271 -363 l-121 0 Z" /><glyph glyph-name="Y" unicode="y" d="M256 0 l0 320 l23 -67 l-306 459 l119 0 l233 -362 l-32 0 l233 362 l118 0 l-305 -459 l21 67 l0 -320 l-104 0 Z" /><glyph glyph-name="Z" unicode="z" d="M47 0 l0 76 l419 594 l-2 -43 l-417 0 l0 85 l507 0 l0 -75 l-420 -595 l2 43 l428 0 l0 -85 l-517 0 Z" /><glyph glyph-name="a" unicode="a" d="M268 -7 q-67 0 -117.5 31.5 q-50.5 31.5 -78 90 q-27.5 58.5 -27.5 137.5 q0 79 28 138.5 q28 59.5 78.5 92.5 q50.5 33 116.5 33 q67 0 114.5 -32.5 q47.5 -32.5 64.5 -92.5 l-12 -8 l0 121 l100 0 l0 -504 l-100 0 l0 123 l12 -5 q-17 -60 -64.5 -92.5 q-47.5 -32.5 -114.5 -32.5 ZM292 73 q68 0 105.5 47 q37.5 47 37.5 134 q0 87 -37.5 134 q-37.5 47 -105.5 47 q-69 0 -107.5 -48.5 q-38.5 -48.5 -38.5 -134.5 q0 -86 38.5 -132.5 q38.5 -46.5 107.5 -46.5 Z" /><glyph glyph-name="aogonek" unicode="&#x105;" d="M535 0 l-6 0 q-41 0 -66.5 -21.5 q-25.5 -21.5 -25.5 -55.5 q0 -30 17.5 -46.5 q17.5 -16.5 49.5 -16.5 q27 0 59 18 l17 -56 q-20 -10 -44 -16 q-24 -6 -49 -6 q-54 0 -88.5 31 q-34.5 31 -34.5 80 q0 46 31.5 80 q31.5 34 86.5 48 l-18 -39 l-29 0 l0 109 l12 9 q-17 -60 -64.5 -92.5 q-47.5 -32.5 -114.5 -32.5 q-68 0 -118 32 q-50 32 -77.5 90 q-27.5 58 -27.5 137 q0 78 28 138 q28 60 78 93 q50 33 117 33 q67 0 114.5 -32.5 q47.5 -32.5 64.5 -92.5 l-12 -8 l0 121 l100 0 l0 -504 ZM292 73 q68 0 105.5 47 q37.5 47 37.5 134 q0 87 -37.5 134 q-37.5 47 -105.5 47 q-69 0 -107.5 -48.5 q-38.5 -48.5 -38.5 -134.5 q0 -86 38.5 -132.5 q38.5 -46.5 107.5 -46.5 Z" /><glyph glyph-name="aringacute" unicode="&#x1fb;" d="M268 -7 q-67 0 -117.5 31.5 q-50.5 31.5 -78 90 q-27.5 58.5 -27.5 137.5 q0 79 28 138.5 q28 59.5 78.5 92.5 q50.5 33 116.5 33 q67 0 114.5 -32.5 q47.5 -32.5 64.5 -92.5 l-12 -8 l0 121 l100 0 l0 -504 l-100 0 l0 123 l12 -5 q-17 -60 -64.5 -92.5 q-47.5 -32.5 -114.5 -32.5 ZM292 73 q68 0 105.5 47 q37.5 47 37.5 134 q0 87 -37.5 134 q-37.5 47 -105.5 47 q-69 0 -107.5 -48.5 q-38.5 -48.5 -38.5 -134.5 q0 -86 38.5 -132.5 q38.5 -46.5 107.5 -46.5 ZM305 571 q-44 0 -75 30 q-31 30 -31 75 q0 43 31 73.5 q31 30.5 75 30.5 q43 0 75 -30.5 q32 -30.5 32 -73.5 q0 -45 -32 -75 q-32 -30 -75 -30 ZM305 625 q21 0 35 15 q14 15 14 36 q0 21 -14 35.5 q-14 14.5 -35 14.5 q-21 0 -34.5 -14.5 q-13.5 -14.5 -13.5 -35.5 q0 -21 13.5 -36 q13.5 -15 34.5 -15 ZM388 718 l-49 24 l95 138 l101 -4 l-147 -158 Z" /><glyph glyph-name="ae" unicode="æ" d="M637 -7 q-112 0 -175 67.5 q-63 67.5 -65 191.5 q-2 78 26.5 137.5 q28.5 59.5 80.5 93 q52 33.5 120 33.5 q65 0 112 -30.5 q47 -30.5 73 -86.5 q26 -56 26 -133 l0 -16 l-369 0 l0 60 l309 0 l-28 -36 q1 81 -31 124 q-32 43 -94 43 q-65 0 -102.5 -48 q-37.5 -48 -37.5 -141 q0 -84 39.5 -131.5 q39.5 -47.5 119.5 -47.5 q39 0 78.5 14.5 q39.5 14.5 76.5 42.5 l30 -72 q-34 -29 -85.5 -47 q-51.5 -18 -103.5 -18 ZM245 -7 q-54 0 -97 20 q-43 20 -67.5 56 q-24.5 36 -25.5 83 q0 56 28 90.5 q28 34.5 92 51 q64 16.5 170 16.5 l48 0 l0 -58 l-43 0 q-73 0 -115.5 -10.5 q-42.5 -10.5 -60.5 -31 q-18 -20.5 -18 -52.5 q0 -41 28.5 -65.5 q28.5 -24.5 71.5 -24.5 q39 0 68 18.5 q29 18.5 44.5 51.5 q15.5 33 15.5 74 l0 110 q0 60 -23.5 87 q-23.5 27 -78.5 27 q-44 0 -88 -13.5 q-44 -13.5 -87 -39.5 l-31 71 q27 19 61.5 33 q34.5 14 73 21.5 q38.5 7.5 72.5 7.5 q97 0 144.5 -49.5 q47.5 -49.5 47.5 -149.5 l0 -127 l-35 -3 q-4 -92 -57 -143 q-53 -51 -138 -51 Z" /><glyph glyph-name="b" unicode="b" d="M73 0 l0 736 l101 0 l0 -357 l-11 12 q17 59 64.5 92 q47.5 33 113.5 33 q67 0 117 -32 q50 -32 78.5 -90 q28.5 -58 28.5 -137 q0 -80 -28.5 -139.5 q-28.5 -59.5 -79 -92 q-50.5 -32.5 -116.5 -32.5 q-66 0 -113.5 32.5 q-47.5 32.5 -64.5 92.5 l11 14 l0 -132 l-101 0 ZM318 73 q68 0 106 48 q38 48 38 136 q0 85 -38 131.5 q-38 46.5 -106 46.5 q-70 0 -107 -47.5 q-37 -47.5 -37 -132.5 q0 -88 37 -135 q37 -47 107 -47 Z" /><glyph glyph-name="c" unicode="c" d="M292 -7 q-76 0 -131.5 32 q-55.5 32 -85.5 90 q-30 58 -30 137 q0 79 31 138.5 q31 59.5 87.5 92.5 q56.5 33 133.5 33 q52 0 101 -17 q49 -17 80 -48 l-31 -73 q-35 28 -70.5 42 q-35.5 14 -72.5 14 q-72 0 -113.5 -47 q-41.5 -47 -41.5 -134 q0 -87 41 -133 q41 -46 114 -46 q36 0 72 14 q36 14 71 42 l31 -73 q-32 -30 -82 -47 q-50 -17 -104 -17 Z" /><glyph glyph-name="d" unicode="d" d="M535 0 l-100 0 l0 132 l12 -14 q-17 -60 -64.5 -92.5 q-47.5 -32.5 -114.5 -32.5 q-66 0 -116.5 32.5 q-50.5 32.5 -78.5 92 q-28 59.5 -28 139.5 q0 79 27.5 137 q27.5 58 78 90 q50.5 32 117.5 32 q67 0 114.5 -33 q47.5 -33 64.5 -92 l-13 -12 l0 357 l101 0 l0 -736 ZM292 73 q68 0 105.5 47 q37.5 47 37.5 135 q0 85 -37.5 132.5 q-37.5 47.5 -105.5 47.5 q-69 0 -107.5 -46.5 q-38.5 -46.5 -38.5 -131.5 q0 -88 38.5 -136 q38.5 -48 107.5 -48 Z" /><glyph glyph-name="eth" unicode="ð" d="M288 -7 q-73 0 -127.5 29.5 q-54.5 29.5 -85 83 q-30.5 53.5 -30.5 125.5 q0 72 29.5 126 q29.5 54 83 83.5 q53.5 29.5 124.5 29.5 q79 0 129 -39.5 q50 -39.5 68 -117.5 l-33 3 q1 95 -34.5 167.5 q-35.5 72.5 -100 120 q-64.5 47.5 -152.5 68.5 l25 73 q88 -20 155 -61 q67 -41 112 -99.5 q45 -58.5 68 -131 q23 -72.5 23 -153.5 q0 -150 -65.5 -228.5 q-65.5 -78.5 -188.5 -78.5 ZM291 73 q67 0 105 42 q38 42 38 116 q0 76 -37.5 117.5 q-37.5 41.5 -105.5 41.5 q-69 0 -107 -41.5 q-38 -41.5 -38 -117.5 q0 -76 37.5 -117 q37.5 -41 107.5 -41 ZM181 514 l-18 58 l358 120 l17 -59 l-357 -119 Z" /><glyph glyph-name="dcaron" unicode="&#x10f;" d="M610 539 l-42 0 l0 197 l69 0 l-27 -197 ZM535 0 l-100 0 l0 132 l12 -14 q-17 -60 -64.5 -92.5 q-47.5 -32.5 -114.5 -32.5 q-66 0 -116.5 32.5 q-50.5 32.5 -78.5 92 q-28 59.5 -28 139.5 q0 79 27.5 137 q27.5 58 78 90 q50.5 32 117.5 32 q67 0 114.5 -33 q47.5 -33 64.5 -92 l-13 -12 l0 357 l101 0 l0 -736 ZM292 73 q68 0 105.5 47 q37.5 47 37.5 135 q0 85 -37.5 132.5 q-37.5 47.5 -105.5 47.5 q-69 0 -107.5 -46.5 q-38.5 -46.5 -38.5 -131.5 q0 -88 38.5 -136 q38.5 -48 107.5 -48 Z" /><glyph glyph-name="dcroat" unicode="&#x111;" d="M237 576 l0 73 l392 0 l0 -73 l-392 0 ZM535 0 l-100 0 l0 132 l12 -14 q-17 -60 -64.5 -92.5 q-47.5 -32.5 -114.5 -32.5 q-66 0 -116.5 32.5 q-50.5 32.5 -78.5 92 q-28 59.5 -28 139.5 q0 79 27.5 137 q27.5 58 78 90 q50.5 32 117.5 32 q67 0 114.5 -33 q47.5 -33 64.5 -92 l-13 -12 l0 357 l101 0 l0 -736 ZM292 73 q68 0 105.5 47 q37.5 47 37.5 135 q0 85 -37.5 132.5 q-37.5 47.5 -105.5 47.5 q-69 0 -107.5 -46.5 q-38.5 -46.5 -38.5 -131.5 q0 -88 38.5 -136 q38.5 -48 107.5 -48 Z" /><glyph glyph-name="e" unicode="e" d="M495 58 q-34 -30 -86 -47.5 q-52 -17.5 -106 -17.5 q-80 0 -138 31 q-58 31 -89 90 q-31 59 -31 140 q0 78 30.5 137 q30.5 59 84.5 92 q54 33 125 33 q68 0 117 -30 q49 -30 75.5 -85.5 q26.5 -55.5 26.5 -133.5 l0 -17 l-371 0 l1 60 l311 0 l-29 -36 q1 81 -32 124 q-33 43 -97 43 q-67 0 -105 -47.5 q-38 -47.5 -38 -132.5 q0 -95 41 -141.5 q41 -46.5 120 -46.5 q43 0 83 14 q40 14 76 43 l31 -72 Z" /><glyph glyph-name="eogonek" unicode="&#x119;" d="M403 -200 q-55 0 -89.5 30.5 q-34.5 30.5 -34.5 78.5 q0 32 16.5 59 q16.5 27 46.5 45 l21 -12 q-18 -5 -31 -6.5 q-13 -1.5 -29 -1.5 q-80 0 -138 31 q-58 31 -89 90 q-31 59 -31 140 q0 78 30.5 137 q30.5 59 84.5 92 q54 33 125 33 q68 0 117 -30 q49 -30 75.5 -85.5 q26.5 -55.5 26.5 -133.5 l0 -17 l-371 0 l1 60 l311 0 l-29 -36 q1 81 -32 124 q-33 43 -97 43 q-67 0 -105 -48 q-38 -48 -38 -132 q0 -95 41 -141.5 q41 -46.5 120 -46.5 q43 0 83 14 q40 14 76 43 l31 -71 q-7 -8 -17.5 -14.5 q-10.5 -6.5 -36.5 -19.5 q-49 -26 -68.5 -49 q-19.5 -23 -19.5 -53 q0 -30 17.5 -46.5 q17.5 -16.5 48.5 -16.5 q27 0 59 18 l16 -56 q-19 -10 -42 -16 q-23 -6 -49 -6 Z" /><glyph glyph-name="uni0259" unicode="&#x259;" d="M50 450 q38 31 92 48.5 q54 17.5 108 17.5 q77 0 133.5 -31.5 q56.5 -31.5 87 -90.5 q30.5 -59 30.5 -139 q0 -79 -29 -138.5 q-29 -59.5 -81.5 -91.5 q-52.5 -32 -123.5 -32 q-105 0 -165 65.5 q-60 65.5 -60 183.5 l0 17 l369 0 l1 -61 l-311 0 l32 37 q-1 -81 32.5 -124.5 q33.5 -43.5 98.5 -43.5 q68 0 104.5 47.5 q36.5 47.5 34.5 136.5 q0 92 -40 138.5 q-40 46.5 -118 46.5 q-40 0 -80 -14.5 q-40 -14.5 -83 -42.5 l-32 71 Z" /><glyph glyph-name="f" unicode="f" d="M6 426 l0 78 l316 0 l0 -78 l-316 0 ZM338 647 q-28 8 -51 8 q-23 0 -42 -8.5 q-19 -8.5 -30 -29.5 q-11 -21 -11 -57 l0 -560 l-101 0 l0 568 q0 85 42.5 128.5 q42.5 43.5 119.5 43.5 q19 0 37 -2 q18 -2 36 -8 l0 -83 Z" /><glyph glyph-name="g" unicode="g" d="M299 -223 q-115 0 -201 50 l16 79 q47 -25 90 -37 q43 -12 94 -12 q70 0 106 36 q36 36 36 108 l0 131 l11 7 q-12 -36 -37.5 -64.5 q-25.5 -28.5 -62 -44 q-36.5 -15.5 -81.5 -15.5 q-67 0 -117.5 31.5 q-50.5 31.5 -79 87.5 q-28.5 56 -28.5 132 q0 75 28.5 131 q28.5 56 79 87.5 q50.5 31.5 117.5 31.5 q68 0 116 -33 q48 -33 65 -92 l-12 5 l0 108 l101 0 l0 -494 q0 -116 -61 -174.5 q-61 -58.5 -180 -58.5 ZM294 96 q68 0 106.5 45 q38.5 45 38.5 125 q0 78 -38.5 123.5 q-38.5 45.5 -106.5 45.5 q-69 0 -108.5 -45 q-39.5 -45 -39.5 -124 q0 -80 39.5 -125 q39.5 -45 108.5 -45 Z" /><glyph glyph-name="h" unicode="h" d="M73 0 l0 736 l101 0 l0 -334 l-14 -6 q22 59 70.5 89.5 q48.5 30.5 111.5 30.5 q181 0 181 -203 l0 -313 l-101 0 l0 309 q0 65 -26 95 q-26 30 -80 30 q-65 0 -103.5 -40 q-38.5 -40 -38.5 -107 l0 -287 l-101 0 Z" /><glyph glyph-name="hbar" unicode="&#x127;" d="M73 0 l0 736 l101 0 l0 -334 l-14 -6 q22 59 70.5 89.5 q48.5 30.5 111.5 30.5 q181 0 181 -203 l0 -313 l-101 0 l0 309 q0 65 -26 95 q-26 30 -80 30 q-65 0 -103.5 -40 q-38.5 -40 -38.5 -107 l0 -287 l-101 0 ZM-20 576 l0 73 l392 0 l0 -73 l-392 0 Z" /><glyph glyph-name="dotlessi" unicode="&#x131;" d="M73 0 l0 504 l101 0 l0 -504 l-101 0 Z" /><glyph glyph-name="iogonek" unicode="&#x12f;" d="M126 -200 q-53 0 -88 30.5 q-35 30.5 -35 80.5 q0 43 30 78 q30 35 88 50 l-17 -39 l-31 0 l0 504 l101 0 l0 -504 l-6 0 q-44 0 -68 -22.5 q-24 -22.5 -24 -54.5 q0 -30 18.5 -46.5 q18.5 -16.5 49.5 -16.5 q12 0 27 4.5 q15 4.5 31 13.5 l17 -56 q-19 -10 -42.5 -16 q-23.5 -6 -50.5 -6 ZM65 728 l118 0 l0 -106 l-118 0 l0 106 Z" /><glyph glyph-name="uni0237" unicode="&#x237;" d="M-58 -128 q15 -4 26.5 -6 q11.5 -2 22.5 -2 q23 0 42 8.5 q19 8.5 29.5 29 q10.5 20.5 10.5 57.5 l0 545 l101 0 l0 -553 q0 -85 -42.5 -128.5 q-42.5 -43.5 -117.5 -43.5 q-18 0 -36.5 2 q-18.5 2 -35.5 8 l0 83 Z" /><glyph glyph-name="k" unicode="k" d="M415 0 l-260 257 l243 246 l125 0 l-271 -272 l4 57 l288 -288 l-129 0 ZM73 0 l0 736 l101 0 l0 -736 l-101 0 Z" /><glyph glyph-name="kgreenlandic" unicode="&#x138;" d="M415 0 l-260 257 l243 246 l125 0 l-271 -272 l4 57 l288 -288 l-129 0 ZM73 0 l0 504 l101 0 l0 -504 l-101 0 Z" /><glyph glyph-name="l" unicode="l" d="M73 0 l0 736 l101 0 l0 -736 l-101 0 Z" /><glyph glyph-name="lcaron" unicode="&#x13e;" d="M252 539 l-43 0 l0 197 l69 0 l-26 -197 ZM73 0 l0 736 l101 0 l0 -736 l-101 0 Z" /><glyph glyph-name="lslash" unicode="&#x142;" d="M30 249 l-40 70 l289 168 l40 -72 l-289 -166 ZM104 0 l0 736 l101 0 l0 -736 l-101 0 Z" /><glyph glyph-name="m" unicode="m" d="M73 0 l0 362 q0 35 -1.5 71 q-1.5 36 -6.5 71 l96 0 l9 -102 l-10 -4 q19 56 63 87 q44 31 105 31 q72 0 112.5 -35.5 q40.5 -35.5 52.5 -109.5 l-24 17 q17 59 65.5 93.5 q48.5 34.5 114.5 34.5 q84 0 126 -50.5 q42 -50.5 42 -152.5 l0 -313 l-101 0 l0 309 q0 65 -22.5 95 q-22.5 30 -72.5 30 q-58 0 -91.5 -40 q-33.5 -40 -33.5 -109 l0 -285 l-101 0 l0 309 q0 65 -23 95 q-23 30 -72 30 q-59 0 -92.5 -40 q-33.5 -40 -33.5 -109 l0 -285 l-101 0 Z" /><glyph glyph-name="n" unicode="n" d="M73 0 l0 362 q0 35 -1.5 71 q-1.5 36 -6.5 71 l96 0 l9 -102 l-10 -6 q22 59 70.5 89.5 q48.5 30.5 111.5 30.5 q181 0 181 -203 l0 -313 l-101 0 l0 309 q0 65 -26 95 q-26 30 -80 30 q-65 0 -103.5 -40 q-38.5 -40 -38.5 -107 l0 -287 l-101 0 Z" /><glyph glyph-name="eng" unicode="&#x14b;" d="M342 516 q181 0 181 -203 l0 -341 q0 -68 -19.5 -111 q-19.5 -43 -55 -62.5 q-35.5 -19.5 -85.5 -19.5 q-19 0 -37 2 q-18 2 -36 6 l0 85 q15 -4 26.5 -6 q11.5 -2 22.5 -2 q23 0 42 9.5 q19 9.5 30 34.5 q11 25 11 72 l0 329 q0 65 -26 95 q-26 30 -80 30 q-65 0 -103.5 -40 q-38.5 -40 -38.5 -107 l0 -287 l-101 0 l0 362 q0 35 -1.5 71 q-1.5 36 -6.5 71 l96 0 l9 -102 l-10 -6 q22 59 70.5 89.5 q48.5 30.5 111.5 30.5 Z" /><glyph glyph-name="o" unicode="o" d="M291 -7 q-75 0 -130.5 32 q-55.5 32 -85.5 90.5 q-30 58.5 -30 139.5 q0 79 30 138 q30 59 85.5 91 q55.5 32 130.5 32 q74 0 129.5 -32 q55.5 -32 86 -91 q30.5 -59 30.5 -138 q0 -81 -30.5 -139.5 q-30.5 -58.5 -86 -90.5 q-55.5 -32 -129.5 -32 ZM291 73 q68 0 105.5 46 q37.5 46 37.5 136 q0 87 -37.5 133.5 q-37.5 46.5 -105.5 46.5 q-68 0 -106.5 -46.5 q-38.5 -46.5 -38.5 -133.5 q0 -90 37.5 -136 q37.5 -46 107.5 -46 Z" /><glyph glyph-name="ohorn" unicode="&#x1a1;" d="M291 -7 q-75 0 -130.5 32 q-55.5 32 -85.5 90.5 q-30 58.5 -30 138.5 q0 80 30 139 q30 59 85.5 91 q55.5 32 129.5 32 q13 0 28.5 -2 q15.5 -2 28.5 -3.5 q13 -1.5 19 -1.5 q29 0 49 10 q20 10 31 34 q11 24 11 67 l0 16 l88 0 l0 -29 q0 -68 -37.5 -109.5 q-37.5 -41.5 -105.5 -46.5 l24 26 q53 -31 82 -89 q29 -58 29 -134 q0 -80 -30.5 -138.5 q-30.5 -58.5 -86 -90.5 q-55.5 -32 -129.5 -32 ZM291 73 q68 0 105.5 46 q37.5 46 37.5 136 q0 87 -37.5 133.5 q-37.5 46.5 -105.5 46.5 q-68 0 -106.5 -46.5 q-38.5 -46.5 -38.5 -133.5 q0 -90 37.5 -136 q37.5 -46 107.5 -46 Z" /><glyph glyph-name="uni01EB" unicode="&#x1eb;" d="M350 -200 q-54 0 -89 30.5 q-35 30.5 -35 78.5 q0 34 16.5 61 q16.5 27 47.5 43 l6 -20 q-77 -1 -133.5 30.5 q-56.5 31.5 -87 91 q-30.5 59.5 -30.5 140.5 q0 79 30 138 q30 59 85.5 91 q55.5 32 130.5 32 q74 0 129.5 -32 q55.5 -32 86 -91 q30.5 -59 30.5 -138 q0 -94 -42 -160 q-42 -66 -114 -88 q-43 -13 -62 -33 q-19 -20 -19 -51 q0 -30 18 -46.5 q18 -16.5 48 -16.5 q27 0 59 18 l17 -56 q-20 -10 -43 -16 q-23 -6 -49 -6 ZM291 73 q68 0 105.5 46 q37.5 46 37.5 136 q0 87 -37.5 133.5 q-37.5 46.5 -105.5 46.5 q-68 0 -106.5 -46.5 q-38.5 -46.5 -38.5 -133.5 q0 -90 37.5 -136 q37.5 -46 107.5 -46 Z" /><glyph glyph-name="oslash" unicode="ø" d="M291 -7 q-75 0 -130.5 32 q-55.5 32 -85.5 90.5 q-30 58.5 -30 139.5 q0 79 30 138 q30 59 85.5 91 q55.5 32 130.5 32 q74 0 129.5 -32 q55.5 -32 86 -91 q30.5 -59 30.5 -138 q0 -81 -30.5 -139.5 q-30.5 -58.5 -86 -90.5 q-55.5 -32 -129.5 -32 ZM150 -52 l-56 33 l337 578 l56 -31 l-337 -580 ZM291 73 q70 0 107.5 46 q37.5 46 37.5 136 q0 88 -38 134.5 q-38 46.5 -107 46.5 q-70 0 -108 -46.5 q-38 -46.5 -38 -134.5 q0 -90 37.5 -136 q37.5 -46 108.5 -46 Z" /><glyph glyph-name="oe" unicode="&#x153;" d="M289 -7 q-74 0 -129 32 q-55 32 -85 90.5 q-30 58.5 -30 139.5 q0 79 30 137.5 q30 58.5 85 91 q55 32.5 129 32.5 q71 0 123 -32 q52 -32 80.5 -90.5 q28.5 -58.5 28.5 -138.5 q0 -81 -28.5 -140 q-28.5 -59 -80.5 -90.5 q-52 -31.5 -123 -31.5 ZM289 73 q69 0 106.5 46 q37.5 46 37.5 136 q0 87 -38 133.5 q-38 46.5 -105 46.5 q-68 0 -106 -46.5 q-38 -46.5 -38 -133.5 q0 -90 37.5 -136 q37.5 -46 105.5 -46 ZM691 -7 q-112 0 -175.5 67.5 q-63.5 67.5 -65.5 191.5 q-2 79 26.5 138.5 q28.5 59.5 80.5 92.5 q52 33 122 33 q64 0 111.5 -30 q47.5 -30 73.5 -86 q26 -56 26 -133 l0 -32 l-371 0 l1 60 l311 0 l-28 -21 q1 81 -31.5 124 q-32.5 43 -94.5 43 q-67 0 -104.5 -47.5 q-37.5 -47.5 -37.5 -132.5 q0 -94 39 -141 q39 -47 117 -47 q43 0 83 14.5 q40 14.5 76 42.5 l32 -72 q-34 -29 -86 -47 q-52 -18 -105 -18 Z" /><glyph glyph-name="p" unicode="p" d="M73 -216 l0 578 q0 35 -1.5 71 q-1.5 36 -6.5 71 l96 0 l9 -102 l-7 -11 q17 60 64.5 92.5 q47.5 32.5 113.5 32.5 q66 0 116.5 -33 q50.5 -33 79 -92.5 q28.5 -59.5 28.5 -138.5 q0 -79 -28.5 -137.5 q-28.5 -58.5 -78.5 -90 q-50 -31.5 -117 -31.5 q-66 0 -113.5 32.5 q-47.5 32.5 -64.5 92.5 l11 12 l0 -346 l-101 0 ZM318 73 q68 0 106 46.5 q38 46.5 38 132.5 q0 86 -38 134.5 q-38 48.5 -106 48.5 q-70 0 -107 -47 q-37 -47 -37 -134 q0 -87 37 -134 q37 -47 107 -47 Z" /><glyph glyph-name="thorn" unicode="þ" d="M73 -216 l0 952 l101 0 l0 -357 l-11 12 q17 60 64.5 92.5 q47.5 32.5 113.5 32.5 q65 0 115.5 -32.5 q50.5 -32.5 79.5 -91.5 q29 -59 29 -140 q0 -81 -29 -139 q-29 -58 -79.5 -89 q-50.5 -31 -115.5 -31 q-66 0 -113.5 32.5 q-47.5 32.5 -64.5 92.5 l11 12 l0 -346 l-101 0 ZM318 73 q70 0 107 47 q37 47 37 132 q0 85 -37.5 134 q-37.5 49 -106.5 49 q-70 0 -107 -47 q-37 -47 -37 -134 q0 -87 37 -134 q37 -47 107 -47 Z" /><glyph glyph-name="q" unicode="q" d="M535 -216 l-101 0 l0 346 l13 -12 q-17 -60 -64.5 -92.5 q-47.5 -32.5 -114.5 -32.5 q-67 0 -117.5 31.5 q-50.5 31.5 -78 90 q-27.5 58.5 -27.5 137.5 q0 79 28 138.5 q28 59.5 78.5 92.5 q50.5 33 116.5 33 q67 0 114.5 -32.5 q47.5 -32.5 64.5 -92.5 l-10 11 l12 102 l94 0 q-4 -35 -6 -71 q-2 -36 -2 -71 l0 -578 ZM292 73 q68 0 105.5 47 q37.5 47 37.5 134 q0 87 -37.5 134 q-37.5 47 -105.5 47 q-69 0 -107.5 -48.5 q-38.5 -48.5 -38.5 -134.5 q0 -86 38.5 -132.5 q38.5 -46.5 107.5 -46.5 Z" /><glyph glyph-name="r" unicode="r" d="M73 0 l0 362 q0 35 -1.5 71 q-1.5 36 -6.5 71 l96 0 l12 -127 l-12 5 q13 66 59.5 100 q46.5 34 104.5 34 q14 0 26 -2 q12 -2 22 -5 l-2 -92 q-27 10 -59 10 q-49 0 -79 -20.5 q-30 -20.5 -44.5 -54 q-14.5 -33.5 -14.5 -71.5 l0 -281 l-101 0 Z" /><glyph glyph-name="s" unicode="s" d="M250 -7 q-132 0 -209 64 l31 73 q40 -31 84.5 -45.5 q44.5 -14.5 96.5 -14.5 q52 0 79 17.5 q27 17.5 27 49.5 q0 27 -18.5 42.5 q-18.5 15.5 -62.5 26.5 l-85 20 q-66 14 -100.5 49.5 q-34.5 35.5 -34.5 88.5 q0 45 25 79 q25 34 70 53.5 q45 19.5 105 19.5 q54 0 102 -16.5 q48 -16.5 83 -48.5 l-31 -71 q-37 29 -75.5 43.5 q-38.5 14.5 -78.5 14.5 q-49 0 -76 -18.5 q-27 -18.5 -27 -51.5 q0 -27 16.5 -42.5 q16.5 -15.5 55.5 -24.5 l85 -21 q73 -16 107 -51 q34 -35 34 -90 q0 -67 -54.5 -106.5 q-54.5 -39.5 -148.5 -39.5 Z" /><glyph glyph-name="germandbls" unicode="ß" d="M73 0 l0 485 q0 126 66 191.5 q66 65.5 188 65.5 q97 0 152.5 -45 q55.5 -45 55.5 -127 q0 -43 -15.5 -80.5 q-15.5 -37.5 -55 -69.5 q-39.5 -32 -109.5 -58 l0 18 q95 -19 154 -51 q59 -32 86.5 -74.5 q27.5 -42.5 27.5 -96.5 q0 -50 -24 -87 q-24 -37 -68 -57.5 q-44 -20.5 -104 -20.5 q-57 0 -107.5 16.5 q-50.5 16.5 -84.5 47.5 l32 75 q40 -32 80 -46.5 q40 -14.5 82 -13.5 q50 0 74.5 24 q24.5 24 24.5 66 q0 33 -23 62 q-23 29 -76 54 q-53 25 -146 49 l0 76 q61 23 95 47.5 q34 24.5 48 54 q14 29.5 14 63.5 q0 47 -29 71.5 q-29 24.5 -84 24.5 q-73 0 -113 -41 q-40 -41 -40 -126 l0 -497 l-101 0 Z" /><glyph glyph-name="t" unicode="t" d="M6 426 l0 78 l338 0 l0 -78 l-338 0 ZM343 86 l0 -82 q-18 -6 -36 -8.5 q-18 -2.5 -39 -2.5 q-77 0 -120.5 43.5 q-43.5 43.5 -43.5 128.5 l0 465 l101 35 l0 -492 q0 -37 11 -57.5 q11 -20.5 30.5 -29 q19.5 -8.5 43.5 -8.5 q14 0 26 2 q12 2 27 6 Z" /><glyph glyph-name="tbar" unicode="&#x167;" d="M32 252 l0 74 l296 0 l0 -74 l-296 0 ZM11 426 l0 78 l338 0 l0 -78 l-338 0 ZM348 86 l0 -82 q-17 -6 -35.5 -8.5 q-18.5 -2.5 -39.5 -2.5 q-77 0 -120.5 43.5 q-43.5 43.5 -43.5 128.5 l0 465 l101 35 l0 -492 q0 -37 11.5 -57.5 q11.5 -20.5 30.5 -29 q19 -8.5 43 -8.5 q14 0 26 2 q12 2 27 6 Z" /><glyph glyph-name="u" unicode="u" d="M253 -7 q-91 0 -137 50.5 q-46 50.5 -46 151.5 l0 309 l101 0 l0 -308 q0 -62 25.5 -91.5 q25.5 -29.5 78.5 -29.5 q61 0 98.5 40 q37.5 40 37.5 106 l0 283 l101 0 l0 -504 l-98 0 l0 107 l12 4 q-21 -58 -67 -88 q-46 -30 -106 -30 Z" /><glyph glyph-name="uhorn" unicode="&#x1b0;" d="M543 636 l89 0 l0 -29 q0 -47 -18 -82 q-18 -35 -51.5 -54 q-33.5 -19 -79.5 -21 l29 33 l0 -483 l-98 0 l0 107 l12 4 q-21 -58 -67 -88 q-46 -30 -106 -30 q-91 0 -137 50.5 q-46 50.5 -46 151.5 l0 309 l101 0 l0 -308 q0 -62 25.5 -91.5 q25.5 -29.5 78.5 -29.5 q61 0 98.5 40 q37.5 40 37.5 106 l0 283 l29 0 q55 0 79 26.5 q24 26.5 24 89.5 l0 16 Z" /><glyph glyph-name="uogonek" unicode="&#x173;" d="M512 0 l-7 0 q-39 0 -64.5 -21.5 q-25.5 -21.5 -25.5 -55.5 q0 -30 17 -46.5 q17 -16.5 49 -16.5 q28 0 58 18 l17 -56 q-19 -10 -42.5 -16 q-23.5 -6 -49.5 -6 q-55 0 -89 31 q-34 31 -34 80 q0 46 31 80 q31 34 86 48 l-17 -39 l-27 0 l0 107 l12 4 q-21 -58 -67 -88 q-46 -30 -106 -30 q-91 0 -137 50.5 q-46 50.5 -46 151.5 l0 309 l101 0 l0 -308 q0 -62 25.5 -91.5 q25.5 -29.5 78.5 -29.5 q61 0 98.5 40 q37.5 40 37.5 106 l0 283 l101 0 l0 -504 Z" /><glyph glyph-name="v" unicode="v" d="M222 0 l-216 503 l105 0 l172 -421 l-26 0 l174 421 l101 0 l-219 -503 l-91 0 Z" /><glyph glyph-name="w" unicode="w" d="M211 0 l-192 504 l105 0 l149 -420 l-25 0 l152 420 l80 0 l151 -420 l-25 0 l151 420 l99 0 l-192 -504 l-92 0 l-161 432 l51 0 l-159 -432 l-92 0 Z" /><glyph glyph-name="x" unicode="x" d="M419 0 l-149 186 l-58 74 l-198 244 l121 0 l135 -172 l60 -72 l209 -260 l-120 0 ZM123 0 l-121 0 l210 260 l58 72 l136 172 l122 0 l-198 -244 l-60 -74 l-147 -186 Z" /><glyph glyph-name="y" unicode="y" d="M55 -227 l-22 78 q46 10 77.5 24.5 q31.5 14.5 52.5 36.5 q21 22 36 57 l34 78 l24 35 l174 422 l101 0 l-235 -544 q-28 -64 -63.5 -101.5 q-35.5 -37.5 -80.5 -57.5 q-45 -20 -98 -28 ZM235 -29 l-229 533 l105 0 l172 -422 l-48 -111 Z" /><glyph glyph-name="z" unicode="z" d="M49 0 l0 70 l328 389 l11 -33 l-330 0 l0 78 l412 0 l0 -71 l-327 -389 l-9 34 l347 0 l0 -78 l-432 0 Z" /><glyph glyph-name="fi" unicode="&#xfb01;" d="M414 729 l119 0 l0 -108 l-119 0 l0 108 ZM524 504 l0 -504 l-101 0 l0 426 l-417 0 l0 78 l518 0 ZM104 0 l0 564 q0 63 19.5 101 q19.5 38 64 56 q44.5 18 121.5 18 l34 0 l0 -76 l-25 0 q-47 0 -71.5 -8.5 q-24.5 -8.5 -33 -33 q-8.5 -24.5 -8.5 -73.5 l0 -548 l-101 0 Z" /><glyph glyph-name="ordfeminine" unicode="ª" d="M130 409 q-30 0 -53.5 13 q-23.5 13 -37 34 q-13.5 21 -13.5 45 q0 47 38 67 q38 20 134 20 l28 0 l0 -43 l-20 0 q-42 0 -63.5 -4.5 q-21.5 -4.5 -28.5 -13 q-7 -8.5 -7 -21.5 q0 -15 12.5 -26 q12.5 -11 33.5 -11 q26 0 44 16.5 q18 16.5 18 46.5 l0 71 q0 27 -12.5 38 q-12.5 11 -40.5 11 q-26 0 -51 -7.5 q-25 -7.5 -47 -20.5 l-21 62 q25 13 58 22 q33 9 69 9 q63 0 96 -30 q33 -30 33 -98 l0 -175 l-82 0 l0 69 l5 -8 q-10 -32 -34.5 -49 q-24.5 -17 -57.5 -17 Z" /><glyph glyph-name="ordmasculine" unicode="º" d="M177 409 q-51 0 -86 20.5 q-35 20.5 -53 55.5 q-18 35 -18 79 q0 44 18 78.5 q18 34.5 53 54.5 q35 20 86 20 q51 0 86 -20 q35 -20 53 -54.5 q18 -34.5 18 -78.5 q0 -44 -18 -79 q-18 -35 -53 -55.5 q-35 -20.5 -86 -20.5 ZM177 478 q34 0 52.5 22.5 q18.5 22.5 18.5 63.5 q0 41 -18.5 63 q-18.5 22 -52.5 22 q-34 0 -52 -22 q-18 -22 -18 -63 q0 -41 18 -63.5 q18 -22.5 52 -22.5 Z" /><glyph glyph-name="uni0394" unicode="&#x394;" d="M32 0 l0 67 l295 645 l84 0 l294 -645 l0 -67 l-673 0 ZM124 41 l-27 46 l544 0 l-27 -46 l-260 588 l31 0 l-261 -588 Z" /><glyph glyph-name="Sigma" unicode="&#x3a3;" d="M551 -96 l0 -86 l-509 0 l0 76 l287 408 l0 -74 l-287 409 l0 75 l509 0 l0 -85 l-418 0 l0 43 l261 -370 l0 -69 l-261 -371 l0 44 l418 0 Z" /><glyph glyph-name="uni03A9" unicode="&#x3a9;" d="M398 721 q105 0 182.5 -38 q77.5 -38 119.5 -107 q42 -69 42 -162 q0 -98 -52.5 -186.5 q-52.5 -88.5 -159.5 -173.5 l11 31 l192 0 l0 -85 l-271 0 l0 82 q87 79 131 162 q44 83 44 167 q0 107 -63.5 166 q-63.5 59 -175.5 59 q-113 0 -176 -59 q-63 -59 -63 -166 q0 -85 44.5 -167 q44.5 -82 131.5 -162 l0 -82 l-272 0 l0 85 l192 0 l12 -31 q-109 85 -161.5 173.5 q-52.5 88.5 -52.5 186.5 q0 93 43 162 q43 69 120 107 q77 38 182 38 Z" /><glyph glyph-name="uni03BC" unicode="&#x3bc;" d="M512 504 l0 -504 l-98 0 l0 107 l12 4 q-21 -58 -67 -88 q-46 -30 -106 -30 q-35 0 -60.5 9.5 q-25.5 9.5 -45.5 27.5 l24 33 l0 -279 l-101 0 l0 720 l101 0 l0 -308 q0 -62 25.5 -91.5 q25.5 -29.5 78.5 -29.5 q61 0 98.5 40 q37.5 40 37.5 106 l0 283 l101 0 Z" /><glyph glyph-name="pi" unicode="&#x3c0;" d="M139 0 l-106 0 q25 73 41.5 148.5 q16.5 75.5 25 156 q8.5 80.5 8.5 167.5 l101 0 q0 -88 -6.5 -167.5 q-6.5 -79.5 -21.5 -155 q-15 -75.5 -42 -149.5 ZM5 426 l0 78 l562 0 l0 -78 l-562 0 ZM348 465 l101 0 l0 -285 q0 -51 25 -77 q25 -26 77 -29 l49 -4 l-8 -78 l-47 3 q-69 5 -112.5 27 q-43.5 22 -64 64.5 q-20.5 42.5 -20.5 107.5 l0 271 Z" /><glyph glyph-name="zero" unicode="0" d="M300 -8 q-124 0 -189 92.5 q-65 92.5 -65 271.5 q0 178 64.5 271 q64.5 93 189.5 93 q125 0 189.5 -93 q64.5 -93 64.5 -270 q0 -179 -65 -272 q-65 -93 -189 -93 ZM300 75 q78 0 114.5 68 q36.5 68 36.5 214 q0 145 -36.5 212 q-36.5 67 -114.5 67 q-78 0 -114.5 -67.5 q-36.5 -67.5 -36.5 -211.5 q0 -146 36.5 -214 q36.5 -68 114.5 -68 Z" /><glyph glyph-name="one" unicode="1" d="M277 47 l0 596 l55 -20 l-200 -124 l0 95 l189 118 l60 0 l0 -665 l-104 0 ZM121 0 l0 85 l416 0 l0 -85 l-416 0 Z" /><glyph glyph-name="two" unicode="2" d="M78 0 l0 77 l245 269 q47 52 68.5 94.5 q21.5 42.5 21.5 84.5 q0 54 -31.5 82.5 q-31.5 28.5 -89.5 28.5 q-50 0 -99.5 -19.5 q-49.5 -19.5 -98.5 -58.5 l-37 77 q43 39 107.5 62 q64.5 23 131.5 23 q67 0 116.5 -23 q49.5 -23 76.5 -65.5 q27 -42.5 27 -101.5 q0 -61 -27 -116.5 q-27 -55.5 -90 -123.5 l-229 -247 l-10 42 l385 0 l0 -85 l-467 0 Z" /><glyph glyph-name="three" unicode="3" d="M290 -7 q-70 0 -135 22.5 q-65 22.5 -108 62.5 l37 77 q48 -39 98 -58.5 q50 -19.5 105 -19.5 q73 0 109.5 30.5 q36.5 30.5 36.5 92.5 q0 60 -38 89.5 q-38 29.5 -115 29.5 l-87 0 l0 84 l71 0 q74 0 112.5 31 q38.5 31 38.5 90 q0 54 -32 83 q-32 29 -91 29 q-51 0 -100.5 -19.5 q-49.5 -19.5 -97.5 -58.5 l-37 77 q43 39 107.5 62 q64.5 23 132.5 23 q66 0 116 -22.5 q50 -22.5 76.5 -64.5 q26.5 -42 26.5 -98 q0 -65 -34 -111 q-34 -46 -94 -63 l-2 10 q71 -15 109 -61 q38 -46 38 -117 q0 -93 -65.5 -146.5 q-65.5 -53.5 -177.5 -53.5 Z" /><glyph glyph-name="four" unicode="4" d="M364 0 l0 583 l27 0 l-273 -393 l1 41 l452 0 l0 -83 l-526 0 l0 77 l338 487 l83 0 l0 -712 l-102 0 Z" /><glyph glyph-name="five" unicode="5" d="M306 -7 q-66 0 -130 23 q-64 23 -106 62 l36 77 q49 -38 99 -58 q50 -20 102 -20 q71 0 110.5 38.5 q39.5 38.5 39.5 106.5 q0 44 -18 76.5 q-18 32.5 -50.5 50.5 q-32.5 18 -76.5 18 q-46 0 -85 -18 q-39 -18 -70 -55 l-66 0 l0 418 l436 0 l0 -83 l-334 0 l0 -264 l-32 5 q30 39 73.5 60 q43.5 21 99.5 21 q67 0 117.5 -28.5 q50.5 -28.5 78 -79.5 q27.5 -51 27.5 -119 q0 -68 -31 -120.5 q-31 -52.5 -87 -81.5 q-56 -29 -133 -29 Z" /><glyph glyph-name="six" unicode="6" d="M323 -8 q-131 0 -203 90 q-72 90 -72 258 q0 120 33.5 205 q33.5 85 97 130 q63.5 45 151.5 45 q63 0 122 -22 q59 -22 104 -63 l-37 -77 q-49 41 -95 59.5 q-46 18.5 -91 18.5 q-87 0 -134.5 -76.5 q-47.5 -76.5 -47.5 -217.5 l0 -72 l-13 26 q9 48 37 82.5 q28 34.5 69.5 53.5 q41.5 19 91.5 19 q65 0 115 -28.5 q50 -28.5 77.5 -80 q27.5 -51.5 27.5 -118.5 q0 -67 -30 -119.5 q-30 -52.5 -82.5 -82.5 q-52.5 -30 -120.5 -30 ZM318 76 q62 0 100.5 40 q38.5 40 38.5 106 q0 65 -38.5 105 q-38.5 40 -101.5 40 q-42 0 -74.5 -18.5 q-32.5 -18.5 -50.5 -51.5 q-18 -33 -18 -75 q0 -44 18 -76.5 q18 -32.5 50.5 -51 q32.5 -18.5 75.5 -18.5 Z" /><glyph glyph-name="seven" unicode="7" d="M212 0 l-111 0 l347 663 l5 -36 l-394 0 l0 85 l482 0 l0 -77 l-329 -635 Z" /><glyph glyph-name="eight" unicode="8" d="M300 -7 q-79 0 -137 23.5 q-58 23.5 -90.5 68 q-32.5 44.5 -32.5 105.5 q0 75 49.5 123.5 q49.5 48.5 133.5 59.5 l-4 -15 q-77 15 -120 60.5 q-43 45.5 -43 111.5 q0 59 31.5 101.5 q31.5 42.5 86 65.5 q54.5 23 126.5 23 q72 0 126.5 -23 q54.5 -23 86 -65.5 q31.5 -42.5 31.5 -101.5 q0 -66 -43 -112 q-43 -46 -119 -60 l-5 15 q86 -12 134.5 -61 q48.5 -49 48.5 -122 q0 -61 -32.5 -105.5 q-32.5 -44.5 -90.5 -68 q-58 -23.5 -137 -23.5 ZM300 75 q76 0 118.5 31.5 q42.5 31.5 42.5 90.5 q0 57 -45.5 89 q-45.5 32 -115.5 40 q-70 -8 -115.5 -40 q-45.5 -32 -45.5 -89 q0 -59 42.5 -90.5 q42.5 -31.5 118.5 -31.5 ZM300 395 q63 8 103 40 q40 32 40 86 q0 56 -38 86.5 q-38 30.5 -105 30.5 q-67 0 -105 -30.5 q-38 -30.5 -38 -86.5 q0 -54 40 -86 q40 -32 103 -40 Z" /><glyph glyph-name="nine" unicode="9" d="M277 720 q132 0 203.5 -90 q71.5 -90 71.5 -258 q0 -120 -33.5 -205 q-33.5 -85 -96.5 -130 q-63 -45 -152 -45 q-62 0 -121.5 22 q-59.5 22 -104.5 63 l38 77 q50 -41 95.5 -59.5 q45.5 -18.5 90.5 -18.5 q87 0 134 76.5 q47 76.5 47 217.5 l0 72 l14 -26 q-9 -48 -37 -82.5 q-28 -34.5 -70 -53.5 q-42 -19 -92 -19 q-65 0 -114.5 28.5 q-49.5 28.5 -77.5 80 q-28 51.5 -28 118.5 q0 67 30 119.5 q30 52.5 83 82.5 q53 30 120 30 ZM283 636 q-63 0 -101 -40 q-38 -40 -38 -106 q0 -65 38 -105 q38 -40 102 -40 q41 0 74 18.5 q33 18.5 51 51.5 q18 33 18 75 q0 44 -18 76.5 q-18 32.5 -51 51 q-33 18.5 -75 18.5 Z" /><glyph glyph-name="fraction" unicode="&#x2044;" d="M-83 -26 l-71 40 l420 724 l70 -40 l-419 -724 Z" /><glyph glyph-name="period" unicode="." d="M60 120 l120 0 l0 -120 l-120 0 l0 120 Z" /><glyph glyph-name="comma" unicode="," d="M110 -123 l-43 34 q29 30 39.5 56.5 q10.5 26.5 10.5 54.5 l28 -22 l-85 0 l0 120 l120 0 l0 -82 q0 -45 -15.5 -84 q-15.5 -39 -54.5 -77 Z" /><glyph glyph-name="colon" unicode=":" d="M60 120 l120 0 l0 -120 l-120 0 l0 120 ZM60 493 l120 0 l0 -120 l-120 0 l0 120 Z" /><glyph glyph-name="semicolon" unicode=";" d="M60 493 l120 0 l0 -120 l-120 0 l0 120 ZM110 -123 l-43 34 q29 30 39.5 56.5 q10.5 26.5 10.5 54.5 l28 -22 l-85 0 l0 120 l120 0 l0 -82 q0 -45 -15.5 -84 q-15.5 -39 -54.5 -77 Z" /><glyph glyph-name="ellipsis" unicode="&#x2026;" d="M60 120 l120 0 l0 -120 l-120 0 l0 120 ZM300 120 l120 0 l0 -120 l-120 0 l0 120 ZM540 120 l120 0 l0 -120 l-120 0 l0 120 Z" /><glyph glyph-name="exclam" unicode="!" d="M89 199 l-32 513 l126 0 l-32 -513 l-62 0 ZM60 120 l120 0 l0 -120 l-120 0 l0 120 Z" /><glyph glyph-name="exclamdown" unicode="¡" d="M89 293 l62 0 l32 -475 l-126 0 l32 475 ZM60 373 l0 120 l120 0 l0 -120 l-120 0 Z" /><glyph glyph-name="question" unicode="?" d="M88 682 q34 20 72 29 q38 9 73 9 q61 0 106 -20.5 q45 -20.5 70 -56.5 q25 -36 25 -84 q0 -45 -17 -80 q-17 -35 -43.5 -64.5 q-26.5 -29.5 -54 -58.5 q-27.5 -29 -47.5 -62 q-20 -33 -24 -74 l-4 -23 l-59 0 l0 32 q0 50 14.5 86.5 q14.5 36.5 36.5 65 q22 28.5 43.5 55 q21.5 26.5 36 54 q14.5 27.5 14.5 61.5 q0 39 -27 61.5 q-27 22.5 -76 22.5 q-33 0 -68.5 -10.5 q-35.5 -10.5 -70.5 -31.5 l0 89 ZM155 0 l0 120 l120 0 l0 -120 l-120 0 Z" /><glyph glyph-name="questiondown" unicode="¿" d="M221 -189 q-56 0 -102 19 q-46 19 -72.5 55 q-26.5 36 -26.5 86 q0 43 17.5 74.5 q17.5 31.5 43.5 56 q26 24.5 53.5 49 q27.5 24.5 47.5 53.5 q20 29 24 70 l4 22 l60 0 l0 -32 q0 -48 -14.5 -81 q-14.5 -33 -36.5 -57.5 q-22 -24.5 -44 -45.5 q-22 -21 -36.5 -45 q-14.5 -24 -14.5 -56 q0 -37 27 -60 q27 -23 75 -23 q35 0 70 10.5 q35 10.5 70 31.5 l0 -89 q-34 -21 -71.5 -29.5 q-37.5 -8.5 -73.5 -8.5 ZM179 373 l0 120 l120 0 l0 -120 l-120 0 Z" /><glyph glyph-name="periodcentered" unicode="·" d="M60 329 l120 0 l0 -120 l-120 0 l0 120 Z" /><glyph glyph-name="bullet" unicode="&#x2022;" d="M265 89 q-49 0 -91 23.5 q-42 23.5 -67 64.5 q-25 41 -25 91 q0 46 23.5 87 q23.5 41 65 66.5 q41.5 25.5 94.5 25.5 q49 0 90 -23.5 q41 -23.5 66.5 -63.5 q25.5 -40 25.5 -92 q0 -49 -24.5 -90 q-24.5 -41 -66 -65 q-41.5 -24 -91.5 -24 Z" /><glyph glyph-name="asterisk" unicode="*" d="M142 355 l-59 43 l95 119 l-148 42 l24 71 l142 -53 l-6 151 l74 0 l-6 -151 l144 53 l22 -71 l-146 -42 l94 -119 l-60 -43 l-84 127 l-86 -127 Z" /><glyph glyph-name="numbersign" unicode="#" d="M306 0 l140 712 l74 0 l-139 -712 l-75 0 ZM39 179 l0 69 l507 0 l0 -69 l-507 0 ZM86 0 l139 712 l75 0 l-140 -712 l-74 0 ZM60 472 l0 69 l507 0 l0 -69 l-507 0 Z" /><glyph glyph-name="slash" unicode="/" d="M64 -57 l-88 0 l258 808 l89 0 l-259 -808 Z" /><glyph glyph-name="backslash" unicode="\" d="M233 -57 l-257 808 l88 0 l258 -808 l-89 0 Z" /><glyph glyph-name="parenleft" unicode="(" d="M222 -182 q-43 79 -69.5 153 q-26.5 74 -38 146.5 q-11.5 72.5 -11.5 148.5 q0 76 12 149 q12 73 38 146.5 q26 73.5 69 150.5 l83 0 q-38 -91 -59 -166.5 q-21 -75.5 -30 -144 q-9 -68.5 -9 -135.5 q0 -68 9 -136 q9 -68 30 -144.5 q21 -76.5 58 -167.5 l-82 0 Z" /><glyph glyph-name="parenright" unicode=")" d="M112 -182 l-81 0 q37 91 57.5 167.5 q20.5 76.5 29.5 144.5 q9 68 9 136 q0 67 -8.5 135.5 q-8.5 68.5 -29.5 144 q-21 75.5 -59 166.5 l83 0 q63 -115 90.5 -224 q27.5 -109 27.5 -222 q0 -76 -11.5 -148.5 q-11.5 -72.5 -37.5 -146.5 q-26 -74 -70 -153 Z" /><glyph glyph-name="braceleft" unicode="{" d="M301 -182 q-75 0 -115 37.5 q-40 37.5 -40 109.5 l0 170 q0 47 -15 68.5 q-15 21.5 -53 29.5 l-32 9 l0 46 l32 9 q38 9 53 30 q15 21 15 68 l0 170 q0 72 41.5 109.5 q41.5 37.5 113.5 37.5 l60 0 l0 -78 l-47 0 q-29 0 -48.5 -21 q-19.5 -21 -19.5 -63 l0 -176 q0 -37 -14.5 -61 q-14.5 -24 -36.5 -36.5 q-22 -12.5 -43 -12.5 l0 4 q21 0 43 -13 q22 -13 36.5 -38 q14.5 -25 14.5 -61 l0 -176 q0 -42 19.5 -62.5 q19.5 -20.5 48.5 -20.5 l47 0 l0 -79 l-60 0 Z" /><glyph glyph-name="braceright" unicode="}" d="M70 -182 l-60 0 l0 79 l48 0 q28 0 47.5 20.5 q19.5 20.5 19.5 62.5 l0 176 q0 36 15 61 q15 25 36.5 38 q21.5 13 42.5 13 l0 -4 q-21 0 -42.5 12.5 q-21.5 12.5 -36.5 36.5 q-15 24 -15 61 l0 176 q0 42 -19.5 63 q-19.5 21 -47.5 21 l-48 0 l0 78 l60 0 q71 0 113 -37.5 q42 -37.5 42 -109.5 l0 -170 q0 -47 15 -68 q15 -21 53 -30 l31 -9 l0 -46 l-31 -9 q-38 -8 -53 -29.5 q-15 -21.5 -15 -68.5 l0 -170 q0 -72 -40 -109.5 q-40 -37.5 -115 -37.5 Z" /><glyph glyph-name="bracketleft" unicode="[" d="M109 -182 l0 894 l215 0 l0 -78 l-115 0 l0 -737 l115 0 l0 -79 l-215 0 Z" /><glyph glyph-name="bracketright" unicode="]" d="M225 -182 l-215 0 l0 79 l115 0 l0 737 l-115 0 l0 78 l215 0 l0 -894 Z" /><glyph glyph-name="hyphen" unicode="-" d="M71 228 l0 82 l291 0 l0 -82 l-291 0 Z" /><glyph glyph-name="endash" unicode="&#x2013;" d="M0 238 l0 63 l505 0 l0 -63 l-505 0 Z" /><glyph glyph-name="emdash" unicode="&#x2014;" d="M0 238 l0 63 l1010 0 l0 -63 l-1010 0 Z" /><glyph glyph-name="figuredash" unicode="&#x2012;" d="M71 238 l0 63 l464 0 l0 -63 l-464 0 Z" /><glyph glyph-name="uni2015" unicode="&#x2015;" d="M0 238 l0 63 l1010 0 l0 -63 l-1010 0 Z" /><glyph glyph-name="underscore" unicode="_" d="M10 -63 l0 63 l485 0 l0 -63 l-485 0 Z" /><glyph glyph-name="quotesinglbase" unicode="&#x201a;" d="M110 -123 l-43 34 q29 30 39.5 56.5 q10.5 26.5 10.5 54.5 l28 -22 l-85 0 l0 120 l120 0 l0 -82 q0 -45 -15.5 -84 q-15.5 -39 -54.5 -77 Z" /><glyph glyph-name="quoteleft" unicode="&#x2018;" d="M129 719 l44 -35 q-29 -30 -40 -56.5 q-11 -26.5 -11 -54.5 l-27 22 l85 0 l0 -120 l-120 0 l0 81 q0 46 15.5 85 q15.5 39 53.5 78 Z" /><glyph glyph-name="quoteright" unicode="&#x2019;" d="M110 468 l-43 35 q29 31 39.5 57 q10.5 26 10.5 54 l28 -22 l-85 0 l0 120 l120 0 l0 -82 q0 -45 -15.5 -83.5 q-15.5 -38.5 -54.5 -78.5 Z" /><glyph glyph-name="guilsinglleft" unicode="&#x2039;" d="M158 87 l-133 180 l134 182 l90 0 l-130 -181 l127 -181 l-88 0 Z" /><glyph glyph-name="guilsinglright" unicode="&#x203a;" d="M117 87 l-89 0 l128 181 l-130 181 l90 0 l134 -182 l-133 -180 Z" /><glyph glyph-name="quotesingle" unicode="&#39;" d="M83 426 l-26 286 l118 0 l-24 -286 l-68 0 Z" /><glyph glyph-name="uni2007" unicode="&#x2007;" d="" /><glyph glyph-name="uni200A" unicode="&#x200a;" d="" /><glyph glyph-name="uni2008" unicode="&#x2008;" d="" /><glyph glyph-name="space" unicode=" " d="" /><glyph glyph-name="nonbreakingspace" unicode=" " d="" /><glyph glyph-name="uni2009" unicode="&#x2009;" d="" /><glyph glyph-name="uni200B" unicode="&#x200b;" d="" /><glyph glyph-name="nonmarkingreturn" unicode="" d="" /><glyph glyph-name="uni20B5" unicode="&#x20b5;" d="M356 -8 q-93 0 -160.5 43.5 q-67.5 43.5 -104.5 125.5 q-37 82 -37 196 q0 113 36.5 194.5 q36.5 81.5 104.5 125 q68 43.5 161 43.5 q55 0 114 -23.5 q59 -23.5 100 -63.5 l-38 -77 q-44 39 -88 59 q-44 20 -85 20 q-95 0 -147.5 -73 q-52.5 -73 -52.5 -205 q0 -133 52.5 -206.5 q52.5 -73.5 147.5 -73.5 q41 0 85 20 q44 20 88 59 l38 -77 q-41 -40 -100 -63.5 q-59 -23.5 -114 -23.5 ZM308 -116 l0 944 l84 0 l0 -944 l-84 0 Z" /><glyph glyph-name="cent" unicode="¢" d="M337 -7 q-75 0 -131 32 q-56 32 -87 90.5 q-31 58.5 -31 136.5 q0 79 32 138 q32 59 89 92.5 q57 33.5 131 33.5 q53 0 102 -17 q49 -17 79 -48 l-31 -73 q-34 28 -70 42 q-36 14 -72 14 q-73 0 -114.5 -48 q-41.5 -48 -41.5 -133 q0 -86 41 -132.5 q41 -46.5 115 -46.5 q36 0 72 14 q36 14 70 42 l31 -73 q-32 -30 -81.5 -47 q-49.5 -17 -102.5 -17 ZM299 -119 l0 746 l84 0 l0 -746 l-84 0 Z" /><glyph glyph-name="colonmonetary" unicode="&#x20a1;" d="M356 -8 q-93 0 -160.5 43.5 q-67.5 43.5 -104.5 125.5 q-37 82 -37 196 q0 113 36.5 194.5 q36.5 81.5 104.5 125 q68 43.5 161 43.5 q55 0 114 -23.5 q59 -23.5 100 -63.5 l-38 -77 q-44 39 -88 59 q-44 20 -85 20 q-95 0 -147.5 -73 q-52.5 -73 -52.5 -205 q0 -133 52.5 -206.5 q52.5 -73.5 147.5 -73.5 q41 0 85 20 q44 20 88 59 l38 -77 q-41 -40 -100 -63.5 q-59 -23.5 -114 -23.5 ZM93 -70 l-67 25 l97 242 l52 -64 l-82 -203 ZM231 -125 l-67 26 l64 160 l70 -17 l-67 -169 ZM313 676 l61 152 l76 0 l-60 -152 l-77 0 ZM521 607 l-60 42 l71 179 l77 0 l-88 -221 Z" /><glyph glyph-name="currency" unicode="¤" d="M299 -3 q-67 0 -122.5 34 q-55.5 34 -88 90.5 q-32.5 56.5 -32.5 125.5 q0 70 32.5 126.5 q32.5 56.5 88 90.5 q55.5 34 122.5 34 q68 0 123 -34 q55 -34 88 -90.5 q33 -56.5 33 -126.5 q0 -69 -33 -125.5 q-33 -56.5 -88 -90.5 q-55 -34 -123 -34 ZM97 -7 l-46 46 l91 95 l45 -49 l-90 -92 ZM500 -7 l-90 93 l45 48 l91 -95 l-46 -46 ZM299 78 q44 0 80 23.5 q36 23.5 57 61.5 q21 38 21 84 q0 47 -21 85 q-21 38 -57 61 q-36 23 -80 23 q-44 0 -80 -22.5 q-36 -22.5 -57 -61 q-21 -38.5 -21 -85.5 q0 -46 21 -84 q21 -38 57 -61.5 q36 -23.5 80 -23.5 ZM131 373 l-80 82 l47 48 l80 -84 l-47 -46 ZM466 370 l-49 49 l82 84 l48 -48 l-81 -85 Z" /><glyph glyph-name="dollar" unicode="$" d="M301 -8 q-77 0 -144.5 22.5 q-67.5 22.5 -116.5 65.5 l37 77 q52 -42 105 -61.5 q53 -19.5 117 -19.5 q75 0 116 31 q41 31 41 87 q0 34 -22 54.5 q-22 20.5 -58 33 q-36 12.5 -79 23 q-43 10.5 -86 23.5 q-43 13 -79.5 35 q-36.5 22 -58 57 q-21.5 35 -21.5 91 q0 61 33 108.5 q33 47.5 91 74 q58 26.5 133 26.5 q46 0 90.5 -10 q44.5 -10 83 -29.5 q38.5 -19.5 67.5 -47.5 l-37 -77 q-90 80 -204 80 q-70 0 -111.5 -31.5 q-41.5 -31.5 -41.5 -88.5 q0 -38 22 -60.5 q22 -22.5 58 -36 q36 -13.5 79.5 -24 q43.5 -10.5 86 -23 q42.5 -12.5 79 -33 q36.5 -20.5 58 -54.5 q21.5 -34 21.5 -88 q0 -61 -33 -107 q-33 -46 -91 -72 q-58 -26 -135 -26 ZM268 -116 l0 125 l5 49 l0 606 l-5 41 l0 123 l84 0 l0 -123 l-4 -41 l0 -606 l4 -49 l0 -125 l-84 0 Z" /><glyph glyph-name="dong" unicode="&#x20ab;" d="M258 -7 q-59 0 -105.5 31 q-46.5 31 -73 88.5 q-26.5 57.5 -26.5 138.5 q0 80 26.5 136.5 q26.5 56.5 72.5 86.5 q46 30 106 30 q57 0 101.5 -31.5 q44.5 -31.5 60.5 -88.5 l-12 -13 l0 341 l102 0 l0 -712 l-101 0 l0 127 l11 -14 q-16 -57 -60.5 -88.5 q-44.5 -31.5 -101.5 -31.5 ZM72 -144 l0 65 l438 0 l0 -65 l-438 0 ZM283 75 q61 0 93.5 47 q32.5 47 32.5 127 q0 80 -32.5 126.5 q-32.5 46.5 -93.5 46.5 q-59 0 -93.5 -45 q-34.5 -45 -34.5 -126 q0 -82 35 -129 q35 -47 93 -47 ZM259 559 l0 65 l323 0 l0 -65 l-323 0 Z" /><glyph glyph-name="Euro" unicode="&#x20ac;" d="M374 -8 q-83 0 -143.5 43 q-60.5 43 -92 124.5 q-31.5 81.5 -31.5 197.5 q0 115 31.5 196 q31.5 81 92 124 q60.5 43 143.5 43 q61 0 116.5 -22.5 q55.5 -22.5 96.5 -64.5 l-37 -77 q-43 39 -86 59 q-43 20 -86 20 q-84 0 -125.5 -69 q-41.5 -69 -41.5 -209 q0 -142 41 -211 q41 -69 126 -69 q43 0 86 20 q43 20 86 59 l37 -77 q-39 -40 -97 -63.5 q-58 -23.5 -116 -23.5 ZM15 246 l0 68 l372 0 l0 -68 l-372 0 ZM15 399 l0 69 l372 0 l0 -69 l-372 0 Z" /><glyph glyph-name="florin" unicode="&#x192;" d="M34 -187 l0 82 l57 0 q40 0 64.5 22.5 q24.5 22.5 35.5 72.5 l118 554 q12 61 41 99 q29 38 69 55.5 q40 17.5 88 17.5 l58 0 l0 -81 l-57 0 q-39 0 -64 -22.5 q-25 -22.5 -35 -72.5 l-118 -554 q-13 -61 -41.5 -99.5 q-28.5 -38.5 -68.5 -56 q-40 -17.5 -89 -17.5 l-58 0 ZM165 428 l0 67 l355 0 l0 -67 l-355 0 Z" /><glyph glyph-name="franc" unicode="&#x20a3;" d="M64 0 l0 712 l429 0 l0 -85 l-330 0 l0 -222 l190 0 l0 -86 l-190 0 l0 -319 l-99 0 ZM340 0 l0 493 l92 0 l0 -137 l-11 10 q11 50 33 79.5 q22 29.5 52 42 q30 12.5 68 12.5 l15 0 l0 -85 l-9 0 q-51 0 -82 -18 q-31 -18 -45.5 -50 q-14.5 -32 -14.5 -73 l0 -274 l-98 0 Z" /><glyph glyph-name="uni20B2" unicode="&#x20b2;" d="M346 -8 q-92 0 -159.5 43.5 q-67.5 43.5 -105 125.5 q-37.5 82 -37.5 196 q0 113 37 194.5 q37 81.5 104.5 125 q67.5 43.5 160.5 43.5 q53 0 112.5 -23 q59.5 -23 101.5 -64 l-37 -77 q-45 39 -89 59 q-44 20 -85 20 q-93 0 -146 -72 q-53 -72 -53 -206 q0 -135 53 -208.5 q53 -73.5 143 -73.5 q30 0 67.5 9 q37.5 9 72.5 24 l-23 -45 l0 237 l-137 0 l0 77 l230 0 l0 -334 q-30 -15 -66 -26.5 q-36 -11.5 -73 -18 q-37 -6.5 -71 -6.5 ZM298 -116 l0 134 l85 0 l0 -134 l-85 0 ZM297 694 l0 134 l84 0 l0 -134 l-84 0 Z" /><glyph glyph-name="uni20AD" unicode="&#x20ad;" d="M15 323 l0 67 l539 0 l0 -67 l-539 0 ZM477 0 l-305 357 l305 355 l117 0 l-330 -386 l0 62 l330 -388 l-117 0 ZM104 0 l0 712 l101 0 l0 -712 l-101 0 Z" /><glyph glyph-name="lira" unicode="&#x20a4;" d="M43 246 l0 68 l372 0 l0 -68 l-372 0 ZM43 399 l0 69 l372 0 l0 -69 l-372 0 ZM239 517 l0 -286 q0 -49 -10.5 -81 q-10.5 -32 -35 -53 q-24.5 -21 -67.5 -35 l1 23 l439 0 l0 -85 l-523 0 l0 71 q51 24 72 55.5 q21 31.5 21 83.5 l0 314 q0 60 25.5 104 q25.5 44 71.5 68 q46 24 109 24 q66 0 125 -22 q59 -22 105 -65 l-38 -77 q-44 39 -91.5 59.5 q-47.5 20.5 -93.5 20.5 q-54 0 -82 -30.5 q-28 -30.5 -28 -88.5 Z" /><glyph glyph-name="uni20BA" unicode="&#x20ba;" d="M153 20 l0 692 l104 0 l0 -624 q17 -5 35.5 -8 q18.5 -3 44.5 -3 q48 0 97.5 17 q49.5 17 100.5 61 l38 -77 q-50 -45 -113 -65.5 q-63 -20.5 -136 -20.5 q-87 0 -171 28 ZM61 270 l0 79 l372 209 l0 -81 l-372 -207 ZM61 437 l0 80 l372 207 l0 -79 l-372 -208 Z" /><glyph glyph-name="uni20BC" unicode="&#x20bc;" d="M47 0 q0 181 11.5 307 q11.5 126 32.5 206.5 q21 80.5 52 125.5 q31 45 71 62.5 q40 17.5 87 17.5 q47 0 87 -18 q40 -18 71 -63 q31 -45 52.5 -126 q21.5 -81 32.5 -206.5 q11 -125.5 11 -305.5 l-101 0 q0 140 -4.5 242 q-4.5 102 -13.5 172.5 q-9 70.5 -21.5 115 q-12.5 44.5 -29.5 68 q-17 23.5 -38 32.5 q-21 9 -46 9 q-25 0 -45.5 -9 q-20.5 -9 -38 -33 q-17.5 -24 -30 -68 q-12.5 -44 -21.5 -114.5 q-9 -70.5 -13.5 -173 q-4.5 -102.5 -4.5 -241.5 l-101 0 ZM260 328 l0 330 l-2 33 l0 137 l84 0 l0 -137 l-2 -33 l0 -330 l-80 0 Z" /><glyph glyph-name="uni20A6" unicode="&#x20a6;" d="M105 0 l0 712 l85 0 l241 -568 l-25 -14 l0 582 l89 0 l0 -712 l-85 0 l-241 554 l25 27 l0 -581 l-89 0 ZM15 246 l0 69 l134 0 l0 -69 l-134 0 ZM15 400 l0 69 l134 0 l0 -69 l-134 0 ZM444 246 l0 69 l142 0 l0 -69 l-142 0 ZM444 400 l0 69 l142 0 l0 -69 l-142 0 Z" /><glyph glyph-name="peseta" unicode="&#x20a7;" d="M81 0 l0 728 l176 0 q75 0 128 -28.5 q53 -28.5 81.5 -81.5 q28.5 -53 28.5 -127 q0 -73 -29 -126.5 q-29 -53.5 -82.5 -82.5 q-53.5 -29 -126.5 -29 l-75 0 l0 -253 l-101 0 ZM182 335 l72 0 q72 0 108 38.5 q36 38.5 36 116.5 q0 80 -35 117.5 q-35 37.5 -109 37.5 l-72 0 l0 -310 ZM460 426 l0 78 l329 0 l0 -78 l-329 0 ZM994 -7 q-124 0 -203 64 l32 73 q45 -31 86 -45 q41 -14 86 -13 q50 0 77.5 17.5 q27.5 17.5 27.5 49.5 q0 31 -26 47 q-26 16 -99 32 q-89 19 -127.5 53 q-38.5 34 -38.5 91 q0 45 25.5 80 q25.5 35 70 54.5 q44.5 19.5 100.5 19.5 q50 0 98 -17 q48 -17 81 -48 l-30 -71 q-41 29 -78.5 43 q-37.5 14 -74.5 14 q-43 0 -69.5 -19 q-26.5 -19 -26.5 -52 q0 -29 23.5 -44.5 q23.5 -15.5 88.5 -31.5 q67 -16 106 -34.5 q39 -18.5 55 -46 q16 -27.5 16 -68.5 q0 -67 -55 -107.5 q-55 -40.5 -145 -40.5 ZM557 656 l101 0 l0 -474 q0 -54 26 -82.5 q26 -28.5 78 -28.5 q10 0 22.5 1 q12.5 1 22.5 2 l-4 -77 q-27 -4 -53 -4 q-100 0 -146.5 49 q-46.5 49 -46.5 136 l0 478 Z" /><glyph glyph-name="uni20B1" unicode="&#x20b1;" d="M105 0 l0 712 l174 0 q74 0 126 -29 q52 -29 78.5 -81.5 q26.5 -52.5 26.5 -121.5 q0 -69 -27 -122 q-27 -53 -78.5 -82.5 q-51.5 -29.5 -125.5 -29.5 l-73 0 l0 -246 l-101 0 ZM15 368 l0 69 l134 0 l0 -69 l-134 0 ZM15 521 l0 69 l134 0 l0 -69 l-134 0 ZM207 328 l68 0 q68 0 102.5 36 q34.5 36 34.5 115 q0 80 -34 115 q-34 35 -103 35 l-68 0 l0 -301 ZM444 368 l0 69 l142 0 l0 -69 l-142 0 ZM444 521 l0 69 l142 0 l0 -69 l-142 0 Z" /><glyph glyph-name="uni20BD" unicode="&#x20bd;" d="M105 0 l0 712 l236 0 q77 0 130 -25.5 q53 -25.5 81 -71 q28 -45.5 28 -107.5 q0 -64 -28.5 -110 q-28.5 -46 -82 -71 q-53.5 -25 -128.5 -25 l-135 0 l0 -302 l-101 0 ZM15 149 l0 68 l365 0 l0 -68 l-365 0 ZM15 302 l0 69 l138 0 l0 -69 l-138 0 ZM207 371 l115 0 q78 0 119 31.5 q41 31.5 41 96.5 q0 68 -39 100.5 q-39 32.5 -116 32.5 l-120 0 l0 -261 Z" /><glyph glyph-name="uni20B9" unicode="&#x20b9;" d="M431 0 l-151 228 q-23 36 -48.5 51.5 q-25.5 15.5 -69.5 15.5 l-144 0 l0 83 l216 0 q72 0 111 32.5 q39 32.5 39 101.5 q0 68 -39 100 q-39 32 -111 32 l-83 0 l0 53 l97 0 q74 0 127.5 -19.5 q53.5 -19.5 82 -61.5 q28.5 -42 28.5 -110 q0 -65 -29.5 -111 q-29.5 -46 -82.5 -70.5 q-53 -24.5 -124 -24.5 l7 11 q51 0 83.5 -19.5 q32.5 -19.5 61.5 -63.5 l152 -228 l-123 0 ZM18 490 l0 69 l564 0 l0 -69 l-564 0 ZM18 644 l0 68 l564 0 l0 -68 l-564 0 Z" /><glyph glyph-name="sterling" unicode="£" d="M43 322 l0 69 l372 0 l0 -69 l-372 0 ZM239 517 l0 -286 q0 -49 -10.5 -81 q-10.5 -32 -35 -53 q-24.5 -21 -67.5 -35 l1 23 l439 0 l0 -85 l-523 0 l0 71 q51 24 72 55.5 q21 31.5 21 83.5 l0 314 q0 60 25.5 104 q25.5 44 71.5 68 q46 24 109 24 q66 0 125 -22 q59 -22 105 -65 l-38 -77 q-44 39 -91.5 59.5 q-47.5 20.5 -93.5 20.5 q-54 0 -82 -30.5 q-28 -30.5 -28 -88.5 Z" /><glyph glyph-name="uni20A9" unicode="&#x20a9;" d="M149 0 l-94 712 l82 0 l67 -594 l-33 0 l98 594 l62 0 l98 -594 l-33 0 l67 594 l82 0 l-94 -712 l-64 0 l-104 606 l34 0 l-105 -606 l-63 0 ZM15 246 l0 69 l134 0 l0 -69 l-134 0 ZM15 400 l0 69 l123 0 l0 -69 l-123 0 ZM444 246 l0 69 l142 0 l0 -69 l-142 0 ZM455 400 l0 69 l131 0 l0 -69 l-131 0 Z" /><glyph glyph-name="yen" unicode="¥" d="M248 0 l0 386 l22 -75 l-283 401 l114 0 l211 -305 l-24 0 l211 305 l114 0 l-284 -401 l23 75 l0 -386 l-104 0 ZM68 172 l0 68 l464 0 l0 -68 l-464 0 ZM68 325 l0 69 l464 0 l0 -69 l-464 0 Z" /><glyph glyph-name="periodcentered" unicode="&#x2219;" d="M240 329 l120 0 l0 -120 l-120 0 l0 120 Z" /><glyph glyph-name="fraction" unicode="&#x2215;" d="M211 -69 l-80 26 l258 807 l81 -26 l-259 -807 Z" /><glyph glyph-name="plus" unicode="+" d="M546 325 l0 -74 l-492 0 l0 74 l492 0 ZM263 535 l74 0 l0 -493 l-74 0 l0 493 Z" /><glyph glyph-name="minus" unicode="&#x2212;" d="M546 325 l0 -74 l-492 0 l0 74 l492 0 Z" /><glyph glyph-name="multiply" unicode="×" d="M484 525 l52 -53 l-420 -419 l-52 51 l420 421 ZM116 525 l420 -421 l-52 -51 l-420 419 l52 53 Z" /><glyph glyph-name="divide" unicode="÷" d="M243 434 l0 103 l102 0 l0 -103 l-102 0 ZM243 36 l0 103 l102 0 l0 -103 l-102 0 ZM546 325 l0 -74 l-492 0 l0 74 l492 0 Z" /><glyph glyph-name="equal" unicode="=" d="M546 426 l0 -74 l-492 0 l0 74 l492 0 ZM546 224 l0 -74 l-492 0 l0 74 l492 0 Z" /><glyph glyph-name="notequal" unicode="&#x2260;" d="M367 561 l68 -28 l-215 -519 l-68 30 l215 517 ZM546 426 l0 -74 l-492 0 l0 74 l492 0 ZM546 224 l0 -74 l-492 0 l0 74 l492 0 Z" /><glyph glyph-name="greater" unicode="&gt;" d="M546 249 l-492 -217 l0 82 l458 199 l0 -50 l-458 199 l0 81 l492 -216 l0 -78 Z" /><glyph glyph-name="less" unicode="&lt;" d="M54 249 l0 78 l492 216 l0 -81 l-458 -199 l0 50 l458 -199 l0 -82 l-492 217 Z" /><glyph glyph-name="greaterequal" unicode="&#x2265;" d="M546 293 l-492 -172 l0 80 l461 157 l0 -51 l-461 157 l0 79 l492 -172 l0 -78 ZM546 75 l0 -75 l-492 0 l0 75 l492 0 Z" /><glyph glyph-name="lessequal" unicode="&#x2264;" d="M54 293 l0 78 l492 172 l0 -79 l-461 -157 l0 51 l461 -157 l0 -80 l-492 172 ZM546 75 l0 -75 l-492 0 l0 75 l492 0 Z" /><glyph glyph-name="plusminus" unicode="±" d="M546 369 l0 -74 l-492 0 l0 74 l492 0 ZM263 535 l74 0 l0 -405 l-74 0 l0 405 ZM546 75 l0 -75 l-492 0 l0 75 l492 0 Z" /><glyph glyph-name="approxequal" unicode="&#x2248;" d="M485 450 l57 -33 q-18 -48 -52.5 -75 q-34.5 -27 -79.5 -27 q-33 0 -63.5 11.5 q-30.5 11.5 -58 27 q-27.5 15.5 -52.5 27.5 q-25 12 -47 12 q-32 0 -50.5 -18 q-18.5 -18 -30.5 -48 l-58 35 q18 47 52.5 74 q34.5 27 80.5 27 q32 0 62.5 -11.5 q30.5 -11.5 58 -26.5 q27.5 -15 53 -27 q25.5 -12 47.5 -12 q30 0 49.5 18 q19.5 18 31.5 46 ZM485 248 l57 -33 q-18 -48 -52.5 -75 q-34.5 -27 -79.5 -27 q-33 0 -63.5 11.5 q-30.5 11.5 -58 27 q-27.5 15.5 -52.5 27.5 q-25 12 -47 12 q-32 0 -50.5 -18 q-18.5 -18 -30.5 -48 l-58 35 q18 47 52.5 74 q34.5 27 80.5 27 q32 0 62.5 -11.5 q30.5 -11.5 58 -26.5 q27.5 -15 53 -27 q25.5 -12 47.5 -12 q30 0 49.5 18 q19.5 18 31.5 46 Z" /><glyph glyph-name="asciitilde" unicode="~" d="M488 349 l58 -33 q-18 -48 -52 -75 q-34 -27 -80 -27 q-33 0 -63.5 11.5 q-30.5 11.5 -58.5 27 q-28 15.5 -52.5 27.5 q-24.5 12 -46.5 12 q-32 0 -51 -18 q-19 -18 -30 -48 l-58 35 q18 47 52 74 q34 27 80 27 q33 0 63.5 -11.5 q30.5 -11.5 58.5 -26.5 q28 -15 52.5 -27 q24.5 -12 46.5 -12 q32 0 51 18 q19 18 30 46 Z" /><glyph glyph-name="logicalnot" unicode="¬" d="M546 429 l0 -282 l-74 0 l0 208 l-418 0 l0 74 l492 0 Z" /><glyph glyph-name="asciicircum" unicode="^" d="M339 636 l217 -493 l-82 0 l-199 457 l50 0 l-199 -457 l-81 0 l216 493 l78 0 Z" /><glyph glyph-name="emptyset" unicode="&#x2205;" d="M25 10 l79 103 q-46 39 -74.5 94 q-28.5 55 -28.5 121 q0 57 22.5 108.5 q22.5 51.5 63 92 q40.5 40.5 95.5 63.5 q55 23 119 23 q43 0 83 -11 q40 -11 75 -33 l78 103 l49 -38 l-79 -101 q42 -38 67 -91.5 q25 -53.5 25 -115.5 q0 -58 -23 -109.5 q-23 -51.5 -64.5 -91 q-41.5 -39.5 -95 -61.5 q-53.5 -22 -115.5 -22 q-40 0 -77 9.5 q-37 9.5 -69 27.5 l-79 -103 l-51 32 ZM143 163 l276 357 q-25 14 -55 22.5 q-30 8.5 -63 8.5 q-64 0 -116.5 -29 q-52.5 -29 -82.5 -79.5 q-30 -50.5 -30 -114.5 q0 -49 19 -91.5 q19 -42.5 52 -73.5 ZM301 104 q61 0 113.5 28.5 q52.5 28.5 83.5 79 q31 50.5 31 116.5 q0 46 -16 85.5 q-16 39.5 -45 70.5 l-275 -355 q23 -12 50.5 -18.5 q27.5 -6.5 57.5 -6.5 Z" /><glyph glyph-name="infinity" unicode="&#x221e;" d="M37 287 q0 65 36.5 107.5 q36.5 42.5 101.5 42.5 q25 0 51.5 -10.5 q26.5 -10.5 49.5 -35 q23 -24.5 38 -66.5 l0 -76 q-15 -42 -38 -66.5 q-23 -24.5 -49.5 -35 q-26.5 -10.5 -51.5 -10.5 q-64 0 -101 41.5 q-37 41.5 -37 108.5 ZM106 287 q0 -37 18.5 -61.5 q18.5 -24.5 54.5 -24.5 q16 0 32.5 7 q16.5 7 32.5 26 q16 19 29 54 q-13 34 -29 52.5 q-16 18.5 -32.5 25.5 q-16.5 7 -32.5 7 q-36 0 -54.5 -25 q-18.5 -25 -18.5 -61 ZM563 287 q0 -67 -37 -108.5 q-37 -41.5 -101 -41.5 q-25 0 -51.5 10.5 q-26.5 10.5 -49.5 35 q-23 24.5 -38 66.5 l0 76 q15 42 38 66.5 q23 24.5 49.5 35 q26.5 10.5 51.5 10.5 q65 0 101.5 -42.5 q36.5 -42.5 36.5 -107.5 ZM494 287 q0 36 -18.5 61 q-18.5 25 -54.5 25 q-16 0 -32.5 -7 q-16.5 -7 -32.5 -25.5 q-16 -18.5 -29 -52.5 q13 -35 29 -54 q16 -19 32.5 -26 q16.5 -7 32.5 -7 q36 0 54.5 24.5 q18.5 24.5 18.5 61.5 Z" /><glyph glyph-name="integral" unicode="&#x222b;" d="M408 720 q18 0 36 -2.5 q18 -2.5 35 -7.5 l0 -82 q-15 4 -26 5.5 q-11 1.5 -22 1.5 q-33 0 -56.5 -19.5 q-23.5 -19.5 -23.5 -73.5 l0 -559 q0 -83 -42.5 -126.5 q-42.5 -43.5 -116.5 -43.5 q-18 0 -36 2 q-18 2 -35 8 l0 83 q15 -4 26 -6 q11 -2 22 -2 q22 0 40 8.5 q18 8.5 29 28.5 q11 20 11 56 l0 559 q0 83 42.5 126.5 q42.5 43.5 116.5 43.5 Z" /><glyph glyph-name="Omega" unicode="&#x2126;" d="M398 721 q105 0 182.5 -38 q77.5 -38 119.5 -107 q42 -69 42 -162 q0 -98 -52.5 -186.5 q-52.5 -88.5 -159.5 -173.5 l11 31 l192 0 l0 -85 l-271 0 l0 82 q87 79 131 162 q44 83 44 167 q0 107 -63.5 166 q-63.5 59 -175.5 59 q-113 0 -176 -59 q-63 -59 -63 -166 q0 -85 44.5 -167 q44.5 -82 131.5 -162 l0 -82 l-272 0 l0 85 l192 0 l12 -31 q-109 85 -161.5 173.5 q-52.5 88.5 -52.5 186.5 q0 93 43 162 q43 69 120 107 q77 38 182 38 Z" /><glyph glyph-name="Delta" unicode="&#x2206;" d="M398 721 q105 0 182.5 -38 q77.5 -38 119.5 -107 q42 -69 42 -162 q0 -98 -52.5 -186.5 q-52.5 -88.5 -159.5 -173.5 l11 31 l192 0 l0 -85 l-271 0 l0 82 q87 79 131 162 q44 83 44 167 q0 107 -63.5 166 q-63.5 59 -175.5 59 q-113 0 -176 -59 q-63 -59 -63 -166 q0 -85 44.5 -167 q44.5 -82 131.5 -162 l0 -82 l-272 0 l0 85 l192 0 l12 -31 q-109 85 -161.5 173.5 q-52.5 88.5 -52.5 186.5 q0 93 43 162 q43 69 120 107 q77 38 182 38 Z" /><glyph glyph-name="product" unicode="&#x220f;" d="M546 712 l0 -894 l-94 0 l0 809 l-304 0 l0 -809 l-94 0 l0 894 l492 0 Z" /><glyph glyph-name="summation" unicode="&#x2211;" d="M551 -96 l0 -86 l-509 0 l0 76 l287 408 l0 -74 l-287 409 l0 75 l509 0 l0 -85 l-418 0 l0 43 l261 -370 l0 -69 l-261 -371 l0 44 l418 0 Z" /><glyph glyph-name="radical" unicode="&#x221a;" d="M582 766 l-259 -968 l-79 0 l-143 453 l-98 0 l0 74 l156 0 l123 -401 l220 842 l80 0 Z" /><glyph glyph-name="mu" unicode="µ" d="M512 504 l0 -504 l-98 0 l0 107 l12 4 q-21 -58 -67 -88 q-46 -30 -106 -30 q-35 0 -60.5 9.5 q-25.5 9.5 -45.5 27.5 l24 33 l0 -279 l-101 0 l0 720 l101 0 l0 -308 q0 -62 25.5 -91.5 q25.5 -29.5 78.5 -29.5 q61 0 98.5 40 q37.5 40 37.5 106 l0 283 l101 0 Z" /><glyph glyph-name="partialdiff" unicode="&#x2202;" d="M292 -16 q-72 1 -128.5 32.5 q-56.5 31.5 -88.5 91.5 q-32 60 -32 144 q0 85 32 145 q32 60 85 92.5 q53 32.5 119 32.5 q55 0 100.5 -24 q45.5 -24 73.5 -82 l-12 1 q-5 76 -26.5 129 q-21.5 53 -56 85.5 q-34.5 32.5 -78 46.5 q-43.5 14 -93.5 14 l-43 0 l0 77 q20 2 36.5 3.5 q16.5 1.5 36.5 1.5 q53 0 101.5 -15 q48.5 -15 90 -48 q41.5 -33 72.5 -85 q31 -52 48.5 -126 q17.5 -74 17.5 -171 q0 -119 -32 -195.5 q-32 -76.5 -89 -113 q-57 -36.5 -134 -36.5 ZM292 67 q65 0 106.5 51 q41.5 51 41.5 145 q0 56 -20 95.5 q-20 39.5 -53.5 59.5 q-33.5 20 -73.5 20 q-41 0 -75 -21.5 q-34 -21.5 -53.5 -63 q-19.5 -41.5 -19.5 -100.5 q0 -59 19 -100.5 q19 -41.5 52.5 -63.5 q33.5 -22 75.5 -22 Z" /><glyph glyph-name="lozenge" unicode="&#x25ca;" d="M559 282 l-217 -484 l-78 0 l-216 484 l216 484 l78 0 l217 -484 ZM477 282 l-174 390 l-174 -390 l174 -391 l174 391 Z" /><glyph glyph-name="uniF8FF" unicode="&#xf8ff;" d="M138 1 l71 226 l-192 146 l239 0 l74 226 l78 -226 l239 0 l-192 -146 l71 -226 l-196 136 l-192 -136 ZM264 200 l28 0 l0 87 l-5 -2 l34 -64 l23 0 l35 64 l-5 2 l0 -87 l28 0 l0 131 l-27 0 l-45 -86 l7 0 l-46 86 l-27 0 l0 -131 Z" /><glyph glyph-name="at" unicode="@" d="M480 -155 q-134 0 -231 54 q-97 54 -149.5 150.5 q-52.5 96.5 -52.5 224.5 q0 102 32.5 184.5 q32.5 82.5 91.5 140.5 q59 58 138 88.5 q79 30.5 171 30.5 q102 0 179 -31 q77 -31 129 -83.5 q52 -52.5 78 -119.5 q26 -67 26 -138 q0 -76 -17.5 -129.5 q-17.5 -53.5 -47 -87 q-29.5 -33.5 -65.5 -49 q-36 -15.5 -75 -15.5 q-55 0 -86 23.5 q-31 23.5 -35 64.5 l-2 0 q-24 -38 -61 -63 q-37 -25 -91 -25 q-68 0 -109 47 q-41 47 -41 130 q0 52 15 99.5 q15 47.5 43 84 q28 36.5 67 57.5 q39 21 87 21 q46 0 80.5 -21 q34.5 -21 45.5 -56 l1 0 l12 66 l78 0 l-46 -264 q-9 -55 4.5 -78 q13.5 -23 51.5 -23 q17 0 37 11 q20 11 38 36 q18 25 29.5 67 q11.5 42 11.5 104 q0 59 -20.5 113 q-20.5 54 -62 97 q-41.5 43 -105 67.5 q-63.5 24.5 -149.5 24.5 q-75 0 -140 -25 q-65 -25 -113 -73.5 q-48 -48.5 -75 -118 q-27 -69.5 -27 -157.5 q0 -109 42.5 -190 q42.5 -81 122 -125.5 q79.5 -44.5 190.5 -44.5 q84 0 143 23 q59 23 89 63 l103 0 q-40 -70 -126.5 -112.5 q-86.5 -42.5 -208.5 -42.5 ZM429 128 q50 0 84.5 30 q34.5 30 51.5 76 q17 46 17 95 q0 55 -26.5 82.5 q-26.5 27.5 -70.5 27.5 q-47 0 -79.5 -29 q-32.5 -29 -49.5 -74 q-17 -45 -17 -91 q0 -57 26.5 -87 q26.5 -30 63.5 -30 Z" /><glyph glyph-name="ampersand" unicode="&amp;" d="M283 -7 q-71 0 -124 24 q-53 24 -82.5 66 q-29.5 42 -29.5 99 q0 69 43.5 123 q43.5 54 141.5 106 q61 34 96 59.5 q35 25.5 49 48 q14 22.5 14 47.5 q0 36 -22 58 q-22 22 -58 22 q-41 0 -66 -24 q-25 -24 -25 -63 q0 -19 6.5 -36.5 q6.5 -17.5 23 -39.5 q16.5 -22 47.5 -56 l244 -266 q30 -32 67.5 -57 q37.5 -25 84.5 -44 l-52 -69 q-51 21 -90.5 48 q-39.5 27 -69.5 59 l-268 290 q-32 36 -51.5 64 q-19.5 28 -28 53.5 q-8.5 25.5 -8.5 52.5 q0 49 23.5 85 q23.5 36 65 56 q41.5 20 95.5 20 q77 0 122.5 -40 q45.5 -40 45.5 -108 q0 -41 -19 -76 q-19 -35 -62 -69 q-43 -34 -115 -73 q-48 -27 -78 -53 q-30 -26 -43.5 -53 q-13.5 -27 -13.5 -60 q0 -53 38 -83.5 q38 -30.5 102 -30.5 q72 0 128 44 q56 44 89.5 122.5 q33.5 78.5 36.5 183.5 l87 0 q-3 -96 -30 -175 q-27 -79 -73 -136 q-46 -57 -107 -88 q-61 -31 -134 -31 Z" /><glyph glyph-name="paragraph" unicode="¶" d="M519 712 l0 -894 l-78 0 l0 825 l-116 0 l0 -825 l-77 0 l0 482 q-63 0 -109 26.5 q-46 26.5 -71.5 73 q-25.5 46.5 -25.5 107.5 q0 60 25.5 106.5 q25.5 46.5 72.5 72.5 q47 26 110 26 l269 0 Z" /><glyph glyph-name="section" unicode="§" d="M422 50 l-41 53 q19 15 30 39 q11 24 11 48 q0 33 -23 60.5 q-23 27.5 -76 54.5 l-105 54 q-50 25 -80 51.5 q-30 26.5 -44.5 58 q-14.5 31.5 -14.5 69.5 q0 83 56.5 132 q56.5 49 152.5 49 q52 0 100 -16.5 q48 -16.5 82 -46.5 l-30 -71 q-37 28 -73.5 41.5 q-36.5 13.5 -73.5 13.5 q-55 0 -85 -24.5 q-30 -24.5 -30 -71.5 q0 -35 19 -59.5 q19 -24.5 65 -46.5 l106 -51 q79 -39 113.5 -81.5 q34.5 -42.5 34.5 -101.5 q0 -47 -25.5 -88 q-25.5 -41 -68.5 -66 ZM265 -189 q-61 0 -112 16 q-51 16 -91 48 l31 73 q42 -30 83.5 -43.5 q41.5 -13.5 87.5 -13.5 q52 0 82 24.5 q30 24.5 30 70.5 q0 36 -19 60 q-19 24 -64 47 l-107 51 q-80 37 -114 79.5 q-34 42.5 -34 102.5 q0 46 23 86 q23 40 62 65 l46 -53 q-18 -16 -28 -38.5 q-10 -22.5 -10 -45.5 q0 -33 23.5 -59.5 q23.5 -26.5 76.5 -55.5 l106 -52 q49 -25 79.5 -52 q30.5 -27 44.5 -58.5 q14 -31.5 14 -70.5 q0 -85 -55.5 -133 q-55.5 -48 -154.5 -48 Z" /><glyph glyph-name="copyright" unicode="©" d="M412 -5 q-77 0 -142.5 27.5 q-65.5 27.5 -114.5 77 q-49 49.5 -76.5 115.5 q-27.5 66 -27.5 142 q0 77 27.5 142.5 q27.5 65.5 76.5 114 q49 48.5 114.5 76 q65.5 27.5 142.5 27.5 q77 0 142.5 -27.5 q65.5 -27.5 114.5 -76 q49 -48.5 76.5 -114 q27.5 -65.5 27.5 -142.5 q0 -76 -27.5 -142 q-27.5 -66 -76.5 -115.5 q-49 -49.5 -114.5 -77 q-65.5 -27.5 -142.5 -27.5 ZM412 45 q66 0 122 23.5 q56 23.5 98 66 q42 42.5 65 99.5 q23 57 23 123 q0 66 -23 122.5 q-23 56.5 -65 98.5 q-42 42 -98 65.5 q-56 23.5 -122 23.5 q-66 0 -122.5 -23.5 q-56.5 -23.5 -98.5 -65.5 q-42 -42 -65 -98.5 q-23 -56.5 -23 -122.5 q0 -66 23 -123 q23 -57 65 -99.5 q42 -42.5 98.5 -66 q56.5 -23.5 122.5 -23.5 ZM422 138 q-97 0 -153 59 q-56 59 -56 160 q0 66 25.5 115 q25.5 49 72.5 75.5 q47 26.5 111 26.5 q44 0 84 -14 q40 -14 68 -39 l-26 -65 q-26 20 -55 32 q-29 12 -61 12 q-60 0 -92.5 -37 q-32.5 -37 -32.5 -106 q0 -70 32.5 -107.5 q32.5 -37.5 92.5 -37.5 q32 0 61 12 q29 12 55 32 l26 -65 q-28 -25 -68 -39 q-40 -14 -84 -14 Z" /><glyph glyph-name="registered" unicode="®" d="M412 -5 q-77 0 -142.5 27.5 q-65.5 27.5 -114.5 77 q-49 49.5 -76.5 115.5 q-27.5 66 -27.5 142 q0 77 27.5 142.5 q27.5 65.5 76.5 114 q49 48.5 114.5 76 q65.5 27.5 142.5 27.5 q77 0 142.5 -27.5 q65.5 -27.5 114.5 -76 q49 -48.5 76.5 -114 q27.5 -65.5 27.5 -142.5 q0 -76 -27.5 -142 q-27.5 -66 -76.5 -115.5 q-49 -49.5 -114.5 -77 q-65.5 -27.5 -142.5 -27.5 ZM412 45 q66 0 122 23.5 q56 23.5 98 66 q42 42.5 65 99.5 q23 57 23 123 q0 66 -23 122.5 q-23 56.5 -65 98.5 q-42 42 -98 65.5 q-56 23.5 -122 23.5 q-66 0 -122.5 -23.5 q-56.5 -23.5 -98.5 -65.5 q-42 -42 -65 -98.5 q-23 -56.5 -23 -122.5 q0 -66 23 -123 q23 -57 65 -99.5 q42 -42.5 98.5 -66 q56.5 -23.5 122.5 -23.5 ZM254 143 l0 427 l185 0 q74 0 113 -35 q39 -35 39 -94 q0 -58 -39 -93 q-39 -35 -109 -35 l18 6 q27 0 48 -11.5 q21 -11.5 37 -38.5 l72 -126 l-102 0 l-76 137 q-10 16 -21 22.5 q-11 6.5 -30 6.5 l-44 0 l0 -166 l-91 0 ZM344 377 l84 0 q38 0 56 14 q18 14 18 46 q0 33 -18 47.5 q-18 14.5 -56 14.5 l-84 0 l0 -122 Z" /><glyph glyph-name="trademark" unicode="&#x2122;" d="M143 287 l0 349 l-133 0 l0 76 l360 0 l0 -76 l-133 0 l0 -349 l-94 0 ZM433 287 l0 425 l74 0 l148 -284 l-20 0 l149 284 l71 0 l0 -425 l-81 0 l0 291 l16 -2 l-115 -219 l-60 0 l-117 219 l18 2 l0 -291 l-83 0 Z" /><glyph glyph-name="degree" unicode="°" d="M185 421 q-42 0 -76 19 q-34 19 -54 53 q-20 34 -20 76 q0 43 20 76.5 q20 33.5 54 52.5 q34 19 76 19 q42 0 75.5 -19 q33.5 -19 53.5 -52.5 q20 -33.5 20 -76.5 q0 -42 -20 -76 q-20 -34 -53.5 -53 q-33.5 -19 -75.5 -19 ZM185 481 q36 0 60.5 25 q24.5 25 24.5 63 q0 38 -24.5 63 q-24.5 25 -60.5 25 q-37 0 -61 -25 q-24 -25 -24 -63 q0 -38 24 -63 q24 -25 61 -25 Z" /><glyph glyph-name="minute" unicode="&#x2032;" d="M83 426 l-26 286 l118 0 l-24 -286 l-68 0 Z" /><glyph glyph-name="second" unicode="&#x2033;" d="M83 426 l-26 286 l118 0 l-24 -286 l-68 0 ZM289 426 l-26 286 l118 0 l-24 -286 l-68 0 Z" /><glyph glyph-name="bar" unicode="|" d="M88 -182 l0 894 l96 0 l0 -894 l-96 0 Z" /><glyph glyph-name="brokenbar" unicode="¦" d="M88 375 l0 337 l96 0 l0 -337 l-96 0 ZM88 -182 l0 338 l96 0 l0 -338 l-96 0 Z" /><glyph glyph-name="dagger" unicode="&#x2020;" d="M207 720 l0 -121 l110 0 l0 -65 l-110 0 l0 -367 l-76 0 l0 367 l-111 0 l0 65 l111 0 l0 121 l76 0 Z" /><glyph glyph-name="uni2113" unicode="&#x2113;" d="M323 -16 q-47 0 -75 19.5 q-28 19.5 -41 51 q-13 31.5 -13 67.5 l0 95 l-51 -57 l-43 41 l94 102 l0 243 q0 54 16.5 92.5 q16.5 38.5 46.5 58.5 q30 20 71 20 q36 0 60.5 -15 q24.5 -15 37 -40.5 q12.5 -25.5 12.5 -56.5 q0 -78 -34 -142 q-34 -64 -87 -129 q-7 -9 -15 -19 q-8 -10 -13 -18 l0 -156 q0 -38 15 -57.5 q15 -19.5 42 -19.5 q21 0 40 11 q19 11 40 31 l34 -58 q-27 -27 -61 -45.5 q-34 -18.5 -76 -18.5 ZM289 393 q4 6 7.5 11 q3.5 5 6.5 10 q29 42 48.5 88 q19.5 46 19.5 86 q0 19 -9 35 q-9 16 -28 16 q-21 0 -33 -20 q-12 -20 -12 -70 l0 -156 Z" /><glyph glyph-name="daggerdbl" unicode="&#x2021;" d="M207 720 l0 -120 l110 0 l0 -65 l-110 0 l0 -183 l110 0 l0 -64 l-110 0 l0 -121 l-76 0 l0 121 l-111 0 l0 64 l111 0 l0 183 l-111 0 l0 65 l111 0 l0 120 l76 0 Z" /><glyph glyph-name="estimated" unicode="&#x212e;" d="M452 -5 q-96 0 -170.5 28.5 q-74.5 28.5 -126 77.5 q-51.5 49 -78 113 q-26.5 64 -26.5 134 q0 71 27 137 q27 66 79 118.5 q52 52.5 126 83 q74 30.5 167 30.5 q116 0 194 -33.5 q78 -33.5 123.5 -89.5 q45.5 -56 65 -123.5 q19.5 -67.5 19.5 -136.5 l-649 0 q-5 0 -5 -6 l0 -173 q0 -7 1.5 -16 q1.5 -9 5.5 -14 q83 -98 244 -98 q86 0 148 29.5 q62 29.5 114 78.5 l72 0 q-40 -47 -85 -78.5 q-45 -31.5 -104 -46.5 q-59 -15 -142 -15 ZM203 366 l497 0 q5 0 5 6 l0 190 q0 14 -10 26 q-35 41 -79.5 62 q-44.5 21 -88.5 28.5 q-44 7.5 -80 7.5 q-58 0 -122 -21 q-64 -21 -118 -75 q-9 -9 -9 -27 l0 -191 q0 -6 5 -6 Z" /><glyph glyph-name="uni2116" unicode="&#x2116;" d="M921 409 q-50 0 -85 20.5 q-35 20.5 -52.5 55.5 q-17.5 35 -17.5 79 q0 44 17.5 78.5 q17.5 34.5 52.5 54.5 q35 20 85 20 q52 0 86.5 -20 q34.5 -20 53 -54.5 q18.5 -34.5 18.5 -78.5 q0 -44 -18.5 -79 q-18.5 -35 -53 -55.5 q-34.5 -20.5 -86.5 -20.5 ZM921 478 q36 0 54 22.5 q18 22.5 18 63.5 q0 41 -18 63 q-18 22 -54 22 q-34 0 -51.5 -22 q-17.5 -22 -17.5 -63 q0 -41 17.5 -63.5 q17.5 -22.5 51.5 -22.5 ZM778 228 l0 82 l291 0 l0 -82 l-291 0 ZM83 0 l0 712 l78 0 l434 -572 l-25 -10 l0 582 l97 0 l0 -712 l-79 0 l-432 571 l24 11 l0 -582 l-97 0 Z" /><glyph glyph-name="uni02BC" unicode="&#x2bc;" d="M205 763 l0 -60 q0 -40 -11 -73 q-11 -33 -42 -63 l-42 31 q22 23 29 44 q7 21 7 45 l27 -16 l-81 0 l0 92 l113 0 Z" /><glyph glyph-name="uni02BB" unicode="&#x2bb;" d="M95 587 l0 60 q0 40 11 73 q11 33 42 62 l42 -30 q-22 -23 -29 -44.5 q-7 -21.5 -7 -45.5 l-27 17 l81 0 l0 -92 l-113 0 Z" /><glyph glyph-name="uni02C9" unicode="&#x2c9;" d="M-2 624 l0 72 l307 0 l0 -72 l-307 0 Z" /><glyph glyph-name="uni02CB" unicode="&#x2cb;" d="M118 558 l-142 205 l110 0 l99 -205 l-67 0 Z" /><glyph glyph-name="uni02BF" unicode="&#x2bf;" d="M152 763 l0 -53 q-21 0 -34.5 -14 q-13.5 -14 -13.5 -35 q0 -21 13.5 -35 q13.5 -14 34.5 -14 l0 -53 q-44 0 -74.5 29 q-30.5 29 -30.5 73 q0 43 30.5 72.5 q30.5 29.5 74.5 29.5 Z" /><glyph glyph-name="uni02BE" unicode="&#x2be;" d="M152 763 q29 0 52.5 -13.5 q23.5 -13.5 37.5 -36.5 q14 -23 14 -52 q0 -44 -30.5 -73 q-30.5 -29 -73.5 -29 l0 53 q20 0 33.5 14 q13.5 14 13.5 35 q0 21 -13.5 35 q-13.5 14 -33.5 14 l0 53 Z" /><glyph glyph-name="uni02CA" unicode="&#x2ca;" d="M185 558 l-67 0 l99 205 l110 0 l-142 -205 Z" /><glyph glyph-name="uni02CC" unicode="&#x2cc;" d="M116 -273 l0 204 l71 0 l0 -204 l-71 0 Z" /><glyph glyph-name="uni02C8" unicode="&#x2c8;" d="M116 558 l0 203 l71 0 l0 -203 l-71 0 Z" /><glyph glyph-name="uni0308" unicode="&#x308;" d="M189 710 l104 0 l0 -100 l-104 0 l0 100 ZM10 710 l104 0 l0 -100 l-104 0 l0 100 Z" /><glyph glyph-name="uni0307" unicode="&#x307;" d="M93 713 l117 0 l0 -106 l-117 0 l0 106 Z" /><glyph glyph-name="gravecomb" unicode="&#x300;" d="M118 558 l-142 205 l110 0 l99 -205 l-67 0 Z" /><glyph glyph-name="acutecomb" unicode="&#x301;" d="M185 558 l-67 0 l99 205 l110 0 l-142 -205 Z" /><glyph glyph-name="uni030B" unicode="&#x30b;" d="M112 558 l-48 0 l43 205 l85 0 l-80 -205 ZM239 558 l-48 0 l42 205 l86 0 l-80 -205 Z" /><glyph glyph-name="uni0302" unicode="&#x302;" d="M83 558 l-87 0 l122 205 l67 0 l122 -205 l-87 0 l-68 136 l-69 -136 Z" /><glyph glyph-name="uni030C" unicode="&#x30c;" d="M220 763 l87 0 l-122 -205 l-67 0 l-122 205 l87 0 l69 -138 l68 138 Z" /><glyph glyph-name="uni0306" unicode="&#x306;" d="M152 586 q-37 0 -71 13.5 q-34 13.5 -61 43 q-27 29.5 -41 76.5 l56 24 q24 -48 53.5 -67.5 q29.5 -19.5 63.5 -19.5 q34 0 63 19.5 q29 19.5 53 67.5 l56 -24 q-14 -47 -40.5 -76.5 q-26.5 -29.5 -61 -43 q-34.5 -13.5 -70.5 -13.5 Z" /><glyph glyph-name="uni030A" unicode="&#x30a;" d="M152 558 q-44 0 -74.5 29.5 q-30.5 29.5 -30.5 73.5 q0 43 30.5 72.5 q30.5 29.5 74.5 29.5 q29 0 52.5 -14 q23.5 -14 37.5 -37 q14 -23 14 -51 q0 -44 -30.5 -73.5 q-30.5 -29.5 -73.5 -29.5 ZM152 611 q20 0 33.5 14 q13.5 14 13.5 36 q0 20 -13.5 34 q-13.5 14 -33.5 14 q-21 0 -34.5 -14 q-13.5 -14 -13.5 -34 q0 -22 13.5 -36 q13.5 -14 34.5 -14 Z" /><glyph glyph-name="tildecomb" unicode="&#x303;" d="M-15 601 q0 61 27 92.5 q27 31.5 69 31.5 q27 0 52 -14 q25 -14 47 -28.5 q22 -14.5 41 -14.5 q22 0 34 15.5 q12 15.5 12 38.5 l51 0 q0 -61 -27 -92.5 q-27 -31.5 -69 -31.5 q-27 0 -52 14 q-25 14 -47 28 q-22 14 -41 14 q-22 0 -34 -16 q-12 -16 -12 -37 l-51 0 Z" /><glyph glyph-name="uni0304" unicode="&#x304;" d="M-2 624 l0 72 l307 0 l0 -72 l-307 0 Z" /><glyph glyph-name="hookabovecomb" unicode="&#x309;" d="M183 576 l0 -18 l-59 0 l0 27 q0 20 9 34.5 q9 14.5 22 25.5 q13 11 22 21 q9 10 9 20 q0 12 -10 18.5 q-10 6.5 -29 6.5 q-13 0 -26.5 -2.5 q-13.5 -2.5 -29.5 -8.5 l-17 48 q21 10 42 14 q21 4 41 4 q51 0 77.5 -21 q26.5 -21 26.5 -50 q0 -24 -11.5 -39 q-11.5 -15 -27 -26.5 q-15.5 -11.5 -27.5 -23 q-12 -11.5 -12 -30.5 Z" /><glyph glyph-name="uni030F" unicode="&#x30f;" d="M191 558 l-80 205 l85 0 l43 -205 l-48 0 ZM64 558 l-80 205 l86 0 l42 -205 l-48 0 Z" /><glyph glyph-name="uni0311" unicode="&#x311;" d="M152 741 q36 0 70 -14 q34 -14 61 -43 q27 -29 41 -76 l-56 -24 q-24 48 -53 67.5 q-29 19.5 -63 19.5 q-34 0 -63.5 -19.5 q-29.5 -19.5 -53.5 -67.5 l-56 24 q14 47 40.5 76 q26.5 29 61 43 q34.5 14 71.5 14 Z" /><glyph glyph-name="uni0312" unicode="&#x312;" d="M95 587 l0 60 q0 40 11 73 q11 33 42 62 l42 -30 q-22 -23 -29 -44.5 q-7 -21.5 -7 -45.5 l-27 17 l81 0 l0 -92 l-113 0 Z" /><glyph glyph-name="uni031B" unicode="&#x31b;" d="M206 440 l-55 36 l0 21 q39 1 62.5 11.5 q23.5 10.5 33.5 34.5 q10 24 10 63 l0 16 l89 0 l0 -29 q0 -66 -37 -107 q-37 -41 -103 -46 Z" /><glyph glyph-name="dotbelowcomb" unicode="&#x323;" d="M98 -87 l107 0 l0 -102 l-107 0 l0 102 Z" /><glyph glyph-name="uni0324" unicode="&#x324;" d="M189 -88 l104 0 l0 -100 l-104 0 l0 100 ZM10 -88 l104 0 l0 -100 l-104 0 l0 100 Z" /><glyph glyph-name="uni0326" unicode="&#x326;" d="M208 -71 l0 -60 q0 -40 -11 -73 q-11 -33 -43 -62 l-42 30 q22 23 29.5 44 q7.5 21 7.5 45 l26 -16 l-80 0 l0 92 l113 0 Z" /><glyph glyph-name="uni0327" unicode="&#x327;" d="M149 -196 q-21 0 -46 4.5 q-25 4.5 -45 14.5 l13 48 q22 -8 40.5 -11 q18.5 -3 35.5 -3 q26 0 40 8.5 q14 8.5 14 23.5 q0 25 -35 25 q-12 0 -23 -2 q-11 -2 -20 -6 l-20 17 l12 97 l64 0 l-9 -74 l-29 4 q13 4 26 6.5 q13 2.5 25 2.5 q32 0 55.5 -17.5 q23.5 -17.5 23.5 -52.5 q0 -36 -31.5 -60.5 q-31.5 -24.5 -90.5 -24.5 Z" /><glyph glyph-name="uni0328" unicode="&#x328;" d="M117 -196 q-53 0 -87 30 q-34 30 -34 77 q0 49 35.5 85.5 q35.5 36.5 105.5 46.5 l15 -33 q-42 -9 -62.5 -31.5 q-20.5 -22.5 -20.5 -53.5 q0 -29 17.5 -44.5 q17.5 -15.5 47.5 -15.5 q12 0 27 4 q15 4 30 12 l17 -55 q-19 -10 -42 -16 q-23 -6 -49 -6 Z" /><glyph glyph-name="uni032E" unicode="&#x32e;" d="M152 -217 q-37 0 -71 13.5 q-34 13.5 -61 42.5 q-27 29 -41 76 l56 24 q24 -47 53.5 -66.5 q29.5 -19.5 63.5 -19.5 q34 0 63 19.5 q29 19.5 53 66.5 l56 -23 q-14 -48 -40.5 -77 q-26.5 -29 -61 -42.5 q-34.5 -13.5 -70.5 -13.5 Z" /><glyph glyph-name="uni0331" unicode="&#x331;" d="M-2 -173 l0 69 l307 0 l0 -69 l-307 0 Z" /><glyph glyph-name="uni0335" unicode="&#x335;" d="M-2 217 l0 64 l307 0 l0 -64 l-307 0 Z" /><glyph glyph-name=".null" unicode="" d="" /></font>
</defs>
</svg>
